<?xml version="1.0" encoding="utf-8"?>
<!-- Generator: Adobe Illustrator 27.4.1, SVG Export Plug-In . SVG Version: 6.00 Build 0)  -->
<svg version="1.1" id="Layer_1" xmlns="http://www.w3.org/2000/svg" xmlns:xlink="http://www.w3.org/1999/xlink" x="0px" y="0px"
	 viewBox="0 0 841.89 595.28" style="enable-background:new 0 0 841.89 595.28;" xml:space="preserve">
<style type="text/css">
	.st0{fill:#FFFFFF;}
	.st1{fill:#C7B77B;}
	.st2{fill:#C9B67B;}
	.st3{fill:#F7F7F7;}
</style>
<rect x="0" y="0" width="841.89" height="595.28"/>
<g>
	<g>
		<path class="st0" d="M346.07,333.2c32.08,31.5,65.1,42.1,66.49,42.55l5.49,1.71c0.93,0.31,1.91,0.46,2.9,0.46
			c0.99,0,1.96-0.15,2.91-0.46l5.47-1.71c1.39-0.46,34.43-11.06,66.5-42.55c28.84-28.31,63.2-79.97,63.2-165.24v-8.55
			c0-3.42-1.83-6.62-4.78-8.34l-7.86-4.6c-0.66-0.39-3.83-2.19-9.48-4.68c2.07-5.7,3.1-10.44,3.13-14.37
			c3.65-3.33,6.22-6.35,7.65-10.24c2.04-5.54,0.66-11.82-3.52-16c-2.54-2.54-6.99-5.56-13.86-5.56c-17.51,0-42.15,24.18-44.88,26.94
			c-1.05,1.03-2.14,2.19-3.31,3.45c-19.24-3.36-39.81-5.06-61.18-5.06c-21.08,0-41.38,1.65-60.39,4.92
			c-1.12-1.21-2.18-2.32-3.16-3.3c-2.75-2.76-27.39-26.95-44.89-26.95c-6.86,0-11.32,3.02-13.86,5.56c-4.18,4.18-5.56,10.46-3.51,16
			c1.43,3.89,4,6.91,7.64,10.24c0.03,3.85,1.02,8.48,3,14.02c-6.15,2.66-9.57,4.61-10.28,5.03l-7.85,4.6
			c-2.95,1.72-4.78,4.92-4.78,8.34v8.55C282.86,253.23,317.23,304.89,346.07,333.2z"/>
		<path class="st0" d="M417.49,456.41c2.55,1.49,5.31,2.66,8.23,3.47c2.94,0.82,6.01,1.23,9.15,1.23c3.57,0,7.05-0.53,10.32-1.57
			c3.12-0.99,6.08-2.41,8.81-4.21c1.96-1.24,3.56-2.94,4.62-4.96c1.91-3.57,1.92-7.76,0.05-11.5c-0.25-0.47-0.52-0.95-0.84-1.4
			l-5.16-7.41c-0.07-0.12-0.16-0.22-0.24-0.34c-1.01-1.36-2.14-2.36-3.24-3.08c1.32-0.9,2.5-2.07,3.45-3.46l5.02-7.14
			c0.33-0.45,0.64-0.96,0.88-1.45c1.81-3.65,1.84-7.75,0.08-11.28c-1.06-2.14-2.7-3.95-4.75-5.25c-2.71-1.8-5.66-3.21-8.77-4.18
			c-3.22-1.01-6.68-1.54-10.24-1.54c-3.16,0-6.25,0.43-9.2,1.27c-2.88,0.81-5.61,1.97-8.13,3.43c-1.35,0.79-2.64,1.66-3.86,2.62
			c-0.9-1.63-2.18-3.07-3.8-4.21c-2.25-1.59-4.85-2.43-7.48-2.43h-8.87c-1.8,0-3.54,0.35-5.12,1.03c-1.59-0.69-3.31-1.03-5.08-1.03
			h-32.46c-1.43,0-2.86,0.23-4.2,0.69c-1.35-0.45-2.78-0.69-4.24-0.69h-29.93c-3.62,0-6.93,1.43-9.32,4.04
			c-2.15,2.34-3.33,5.42-3.33,8.67v21.41h-2.3v-21.51c0-0.18,0-0.37-0.01-0.56c-0.18-3.52-1.74-6.71-4.4-9
			c-2.32-1.99-5.27-3.07-8.3-3.07h-8.93c-2.06,0-4.05,0.47-5.81,1.38c-1.81-0.89-3.8-1.35-5.86-1.35h-8.82
			c-3.38,0-6.52,1.27-8.89,3.61c-0.31-0.29-0.63-0.57-0.97-0.83c-2.33-1.82-5.06-2.78-7.91-2.78h-8.96c-1.74,0-3.46,0.36-5.04,1.05
			c-1.6-0.69-3.33-1.05-5.13-1.05h-32.46c-2.83,0-5.54,0.9-7.76,2.59c-2.19-1.69-4.89-2.59-7.69-2.59h-7.72
			c-1.57,0-3.12,0.28-4.64,0.87c-1.13,0.44-2.21,1.04-3.18,1.77c-0.95,0.72-1.8,1.55-2.52,2.47c-0.89,1.13-1.57,2.39-2.01,3.71
			l-16.21,41.98c-1.96,5.01-0.51,10.58,3.61,13.85c2.28,1.82,5.05,2.79,8.03,2.79h8.9c5.03,0,9.45-2.8,11.62-7.23h0.5
			c0.99,2.05,2.46,3.78,4.3,5.02c2.16,1.47,4.67,2.21,7.44,2.21h8.66c1.9,0,3.71-0.37,5.35-1.08c1.61,0.7,3.36,1.08,5.11,1.08h8.85
			c3.68,0,7.04-1.48,9.47-4.21c0.58-0.65,1.09-1.35,1.52-2.09c0.58,1.03,1.31,1.96,2.17,2.81c2.34,2.26,5.48,3.49,8.84,3.49h8.87
			c3.18,0,6.11-1.05,8.44-3.04c0.19-0.16,0.37-0.33,0.55-0.5c0.13,0.13,0.26,0.26,0.4,0.37c2.31,2.05,5.32,3.17,8.47,3.17h8.91
			c2.06,0,4.02-0.45,5.79-1.32c1.75,0.87,3.71,1.32,5.76,1.32h26.94c0.18,0,0.35,0,0.53-0.01c1.48-0.06,2.92-0.39,4.26-0.93
			c1.53,0.62,3.18,0.94,4.9,0.94h30.5c4,0,7.56-1.69,9.89-4.59c0.37,0.44,0.78,0.86,1.22,1.26c2.38,2.15,5.42,3.33,8.56,3.33h8.85
			c3.67,0,7.04-1.48,9.46-4.21c0.59-0.65,1.09-1.36,1.54-2.11c0.54,0.97,1.22,1.88,2.02,2.68c2.36,2.35,5.55,3.64,9,3.64h8.87
			c3.48,0,6.69-1.27,9.07-3.61c0.9-0.89,1.66-1.9,2.24-2.99C414.91,454.77,416.18,455.63,417.49,456.41z M434.65,426.71
			c0-0.36,0.05-0.5,0.09-0.55c0.01-0.02,0.02-0.05,0.03-0.07c0.03,0,0.05,0,0.05,0.01c0.04,0.01,0.04,0.02,0.05,0.02
			c0.28,0.2,0.54,0.39,0.81,0.57c-0.25,0.16-0.5,0.34-0.74,0.51c-0.05,0.03-0.1,0.06-0.14,0.07c0,0-0.02,0-0.06,0.01
			c-0.01-0.02-0.01-0.04-0.02-0.07C434.66,427.08,434.65,426.87,434.65,426.71z"/>
		<path class="st0" d="M702.95,395.21c-2.16-1.44-4.7-2.21-7.34-2.21h-8.82c-3.38,0-6.52,1.27-8.89,3.61
			c-0.3-0.29-0.62-0.57-0.97-0.83c-2.32-1.82-5.05-2.78-7.9-2.78h-8.97c-2.85,0-5.59,0.96-7.78,2.68c-1.5-0.7-3.04-1.31-4.61-1.82
			c-3.24-1.01-6.68-1.54-10.23-1.54c-3.16,0-6.27,0.43-9.22,1.27c-2.87,0.81-5.61,1.97-8.13,3.43c-2.19,1.27-4.22,2.79-6.07,4.52
			c-0.31-0.34-0.62-0.66-0.95-0.98c-2.36-2.32-5.13-4.17-8.24-5.5c-3.21-1.38-6.66-2.06-10.27-2.06h-19.49
			c-1.9,0-3.76,0.41-5.42,1.19c-1.69-0.78-3.53-1.19-5.44-1.19h-29.93c-2.8,0-5.41,0.85-7.57,2.45c-2.19-1.59-4.82-2.45-7.54-2.45
			h-10.32c-3.85,0-7.33,1.64-9.74,4.42c-0.59-0.68-1.28-1.33-2-1.87c-2.22-1.68-4.88-2.55-7.72-2.55h-10.45
			c-3.61,0-6.94,1.43-9.35,4.03c-1.9,2.04-3.06,4.59-3.35,7.36c0,0.02,0,0.04-4.33,42.25c-0.03,0.38-0.05,0.76-0.05,1.14
			c0,3.46,1.28,6.65,3.63,9.01c2.35,2.36,5.54,3.64,8.97,3.64h8.54c2.27,0,4.41-0.52,6.27-1.53c1.79,0.99,3.79,1.51,5.84,1.51h7.94
			c2.05,0,4.03-0.52,5.81-1.5c1.85,1,3.97,1.52,6.21,1.52h8.54c1.88,0,3.7-0.39,5.34-1.11c1.65,0.73,3.44,1.11,5.31,1.11h30.5
			c1.82,0,3.57-0.35,5.16-1.03c1.59,0.68,3.33,1.03,5.13,1.03h8.96c2.84,0,5.46-0.85,7.59-2.39c2.19,1.57,4.77,2.39,7.46,2.39h10.36
			c2.98,0,5.74-0.96,7.98-2.77c0.65-0.53,1.25-1.12,1.78-1.78c0.27,0.18,0.56,0.35,0.84,0.52c2.55,1.49,5.32,2.66,8.23,3.47
			c2.93,0.82,6.01,1.23,9.16,1.23c3.57,0,7.04-0.53,10.32-1.57c1.52-0.49,3-1.08,4.44-1.75c2.19,1.69,4.93,2.65,7.86,2.65h8.88
			c3.18,0,6.11-1.05,8.44-3.04c0.19-0.16,0.37-0.33,0.54-0.5c0.14,0.13,0.27,0.26,0.4,0.37c2.32,2.05,5.32,3.17,8.48,3.17h8.91
			c3.14,0,6.02-1.04,8.34-3.01c2.83-2.4,4.39-5.82,4.39-9.64v-42.21C708.43,401.33,706.43,397.55,702.95,395.21z M638.25,426.69
			c-0.25,0.16-0.51,0.33-0.76,0.51c-0.02,0.02-0.08,0.06-0.12,0.07c0,0-0.02,0-0.08,0.01c-0.01-0.02-0.01-0.04-0.02-0.07
			c-0.04-0.1-0.06-0.27-0.06-0.49c0-0.35,0.05-0.5,0.07-0.55c0.01-0.03,0.02-0.05,0.03-0.07c0.04,0,0.06,0,0.07,0.01
			c0.04,0.01,0.05,0.02,0.06,0.02C637.69,426.32,637.97,426.51,638.25,426.69z"/>
		<path class="st0" d="M218.98,477.73h-3.73c-0.32,0-0.53,0.03-0.71,0.18c-0.16,0.12-0.3,0.36-0.43,0.72l-4.18,11.27
			c-0.2-0.57-0.44-1.16-0.76-1.78c-0.3-0.63-0.59-1.24-0.88-1.86c-0.29-0.57-0.55-1.08-0.77-1.56c-0.25-0.43-0.39-0.78-0.46-0.98
			l1.89-4.54c0.05-0.19,0.11-0.38,0.17-0.55c0.03-0.17,0.02-0.32-0.05-0.48c-0.06-0.12-0.17-0.23-0.33-0.32
			c-0.16-0.08-0.42-0.09-0.74-0.09h-4.02c-0.36,0-0.6,0.03-0.78,0.18c-0.2,0.12-0.37,0.36-0.53,0.72l-3.6,11.36
			c-0.07-0.21-0.2-0.54-0.36-1.02c-0.15-0.48-0.33-1.04-0.56-1.67c-0.2-0.66-0.45-1.35-0.68-2.1c-0.24-0.75-0.51-1.53-0.76-2.3
			c-0.23-0.77-0.5-1.52-0.73-2.28c-0.23-0.76-0.43-1.4-0.63-2c-0.1-0.3-0.24-0.52-0.47-0.69c-0.23-0.18-0.48-0.21-0.77-0.21h-4.33
			c-0.55,0-0.9,0.17-1.02,0.48c-0.13,0.32-0.11,0.7,0.11,1.18l7.84,19.16c0.09,0.22,0.22,0.39,0.41,0.53
			c0.19,0.16,0.53,0.19,0.96,0.19h2.04c0.33,0,0.59-0.03,0.76-0.19c0.15-0.15,0.29-0.32,0.43-0.53l3.1-7.74l3.18,7.69
			c0.1,0.25,0.28,0.42,0.47,0.57c0.2,0.16,0.54,0.19,0.97,0.19h1.79c0.41,0,0.69-0.03,0.9-0.19c0.2-0.15,0.37-0.32,0.49-0.53
			l7.94-19.37c0.18-0.58,0.17-0.96-0.02-1.16C219.9,477.8,219.53,477.73,218.98,477.73z"/>
		<path class="st0" d="M251.7,477.73h-3.76c-0.31,0-0.55,0.03-0.71,0.18c-0.13,0.12-0.26,0.36-0.44,0.72l-4.16,11.27
			c-0.22-0.57-0.45-1.16-0.75-1.78c-0.28-0.63-0.61-1.24-0.87-1.86c-0.31-0.57-0.55-1.08-0.77-1.56c-0.23-0.43-0.39-0.78-0.47-0.98
			l1.86-4.54c0.1-0.19,0.15-0.38,0.17-0.55c0.03-0.17,0.02-0.32-0.02-0.48c-0.05-0.12-0.17-0.23-0.35-0.32
			c-0.17-0.08-0.41-0.09-0.76-0.09h-4.02c-0.34,0-0.6,0.03-0.78,0.18c-0.2,0.12-0.37,0.36-0.5,0.72L231.79,490
			c-0.11-0.21-0.2-0.54-0.37-1.02c-0.17-0.48-0.37-1.04-0.56-1.67c-0.2-0.66-0.44-1.35-0.7-2.1c-0.25-0.75-0.46-1.53-0.75-2.3
			c-0.26-0.77-0.47-1.52-0.71-2.28c-0.25-0.76-0.47-1.4-0.66-2c-0.07-0.3-0.23-0.52-0.45-0.69c-0.22-0.18-0.49-0.21-0.77-0.21h-4.37
			c-0.53,0-0.85,0.17-1,0.48c-0.15,0.32-0.1,0.7,0.13,1.18l7.82,19.16c0.11,0.22,0.24,0.39,0.43,0.53c0.19,0.16,0.49,0.19,0.96,0.19
			h2c0.37,0,0.59-0.03,0.77-0.19c0.17-0.15,0.34-0.32,0.44-0.53l3.12-7.74l3.16,7.69c0.13,0.25,0.29,0.42,0.5,0.57
			c0.21,0.16,0.51,0.19,0.97,0.19h1.79c0.38,0,0.68-0.03,0.9-0.19c0.22-0.15,0.36-0.32,0.45-0.53l7.97-19.37
			c0.17-0.58,0.15-0.96-0.04-1.16C252.6,477.8,252.22,477.73,251.7,477.73z"/>
		<path class="st0" d="M284.41,477.73h-3.78c-0.27,0-0.51,0.03-0.66,0.18c-0.17,0.12-0.33,0.36-0.48,0.72l-4.13,11.27
			c-0.21-0.57-0.48-1.16-0.74-1.78c-0.34-0.63-0.6-1.24-0.94-1.86c-0.26-0.57-0.52-1.08-0.77-1.56c-0.2-0.43-0.37-0.78-0.42-0.98
			l1.85-4.54c0.08-0.19,0.12-0.38,0.15-0.55c0.06-0.17,0.04-0.32-0.03-0.48c-0.04-0.12-0.16-0.23-0.32-0.32
			c-0.15-0.08-0.45-0.09-0.75-0.09h-4.03c-0.32,0-0.61,0.03-0.79,0.18c-0.18,0.12-0.33,0.36-0.48,0.72L264.47,490
			c-0.05-0.21-0.2-0.54-0.38-1.02c-0.16-0.48-0.34-1.04-0.54-1.67c-0.22-0.66-0.43-1.35-0.66-2.1c-0.28-0.75-0.53-1.53-0.76-2.3
			c-0.29-0.77-0.53-1.52-0.76-2.28c-0.2-0.76-0.42-1.4-0.63-2c-0.11-0.3-0.25-0.52-0.49-0.69c-0.21-0.18-0.45-0.21-0.77-0.21h-4.32
			c-0.53,0-0.88,0.17-1.04,0.48c-0.12,0.32-0.06,0.7,0.15,1.18l7.85,19.16c0.04,0.22,0.21,0.39,0.39,0.53
			c0.2,0.16,0.51,0.19,0.97,0.19h2c0.33,0,0.61-0.03,0.77-0.19c0.16-0.15,0.32-0.32,0.45-0.53l3.1-7.74l3.15,7.69
			c0.13,0.25,0.31,0.42,0.51,0.57c0.19,0.16,0.53,0.19,0.96,0.19h1.77c0.38,0,0.72-0.03,0.91-0.19c0.22-0.15,0.38-0.32,0.46-0.53
			l7.98-19.37c0.2-0.58,0.19-0.96-0.01-1.16C285.33,477.8,284.96,477.73,284.41,477.73z"/>
		<path class="st0" d="M294.39,493.85c-0.17-0.16-0.36-0.21-0.54-0.21h-4.47c-0.28,0-0.46,0.05-0.57,0.21
			c-0.16,0.12-0.19,0.3-0.19,0.56v4.08c0,0.54,0.23,0.77,0.76,0.77h4.47c0.26,0,0.47-0.05,0.57-0.21c0.17-0.17,0.21-0.36,0.21-0.56
			v-4.08C294.63,494.15,294.58,493.97,294.39,493.85z"/>
		<path class="st0" d="M320.49,477.91c-0.15-0.15-0.29-0.18-0.45-0.22c-0.16-0.06-0.31-0.08-0.46-0.08h-2.52
			c-0.19,0-0.38,0.02-0.53,0.07c-0.11,0.04-0.23,0.07-0.29,0.16c-0.11,0.08-0.15,0.24-0.26,0.38c-0.07,0.17-0.16,0.43-0.25,0.69
			l-0.68,2.07c-0.3-0.45-0.67-0.89-1.06-1.3c-0.38-0.43-0.79-0.8-1.31-1.15c-0.44-0.37-0.99-0.61-1.56-0.82
			c-0.6-0.23-1.27-0.33-1.93-0.33c-1.56,0-3.03,0.29-4.37,0.84c-1.35,0.59-2.52,1.38-3.5,2.39c-0.97,0.98-1.77,2.15-2.36,3.5
			c-0.56,1.34-0.87,2.84-0.87,4.39c0,1.06,0.15,2.07,0.38,3.03c0.27,0.95,0.63,1.8,1.13,2.66c0.46,0.83,1.05,1.57,1.72,2.23
			c0.65,0.7,1.4,1.27,2.24,1.72c0.82,0.51,1.69,0.89,2.62,1.12c0.94,0.29,1.94,0.39,3.01,0.39c0.57,0,1.11-0.07,1.58-0.26
			c0.54-0.21,0.98-0.48,1.47-0.76c0.43-0.32,0.82-0.62,1.19-0.96c0.37-0.35,0.69-0.69,0.97-0.98l0.53,1.25
			c0.05,0.19,0.1,0.36,0.2,0.54c0.03,0.17,0.11,0.32,0.22,0.42c0.07,0.13,0.19,0.18,0.36,0.29c0.12,0.05,0.33,0.06,0.56,0.06h3.33
			c0.16,0,0.3-0.01,0.46-0.02c0.16-0.03,0.3-0.16,0.45-0.25c0.15-0.12,0.23-0.24,0.33-0.41c0.07-0.17,0.07-0.36,0.07-0.56v-19.14
			c0-0.18-0.01-0.37-0.07-0.54C320.73,478.17,320.64,478.06,320.49,477.91z M314.01,490.6c-0.22,0.64-0.6,1.22-1.12,1.71
			c-0.45,0.45-1.01,0.82-1.67,1.13c-0.68,0.25-1.38,0.4-2.12,0.4c-0.73,0-1.42-0.16-2.02-0.4c-0.58-0.32-1.14-0.68-1.55-1.13
			c-0.41-0.5-0.76-1.08-0.98-1.71c-0.23-0.65-0.35-1.33-0.35-2.1c0-0.73,0.12-1.4,0.35-2.09c0.22-0.62,0.57-1.19,0.98-1.72
			c0.4-0.47,0.96-0.85,1.55-1.17c0.6-0.28,1.3-0.42,2.02-0.42c0.74,0,1.44,0.13,2.12,0.42c0.66,0.32,1.21,0.7,1.67,1.17
			c0.52,0.53,0.9,1.1,1.12,1.72c0.3,0.69,0.43,1.37,0.43,2.09C314.45,489.27,314.31,489.95,314.01,490.6z"/>
		<path class="st0" d="M335.68,478.37h-2.87l0.03-5.35c0-0.42-0.05-0.72-0.22-0.96c-0.14-0.26-0.39-0.37-0.8-0.37
			c-0.05,0-0.13,0-0.18,0c-0.01,0-0.09,0.01-0.17,0.03l-3.85,1.36c-0.4,0.15-0.76,0.3-0.98,0.47c-0.22,0.17-0.37,0.45-0.37,0.8
			l-0.01,4.02h-1.22c-0.88,0-1.29,0.44-1.29,1.3v3.26c0,0.92,0.4,1.36,1.29,1.36h1.22l0.01,13.66c0,0.89,0.44,1.31,1.34,1.31h3.84
			c0.4,0,0.77-0.09,0.99-0.33c0.3-0.21,0.38-0.51,0.38-0.97l-0.03-13.66h2.87c0.38,0,0.63-0.09,0.89-0.3
			c0.22-0.24,0.33-0.58,0.33-1.06v-3.26c0-0.43-0.11-0.77-0.33-0.96C336.31,478.49,336.06,478.37,335.68,478.37z"/>
		<path class="st0" d="M357.2,480.15c-0.7-0.86-1.54-1.52-2.58-2.02c-1.01-0.51-2.17-0.75-3.44-0.75c-0.71,0-1.28,0.08-1.82,0.21
			c-0.52,0.17-0.99,0.36-1.38,0.62c-0.42,0.25-0.77,0.5-1.11,0.83c-0.28,0.3-0.57,0.63-0.8,0.96v-7.44c0-0.18-0.01-0.37-0.07-0.57
			c-0.1-0.2-0.19-0.35-0.33-0.41c-0.35-0.19-0.6-0.28-0.89-0.28h-3.85c-0.46,0-0.83,0.11-1.02,0.32c-0.22,0.27-0.35,0.57-0.35,0.96
			v6.3v0.09v5.05v0.12v13.8c0,0.41,0.13,0.73,0.35,0.96c0.19,0.24,0.56,0.35,1.02,0.35h3.85c0.17,0,0.3-0.01,0.5-0.02
			c0.1-0.03,0.21-0.13,0.39-0.19c0.14-0.13,0.24-0.27,0.33-0.43c0.06-0.2,0.07-0.39,0.07-0.6v-11.23c0.05-0.49,0.17-0.97,0.38-1.36
			c0.21-0.42,0.48-0.79,0.77-1.12c0.35-0.27,0.7-0.48,1.1-0.65c0.37-0.17,0.8-0.29,1.18-0.29c0.45,0,0.93,0.12,1.33,0.3
			c0.4,0.18,0.78,0.4,1.14,0.72c0.29,0.28,0.55,0.66,0.74,1.06c0.19,0.46,0.26,0.91,0.26,1.39v11.23c0,0.46,0.12,0.79,0.31,0.96
			c0.17,0.17,0.47,0.22,1,0.22h3.89c0.41,0,0.73-0.09,0.93-0.33c0.17-0.21,0.26-0.51,0.26-0.97v-11.1c0-1.29-0.19-2.55-0.56-3.68
			C358.45,482.02,357.93,481.02,357.2,480.15z"/>
		<path class="st0" d="M369.49,471.63c-0.08-0.07-0.21-0.17-0.32-0.23c-0.11-0.07-0.27-0.08-0.35-0.08h-4.15
			c-0.44,0-0.77,0.1-0.94,0.34c-0.21,0.29-0.29,0.57-0.29,0.92v25.37c0,0.46,0.08,0.77,0.29,0.97c0.17,0.25,0.5,0.33,0.94,0.33h3.9
			c0.4,0,0.71-0.09,0.93-0.33c0.29-0.21,0.38-0.51,0.38-0.97v-25.37c0-0.19-0.01-0.37-0.07-0.51
			C369.68,471.93,369.65,471.79,369.49,471.63z"/>
		<path class="st0" d="M393.01,482.52c-0.48-0.77-1.05-1.47-1.65-2.09c-0.67-0.62-1.35-1.18-2.12-1.64
			c-0.78-0.46-1.63-0.82-2.5-1.05c-0.91-0.24-1.82-0.38-2.75-0.38c-1.03,0-2.02,0.15-2.94,0.39c-0.94,0.32-1.79,0.66-2.56,1.15
			c-0.78,0.5-1.53,1.1-2.16,1.74c-0.66,0.73-1.19,1.47-1.67,2.28c-0.39,0.79-0.77,1.71-0.97,2.64c-0.28,0.92-0.37,1.89-0.37,2.9
			c0,1.58,0.28,3.08,0.89,4.42c0.63,1.36,1.42,2.52,2.49,3.51c1.02,1.03,2.24,1.81,3.61,2.37c1.4,0.57,2.84,0.86,4.41,0.86
			c1.4,0,2.71-0.24,3.96-0.77c1.23-0.54,2.33-1.22,3.36-2.15c0.17-0.13,0.29-0.29,0.46-0.44c0.12-0.15,0.18-0.36,0.18-0.57
			c0-0.12-0.03-0.26-0.06-0.37c-0.04-0.11-0.1-0.26-0.26-0.41l-1.77-2.02c-0.2-0.2-0.38-0.35-0.57-0.45
			c-0.12-0.1-0.27-0.14-0.4-0.14c-0.17,0-0.31,0.03-0.41,0.07c-0.15,0.12-0.31,0.18-0.5,0.35c-0.22,0.2-0.43,0.4-0.81,0.58
			c-0.33,0.18-0.71,0.36-1.1,0.5c-0.43,0.14-0.82,0.26-1.24,0.32c-0.44,0.12-0.86,0.15-1.3,0.15c-0.42,0-0.92-0.04-1.41-0.19
			c-0.55-0.14-0.99-0.33-1.48-0.6c-0.4-0.33-0.79-0.7-1.16-1.16c-0.37-0.51-0.59-1.11-0.7-1.85h12.22c0.74,0,1.28-0.04,1.65-0.09
			c0.35-0.12,0.64-0.27,0.79-0.48c0.15-0.23,0.24-0.51,0.24-0.89c0-0.35,0.01-0.86,0.01-1.45c0-0.9-0.1-1.77-0.38-2.63
			C393.85,484.07,393.46,483.27,393.01,482.52z M379.75,485.63c0.18-0.38,0.41-0.76,0.66-1.14c0.34-0.34,0.64-0.66,0.98-0.97
			c0.38-0.31,0.77-0.53,1.18-0.71c0.41-0.17,0.88-0.26,1.29-0.26c0.6,0,1.15,0.07,1.6,0.21c0.48,0.17,0.91,0.39,1.25,0.7
			c0.34,0.24,0.63,0.6,0.96,0.98c0.25,0.37,0.5,0.78,0.78,1.18H379.75z"/>
		<path class="st0" d="M408.67,478.37h-2.8l0.03-5.35c0-0.42-0.12-0.72-0.24-0.96c-0.12-0.26-0.42-0.37-0.85-0.37c0,0-0.07,0-0.15,0
			c-0.04,0-0.06,0.01-0.15,0.03l-3.86,1.36c-0.44,0.15-0.75,0.3-0.98,0.47c-0.23,0.17-0.33,0.45-0.33,0.8l-0.03,4.02h-1.23
			c-0.88,0-1.32,0.44-1.32,1.3v3.26c0,0.92,0.44,1.36,1.32,1.36h1.23l0.03,13.66c0,0.89,0.45,1.31,1.29,1.31h3.84
			c0.45,0,0.79-0.09,1.04-0.33c0.24-0.21,0.38-0.51,0.38-0.97l-0.03-13.66h2.8c0.37,0,0.69-0.09,0.92-0.3
			c0.21-0.24,0.36-0.58,0.36-1.06v-3.26c0-0.43-0.15-0.77-0.36-0.96C409.36,478.49,409.03,478.37,408.67,478.37z"/>
		<path class="st0" d="M418.63,478.08c-0.17-0.13-0.31-0.19-0.45-0.29c-0.15-0.03-0.31-0.05-0.45-0.05h-3.91
			c-0.38,0-0.74,0.11-0.94,0.37c-0.2,0.25-0.28,0.59-0.28,0.94v18.91c0,0.89,0.45,1.31,1.23,1.31h3.91c0.45,0,0.78-0.09,1.06-0.33
			c0.23-0.21,0.35-0.51,0.35-0.97v-18.91c0-0.19-0.07-0.37-0.16-0.54C418.85,478.33,418.78,478.19,418.63,478.08z"/>
		<path class="st0" d="M417.81,469.12h-3.99c-0.38,0-0.74,0.12-0.94,0.31c-0.2,0.21-0.28,0.53-0.28,1.01v3.28
			c0,0.96,0.45,1.45,1.23,1.45h3.99c0.19,0,0.36-0.08,0.52-0.16c0.15-0.12,0.3-0.2,0.45-0.36c0.07-0.17,0.18-0.31,0.23-0.45
			c0.07-0.15,0.11-0.32,0.11-0.48v-3.28c0-0.48-0.12-0.8-0.36-1.01C418.48,469.24,418.18,469.12,417.81,469.12z"/>
		<path class="st0" d="M440.69,495.87l-1.92-2.87c-0.17-0.26-0.33-0.44-0.47-0.48c-0.15-0.1-0.32-0.16-0.52-0.16
			c-0.09,0-0.2,0.02-0.34,0.06c-0.17,0.05-0.29,0.1-0.44,0.24c-0.53,0.32-1.07,0.63-1.65,0.84c-0.54,0.22-1.18,0.36-1.77,0.36
			c-0.75,0-1.38-0.16-1.98-0.4c-0.62-0.32-1.09-0.68-1.56-1.13c-0.42-0.5-0.74-1.08-0.98-1.71c-0.26-0.65-0.34-1.33-0.34-2.1
			c0-0.73,0.08-1.4,0.34-2.09c0.25-0.62,0.56-1.19,0.98-1.72c0.47-0.47,0.94-0.85,1.56-1.17c0.6-0.28,1.23-0.42,1.98-0.42
			c0.59,0,1.23,0.09,1.78,0.3c0.57,0.23,1.1,0.48,1.63,0.82c0.18,0.09,0.34,0.22,0.46,0.26c0.16,0.03,0.29,0.07,0.38,0.07
			c0.47,0,0.86-0.27,1.15-0.84l1.52-2.54c0.16-0.2,0.2-0.42,0.2-0.64c0-0.29-0.05-0.52-0.2-0.71c-0.18-0.21-0.38-0.38-0.59-0.54
			l0.03,0.04c-0.93-0.62-1.92-1.13-2.91-1.44c-1.1-0.33-2.2-0.51-3.44-0.51c-1,0-1.99,0.14-2.93,0.38
			c-0.95,0.27-1.88,0.62-2.65,1.12c-0.82,0.47-1.55,1.03-2.28,1.74c-0.65,0.66-1.21,1.39-1.72,2.23c-0.43,0.83-0.81,1.69-1.09,2.66
			c-0.28,0.96-0.42,1.99-0.42,3.01c0,1.06,0.15,2.07,0.42,3.03c0.28,0.95,0.66,1.8,1.09,2.66c0.51,0.83,1.07,1.57,1.72,2.23
			c0.73,0.7,1.46,1.27,2.28,1.72c0.78,0.51,1.71,0.89,2.65,1.12c0.94,0.29,1.93,0.39,2.93,0.39c1.24,0,2.39-0.2,3.47-0.58
			c1.13-0.38,2.12-0.91,3.06-1.55c0.18-0.13,0.38-0.25,0.56-0.41c0.18-0.17,0.23-0.39,0.23-0.65c0-0.08-0.03-0.14-0.05-0.27
			C440.79,496.06,440.75,495.98,440.69,495.87z"/>
		<path class="st0" d="M474.1,480.15c-0.75-0.86-1.54-1.52-2.59-2.02c-1.04-0.51-2.18-0.75-3.45-0.75c-0.82,0-1.58,0.13-2.21,0.35
			c-0.69,0.2-1.32,0.48-1.79,0.8c-0.51,0.36-0.97,0.74-1.36,1.14c-0.38,0.39-0.67,0.77-0.88,1.13c-0.72-1.05-1.6-1.89-2.69-2.48
			c-1.1-0.6-2.34-0.94-3.83-0.94c-0.87,0-1.65,0.15-2.26,0.38c-0.61,0.31-1.09,0.61-1.5,0.99c-0.41,0.41-0.71,0.82-0.97,1.27
			c-0.27,0.42-0.45,0.82-0.65,1.19l-0.49-2.16c-0.08-0.17-0.11-0.34-0.17-0.52c-0.11-0.15-0.13-0.27-0.29-0.4
			c-0.05-0.13-0.21-0.22-0.35-0.3c-0.15-0.08-0.3-0.09-0.52-0.09h-2.59c-0.12,0-0.27,0.01-0.42,0.02c-0.18,0.04-0.36,0.15-0.5,0.26
			l0.13-0.06c-0.19,0.13-0.34,0.26-0.41,0.42c-0.14,0.16-0.17,0.37-0.17,0.61v18.97c0,0.41,0.13,0.73,0.34,0.96
			c0.23,0.24,0.57,0.35,1.03,0.35h3.84c0.17,0,0.36-0.01,0.46-0.02c0.1-0.03,0.3-0.13,0.45-0.19c0.12-0.13,0.23-0.27,0.3-0.43
			c0.1-0.2,0.11-0.39,0.11-0.6v-11.23c0.02-0.49,0.19-0.97,0.38-1.36c0.2-0.42,0.46-0.79,0.77-1.12c0.33-0.27,0.67-0.48,1.04-0.65
			c0.41-0.17,0.79-0.29,1.23-0.29c0.44,0,0.86,0.12,1.26,0.3c0.35,0.18,0.69,0.4,0.97,0.72c0.28,0.28,0.48,0.66,0.62,1.06
			c0.12,0.46,0.2,0.91,0.2,1.39v11.23c0,0.46,0.06,0.79,0.26,0.96c0.18,0.17,0.56,0.22,1,0.22h3.42h0.18h0.36
			c0.42,0,0.7-0.09,0.87-0.33c0.18-0.21,0.32-0.51,0.32-0.97v-11.1c0-0.5,0.03-0.99,0.21-1.41c0.18-0.42,0.43-0.79,0.74-1.1
			c0.28-0.28,0.6-0.49,0.98-0.67c0.39-0.18,0.81-0.29,1.27-0.29c0.45,0,0.87,0.12,1.28,0.3c0.37,0.18,0.7,0.4,0.99,0.72
			c0.29,0.28,0.48,0.66,0.67,1.06c0.15,0.46,0.19,0.91,0.19,1.39v11.23c0,0.46,0.1,0.79,0.28,0.96c0.17,0.17,0.49,0.22,1.01,0.22
			h3.91c0.39,0,0.72-0.09,0.91-0.33c0.19-0.21,0.25-0.51,0.25-0.97v-11.1c0-1.29-0.18-2.55-0.54-3.68
			C475.32,482.02,474.8,481.02,474.1,480.15z"/>
		<path class="st0" d="M499.05,482.52c-0.49-0.77-1.01-1.47-1.69-2.09c-0.62-0.62-1.37-1.18-2.14-1.64
			c-0.77-0.46-1.56-0.82-2.48-1.05c-0.86-0.24-1.76-0.38-2.7-0.38c-1.05,0-2.04,0.15-2.95,0.39c-0.9,0.32-1.82,0.66-2.62,1.15
			c-0.78,0.5-1.5,1.1-2.12,1.74c-0.64,0.73-1.15,1.47-1.62,2.28c-0.5,0.79-0.82,1.71-1.07,2.64c-0.21,0.92-0.38,1.89-0.38,2.9
			c0,1.58,0.35,3.08,0.94,4.42c0.6,1.36,1.45,2.52,2.5,3.51c1.02,1.03,2.24,1.81,3.63,2.37c1.37,0.57,2.86,0.86,4.4,0.86
			c1.37,0,2.72-0.24,3.92-0.77c1.29-0.54,2.41-1.22,3.41-2.15c0.15-0.13,0.3-0.29,0.4-0.44c0.15-0.15,0.19-0.36,0.19-0.57
			c0-0.12-0.02-0.26-0.03-0.37c-0.04-0.11-0.14-0.26-0.25-0.41l-1.82-2.02c-0.19-0.2-0.36-0.35-0.49-0.45
			c-0.14-0.1-0.31-0.14-0.48-0.14c-0.12,0-0.26,0.03-0.41,0.07c-0.13,0.12-0.27,0.18-0.45,0.35c-0.21,0.2-0.49,0.4-0.82,0.58
			c-0.32,0.18-0.67,0.36-1.08,0.5c-0.41,0.14-0.84,0.26-1.27,0.32c-0.4,0.12-0.82,0.15-1.22,0.15c-0.5,0-0.94-0.04-1.48-0.19
			c-0.49-0.14-0.98-0.33-1.41-0.6c-0.5-0.33-0.89-0.7-1.23-1.16c-0.34-0.51-0.56-1.11-0.66-1.85h12.21c0.71,0,1.26-0.04,1.64-0.09
			c0.38-0.12,0.6-0.27,0.77-0.48c0.18-0.23,0.24-0.51,0.26-0.89c0.02-0.35,0.02-0.86,0.02-1.45c0-0.9-0.09-1.77-0.36-2.63
			C499.83,484.07,499.5,483.27,499.05,482.52z M485.8,485.63c0.18-0.38,0.4-0.76,0.7-1.14c0.27-0.34,0.62-0.66,0.98-0.97
			c0.33-0.31,0.73-0.53,1.14-0.71c0.44-0.17,0.83-0.26,1.26-0.26c0.64,0,1.15,0.07,1.63,0.21c0.45,0.17,0.85,0.39,1.22,0.7
			c0.38,0.24,0.68,0.6,0.95,0.98c0.27,0.37,0.57,0.78,0.77,1.18H485.8z"/>
		<path class="st0" d="M520.35,479.49c-0.54-0.32-0.96-0.62-1.4-0.94c-0.45-0.24-0.86-0.47-1.26-0.64
			c-0.45-0.17-0.93-0.34-1.37-0.39c-0.51-0.11-1.06-0.15-1.68-0.15c-0.59,0-1.08,0.12-1.51,0.36c-0.42,0.2-0.8,0.48-1.18,0.82
			c-0.36,0.36-0.67,0.75-0.98,1.15c-0.33,0.44-0.63,0.82-0.96,1.21c-0.02-0.08-0.08-0.18-0.19-0.37c-0.02-0.19-0.14-0.39-0.19-0.59
			c-0.1-0.23-0.19-0.43-0.22-0.6c-0.09-0.17-0.14-0.26-0.16-0.3c-0.08-0.17-0.18-0.33-0.21-0.51c-0.05-0.15-0.16-0.27-0.2-0.39
			c-0.14-0.13-0.2-0.23-0.35-0.31c-0.12-0.08-0.29-0.09-0.5-0.09h-2.57c-0.31,0-0.59,0.06-0.92,0.26c-0.11,0.11-0.23,0.24-0.29,0.41
			c-0.12,0.17-0.15,0.36-0.15,0.56v18.99c0,0.89,0.44,1.31,1.35,1.31h3.82c0.45,0,0.8-0.09,1.02-0.33c0.19-0.21,0.33-0.51,0.33-0.97
			v-12.3c0.21-0.4,0.46-0.71,0.7-1.01c0.27-0.35,0.46-0.6,0.77-0.82c0.27-0.26,0.58-0.43,0.89-0.53c0.33-0.15,0.71-0.19,1.18-0.19
			c0.67,0,1.23,0.09,1.71,0.35c0.51,0.23,1.01,0.57,1.49,1.03c0.38,0.19,0.75,0.25,1.09,0.17c0.31-0.06,0.6-0.29,0.83-0.62
			l1.54-2.63C521.26,480.59,521.13,479.96,520.35,479.49z"/>
		<path class="st0" d="M539.48,495.87l-1.91-2.87c-0.16-0.26-0.3-0.44-0.49-0.48c-0.17-0.1-0.35-0.16-0.54-0.16
			c-0.05,0-0.2,0.02-0.32,0.06c-0.12,0.05-0.29,0.1-0.46,0.24c-0.5,0.32-1.03,0.63-1.58,0.84c-0.59,0.22-1.19,0.36-1.86,0.36
			c-0.69,0-1.37-0.16-1.95-0.4c-0.59-0.32-1.13-0.68-1.53-1.13c-0.4-0.5-0.77-1.08-0.99-1.71c-0.23-0.65-0.37-1.33-0.37-2.1
			c0-0.73,0.15-1.4,0.37-2.09c0.22-0.62,0.58-1.19,0.99-1.72c0.4-0.47,0.94-0.85,1.53-1.17c0.58-0.28,1.26-0.42,1.95-0.42
			c0.67,0,1.28,0.09,1.88,0.3c0.55,0.23,1.09,0.48,1.56,0.82c0.18,0.09,0.36,0.22,0.53,0.26c0.13,0.03,0.23,0.07,0.35,0.07
			c0.44,0,0.82-0.27,1.16-0.84l1.52-2.54c0.11-0.2,0.19-0.42,0.19-0.64c0-0.29-0.09-0.52-0.22-0.71c-0.13-0.21-0.34-0.38-0.61-0.54
			l0.07,0.04c-0.9-0.62-1.89-1.13-2.96-1.44c-1.02-0.33-2.16-0.51-3.4-0.51c-1.05,0-2.01,0.14-2.97,0.38
			c-0.95,0.27-1.78,0.62-2.62,1.12c-0.83,0.47-1.59,1.03-2.22,1.74c-0.71,0.66-1.3,1.39-1.74,2.23c-0.51,0.83-0.86,1.69-1.12,2.66
			c-0.28,0.96-0.39,1.99-0.39,3.01c0,1.06,0.11,2.07,0.39,3.03c0.25,0.95,0.61,1.8,1.12,2.66c0.44,0.83,1.03,1.57,1.74,2.23
			c0.63,0.7,1.39,1.27,2.22,1.72c0.84,0.51,1.68,0.89,2.62,1.12c0.96,0.29,1.92,0.39,2.97,0.39c1.24,0,2.4-0.2,3.52-0.58
			c1.08-0.38,2.13-0.91,3.04-1.55c0.2-0.13,0.38-0.25,0.53-0.41c0.15-0.17,0.25-0.39,0.25-0.65c0-0.08-0.04-0.14-0.1-0.27
			C539.58,496.06,539.53,495.98,539.48,495.87z"/>
		<path class="st0" d="M560.52,480.15c-0.66-0.86-1.55-1.52-2.54-2.02c-1.02-0.51-2.17-0.75-3.45-0.75c-0.71,0-1.3,0.08-1.82,0.21
			c-0.51,0.17-1.01,0.36-1.42,0.62c-0.4,0.25-0.77,0.5-1.06,0.83c-0.3,0.3-0.57,0.63-0.79,0.96v-7.44c0-0.18-0.03-0.37-0.09-0.57
			c-0.09-0.2-0.19-0.35-0.36-0.41c-0.3-0.19-0.58-0.28-0.83-0.28h-3.85c-0.51,0-0.85,0.11-1.08,0.32c-0.19,0.27-0.3,0.57-0.3,0.96
			v6.3v0.09v5.05v0.12v13.8c0,0.41,0.11,0.73,0.3,0.96c0.23,0.24,0.58,0.35,1.08,0.35h3.85c0.15,0,0.3-0.01,0.44-0.02
			c0.14-0.03,0.25-0.13,0.39-0.19c0.18-0.13,0.28-0.27,0.36-0.43c0.06-0.2,0.09-0.39,0.09-0.6v-11.23c0.04-0.49,0.14-0.97,0.35-1.36
			c0.23-0.42,0.5-0.79,0.79-1.12c0.32-0.27,0.69-0.48,1.08-0.65c0.38-0.17,0.78-0.29,1.16-0.29c0.5,0,0.95,0.12,1.36,0.3
			c0.42,0.18,0.8,0.4,1.13,0.72c0.32,0.28,0.57,0.66,0.76,1.06c0.19,0.46,0.26,0.91,0.26,1.39v11.23c0,0.46,0.13,0.79,0.31,0.96
			c0.2,0.17,0.5,0.22,0.98,0.22h3.91c0.43,0,0.71-0.09,0.89-0.33c0.2-0.21,0.3-0.51,0.3-0.97v-11.1c0-1.29-0.19-2.55-0.56-3.68
			C561.81,482.02,561.26,481.02,560.52,480.15z"/>
		<path class="st0" d="M572.84,493.85c-0.16-0.16-0.33-0.21-0.53-0.21h-4.51c-0.22,0-0.41,0.05-0.57,0.21
			c-0.12,0.12-0.18,0.3-0.18,0.56v4.08c0,0.54,0.25,0.77,0.75,0.77h4.51c0.27,0,0.46-0.05,0.59-0.21c0.11-0.17,0.2-0.36,0.2-0.56
			v-4.08C573.09,494.15,573,493.97,572.84,493.85z"/>
		<path class="st0" d="M594.68,495.87l-1.92-2.87c-0.18-0.26-0.33-0.44-0.48-0.48c-0.14-0.1-0.32-0.16-0.51-0.16
			c-0.11,0-0.2,0.02-0.35,0.06c-0.15,0.05-0.27,0.1-0.42,0.24c-0.54,0.32-1.09,0.63-1.64,0.84c-0.58,0.22-1.19,0.36-1.8,0.36
			c-0.74,0-1.36-0.16-1.98-0.4c-0.61-0.32-1.1-0.68-1.53-1.13c-0.44-0.5-0.75-1.08-1.01-1.71c-0.24-0.65-0.35-1.33-0.35-2.1
			c0-0.73,0.11-1.4,0.35-2.09c0.27-0.62,0.57-1.19,1.01-1.72c0.43-0.47,0.92-0.85,1.53-1.17c0.61-0.28,1.24-0.42,1.98-0.42
			c0.61,0,1.23,0.09,1.82,0.3c0.55,0.23,1.09,0.48,1.63,0.82c0.17,0.09,0.32,0.22,0.46,0.26c0.15,0.03,0.29,0.07,0.36,0.07
			c0.47,0,0.86-0.27,1.15-0.84l1.53-2.54c0.15-0.2,0.18-0.42,0.18-0.64c0-0.29-0.03-0.52-0.19-0.71c-0.16-0.21-0.36-0.38-0.6-0.54
			l0.02,0.04c-0.89-0.62-1.89-1.13-2.91-1.44c-1.07-0.33-2.21-0.51-3.43-0.51c-1.01,0-2,0.14-2.95,0.38
			c-0.94,0.27-1.84,0.62-2.64,1.12c-0.8,0.47-1.56,1.03-2.26,1.74c-0.65,0.66-1.23,1.39-1.74,2.23c-0.44,0.83-0.81,1.69-1.11,2.66
			c-0.26,0.96-0.39,1.99-0.39,3.01c0,1.06,0.13,2.07,0.39,3.03c0.3,0.95,0.66,1.8,1.11,2.66c0.5,0.83,1.09,1.57,1.74,2.23
			c0.7,0.7,1.46,1.27,2.26,1.72c0.8,0.51,1.71,0.89,2.64,1.12c0.94,0.29,1.93,0.39,2.95,0.39c1.22,0,2.41-0.2,3.49-0.58
			c1.12-0.38,2.13-0.91,3.05-1.55c0.19-0.13,0.38-0.25,0.56-0.41c0.17-0.17,0.22-0.39,0.22-0.65c0-0.08-0.02-0.14-0.04-0.27
			C594.79,496.06,594.71,495.98,594.68,495.87z"/>
		<path class="st0" d="M615.8,480.61c-0.99-1.01-2.15-1.8-3.51-2.39c-1.36-0.56-2.82-0.84-4.36-0.84c-1.03,0-2.03,0.14-2.98,0.38
			c-0.96,0.27-1.85,0.62-2.69,1.12c-0.84,0.47-1.6,1.03-2.24,1.74c-0.7,0.66-1.28,1.39-1.72,2.23c-0.52,0.83-0.89,1.69-1.14,2.66
			c-0.25,0.96-0.39,1.99-0.39,3.01c0,1.06,0.14,2.07,0.39,3.03c0.25,0.95,0.62,1.8,1.14,2.66c0.44,0.83,1.03,1.57,1.72,2.23
			c0.64,0.7,1.4,1.27,2.24,1.72c0.83,0.51,1.73,0.89,2.69,1.12c0.95,0.29,1.95,0.39,2.98,0.39c1.04,0,2.03-0.1,2.97-0.39
			c0.94-0.23,1.83-0.61,2.65-1.12c0.85-0.45,1.59-1.03,2.25-1.72c0.7-0.66,1.26-1.4,1.73-2.23c0.49-0.86,0.87-1.71,1.13-2.66
			c0.25-0.96,0.4-1.98,0.4-3.03c0-1.56-0.3-3.06-0.88-4.39C617.61,482.75,616.81,481.59,615.8,480.61z M612.34,490.6
			c-0.21,0.64-0.55,1.22-0.96,1.71c-0.4,0.45-0.93,0.82-1.51,1.13c-0.6,0.25-1.23,0.4-1.97,0.4c-0.76,0-1.47-0.16-2.08-0.4
			c-0.57-0.32-1.11-0.68-1.53-1.13c-0.41-0.5-0.77-1.08-0.97-1.71c-0.23-0.65-0.37-1.33-0.37-2.1c0-0.73,0.14-1.4,0.37-2.09
			c0.2-0.62,0.56-1.19,0.97-1.72c0.42-0.47,0.96-0.85,1.53-1.17c0.61-0.28,1.32-0.42,2.08-0.42c0.75,0,1.37,0.13,1.97,0.42
			c0.59,0.32,1.11,0.7,1.51,1.17c0.41,0.53,0.75,1.1,0.96,1.72c0.21,0.69,0.34,1.37,0.34,2.09
			C612.68,489.27,612.55,489.95,612.34,490.6z"/>
		<path class="st0" d="M652.37,480.15c-0.7-0.86-1.58-1.52-2.59-2.02c-1-0.51-2.14-0.75-3.45-0.75c-0.8,0-1.56,0.13-2.22,0.35
			c-0.68,0.2-1.27,0.48-1.81,0.8c-0.52,0.36-0.96,0.74-1.34,1.14c-0.37,0.39-0.65,0.77-0.86,1.13c-0.71-1.05-1.62-1.89-2.69-2.48
			c-1.09-0.6-2.38-0.94-3.79-0.94c-0.91,0-1.68,0.15-2.28,0.38c-0.6,0.31-1.12,0.61-1.52,0.99c-0.4,0.41-0.74,0.82-0.96,1.27
			c-0.24,0.42-0.45,0.82-0.61,1.19l-0.54-2.16c-0.05-0.17-0.12-0.34-0.18-0.52c-0.04-0.15-0.14-0.27-0.23-0.4
			c-0.12-0.13-0.21-0.22-0.37-0.3c-0.16-0.08-0.34-0.09-0.54-0.09h-2.55c-0.15,0-0.33,0.01-0.48,0.02
			c-0.12,0.03-0.24,0.11-0.36,0.19c-0.16,0.13-0.29,0.26-0.39,0.42c-0.09,0.16-0.13,0.37-0.13,0.61v18.97c0,0.41,0.08,0.73,0.3,0.96
			c0.22,0.24,0.56,0.35,1.07,0.35h3.84c0.18,0,0.31-0.01,0.43-0.02c0.16-0.03,0.3-0.13,0.43-0.19c0.15-0.13,0.27-0.27,0.34-0.43
			c0.06-0.2,0.11-0.39,0.11-0.6v-11.23c0.05-0.49,0.14-0.97,0.37-1.36c0.2-0.42,0.47-0.79,0.78-1.12c0.28-0.27,0.66-0.48,1.04-0.65
			c0.38-0.17,0.77-0.29,1.19-0.29c0.5,0,0.91,0.12,1.3,0.3c0.38,0.18,0.7,0.4,0.97,0.72c0.25,0.28,0.46,0.66,0.59,1.06
			c0.15,0.46,0.22,0.91,0.22,1.39v11.23c0,0.46,0.1,0.79,0.28,0.96c0.19,0.17,0.5,0.22,1,0.22h3.43h0.13h0.34
			c0.43,0,0.72-0.09,0.91-0.33c0.18-0.21,0.27-0.51,0.27-0.97v-11.1c0-0.5,0.09-0.99,0.27-1.41c0.18-0.42,0.41-0.79,0.7-1.1
			c0.29-0.28,0.64-0.49,1.03-0.67c0.38-0.18,0.78-0.29,1.19-0.29c0.5,0,0.93,0.12,1.32,0.3c0.39,0.18,0.73,0.4,0.98,0.72
			c0.28,0.28,0.51,0.66,0.65,1.06c0.14,0.46,0.23,0.91,0.23,1.39v11.23c0,0.46,0.08,0.79,0.26,0.96c0.18,0.17,0.53,0.22,0.98,0.22
			h3.96c0.4,0,0.69-0.09,0.86-0.33c0.19-0.21,0.3-0.51,0.3-0.97v-11.1c0-1.29-0.18-2.55-0.56-3.68
			C653.62,482.02,653.07,481.02,652.37,480.15z"/>
		<path class="st0" d="M622.89,478.01c0.03-0.02,0.06-0.04,0.09-0.06c0,0,0,0,0,0L622.89,478.01z"/>
	</g>
	<g>
		<g>
			<g>
				<path d="M421.24,277.67c-1.41,0-2.64-0.59-3.18-0.59c-0.58,0-13.95,0-13.95,0s0.77,1.8,2.15,1.8c1.34,0,6,1.27,6,1.27
					s2.94,1.59,8.98,1.59c6.07,0,9-1.59,9-1.59s4.63-1.27,6-1.27c1.38,0,2.15-1.8,2.15-1.8s-13.4,0-13.93,0
					C423.88,277.08,422.69,277.67,421.24,277.67z"/>
				<path d="M406.35,237.06c1.33,1.3,2.99,2.47,5.3,3.16c0.39,0.12,1.64,1.07,2.42,2.34c1.62,0,1.22-2.39,1.22-2.39
					c0-7.23-9.78-13.93-19.91-13.93c-8.7,0-11.23,4.26-11.33,4.39c0,0-0.23,0.92,0.5,0.99c0.04,0,2.99-2.35,10.82-2.35
					c3.66,0,5.64,1.66,7.42,3.73c-1.32-0.46-2.94-0.72-4.69-0.72c-4.6,0-11.42,4.91-11.42,5.47c0,0.54,2.77-0.78,5.16,0.29
					c2.24,1,4.02,2.53,6.25,2.54C402.3,240.58,405.73,239.05,406.35,237.06z"/>
				<path d="M552.15,154.64l-7.83-4.6c-0.55-0.32-4.83-2.78-12.7-6.01c3.76-9.16,4.58-14.72,4.22-18.4
					c4.32-3.78,6.73-6.51,7.97-9.89c1.5-4.03,0.5-8.6-2.56-11.63c-1.98-1.98-5.47-4.35-10.93-4.35c-16.09,0-40.9,24.68-41.96,25.73
					c-1.36,1.36-2.85,2.95-4.45,4.73c-0.09,0.09-0.16,0.18-0.23,0.27c-19.67-3.58-40.74-5.4-62.72-5.4
					c-21.68,0-42.5,1.77-61.92,5.25c-0.04-0.04-0.08-0.08-0.11-0.12c-1.6-1.78-3.11-3.38-4.46-4.73
					c-1.05-1.05-25.87-25.73-41.97-25.73c-5.44,0-8.94,2.36-10.93,4.35c-3.04,3.04-4.04,7.6-2.56,11.64
					c1.24,3.38,3.66,6.11,7.97,9.89c-0.35,3.64,0.45,9.12,4.1,18.08c-8.38,3.39-12.92,6-13.5,6.33l-7.85,4.6
					c-1.69,0.99-2.73,2.8-2.73,4.77v8.55c0,83.84,33.7,134.53,61.96,162.28c31.38,30.8,63.48,41.13,64.84,41.55l5.48,1.71
					c0.55,0.17,1.1,0.27,1.66,0.27c0.56,0,1.13-0.1,1.65-0.27l5.49-1.71c1.36-0.43,33.47-10.77,64.83-41.56
					c28.27-27.75,61.97-78.44,61.97-162.28v-8.55C554.88,157.45,553.85,155.64,552.15,154.64z M486.11,144.67
					c2.05-2.55,4.11-4.95,6-7.07c1.47-1.62,2.85-3.08,4.07-4.31c7.66-7.67,25.63-22.42,34.09-22.48c1.3-0.01,2.4,0.33,3.18,1.1
					c-0.64,1.76-3.78,4.55-8.25,8.25c-0.08-0.02-0.19-0.04-0.28-0.06c-0.35-0.05-0.7-0.09-1.03-0.09c-3.77,0-8.96,2.16-21.18,17.83
					c-1.71,2.17-3.52,4.59-5.41,7.18c-0.12,0.18-0.26,0.37-0.41,0.56c-0.31,0.46-0.65,0.91-1,1.38c-0.48,0.68-0.99,1.38-1.48,2.1
					c-0.62,0.89-1.28,1.85-1.9,2.86c-0.36,0.58-0.68,1.17-1.03,1.76c-0.81,1.41-1.57,2.85-2.3,4.32
					c-15.58,30.38-10.12,68.49-13.6,68.49c-0.07,0-0.11-0.03-0.16-0.04c-3.35-1.08-0.99-36.83-5.81-54.05
					c0.72-5.05,5.64-13.2,11.4-21.08C482.66,149.05,484.38,146.82,486.11,144.67z M503.75,165.84c0.06,0.06,0.22,0.01,0.42-0.11
					c1.14-0.67,3.99-3.66,4.5-3.66c0.04,0,0.08,0.04,0.16,0.12c0.79,1,2.88,8.47-0.93,12.29c-4.11,4.11-12.54,11.78-12.33,12.03
					c0.05,0.07,0.29-0.07,0.62-0.31c0.68-0.51,1.72-1.42,1.84-1.31c0.02,0.02,0.04,0.07,0.09,0.16c0.21,0.6,0.41,3.11-3.11,12.38
					c-3.94,10.35-5.69,17.06-10.91,19.15c-0.11,0.05-0.2,0.09-0.31,0.13c-1.07,0-1.05-32.08,9.92-55.4
					c1.02-2.18,2.15-4.28,3.37-6.27c0.05-0.07,0.1-0.14,0.13-0.2c0.56-0.89,1.12-1.75,1.72-2.59c0.93-1.35,1.85-2.62,2.73-3.83
					c0.05-0.05,0.09-0.1,0.12-0.15c1.84-2.54,3.55-4.8,5.12-6.81c0.05-0.07,0.1-0.15,0.17-0.22c10.3-13.18,14.87-15.7,16.83-15.7
					c0.03,0,0.05,0.02,0.08,0.02c0.62,0.07,0.92,0.79,0.9,2.03c-0.07,3.15-2.12,9.64-5.71,17.35c-0.06,0.11-0.11,0.22-0.16,0.34
					c-1.15,2.42-2.53,4.74-3.99,6.9c-1.59,2.34-3.29,4.47-4.86,6.33C506.52,162.81,503.53,165.6,503.75,165.84z M464.74,244.28
					c-3.71-9.13,0.18-26.54-6.41-30.87c-8.08-5.3-34.24,10.98-37.09,10.98c-2.81,0-28.99-16.29-37.07-10.98
					c-6.58,4.33-2.71,21.74-6.41,30.87c-4.25,10.45-11.51,15.98-11.51,17.22c0,1.23,16.4,13.8,13.93,16.27
					c-2.47,2.46-28.93-18.57-28.93-19.21c0-0.63,9.79-5.87,14.33-12c2.38-3.24,3.77-8.65,4.72-15.29
					c1.36-9.57,1.82-21.69,2.99-33.45c0,0,0.34-5.62,3.23-12.04c2.03-4.49,5.3-9.37,10.57-12.99c12.99-8.07,26.34-15.05,26.34-15.05
					s4.48-1.96,7.81-5.47c3.31,3.51,7.84,5.47,7.84,5.47s13.33,6.99,26.31,15.05c5.65,3.87,9.01,9.2,10.99,13.94
					c2.53,6.01,2.85,11.09,2.85,11.09c1.12,11.68,1.59,23.69,2.94,33.22c0.93,6.75,2.33,12.26,4.77,15.53
					c4.5,6.14,14.32,11.37,14.32,12c0,0.64-26.48,21.67-28.94,19.21c-2.48-2.47,13.94-15.04,13.94-16.27
					C476.24,260.26,469.01,254.73,464.74,244.28z M460.23,250.89c0,33.18-32.59,48.54-32.59,48.54s-3,1.31-6.4,1.31
					c-3.39,0-6.4-1.31-6.4-1.31s-32.61-15.37-32.61-48.54c0-3.82,9.3-6.29,9.3-6.29s-9.3-4.78-9.3-14.49c0-22.82,39-1.45,39-1.45
					s38.99-21.37,38.99,1.45c0,9.71-9.25,14.49-9.25,14.49S460.23,247.07,460.23,250.89z M421.24,312.45c0,0-6.64-0.43-10.95,5
					c-19.66-16.66-21.36-29.22-21.34-33.19c0-0.88,0.09-1.34,0.09-1.34s15.83,24.55,23.18,25.51c0.14,0.02,0.3,0.04,0.43,0.04
					c7.12,0,8.59,0.03,8.59,0.03s1.47-0.03,8.61-0.03c7.12,0,23.59-25.55,23.59-25.55s0.08,0.46,0.08,1.34
					c0.04,3.97-1.67,16.53-21.33,33.19C427.88,312.03,421.24,312.45,421.24,312.45z M431.89,326.99c0,6.01-4.8,10.86-10.79,10.95
					c-0.05,0-0.11,0.01-0.15,0.01c-6.04,0-10.95-4.91-10.95-10.96c0-6.04,4.92-10.95,10.95-10.95c0.04,0,0.1,0.01,0.15,0.01
					C427.09,316.13,431.89,320.99,431.89,326.99z M334.91,174.49c-4.1-4.1-1.36-12.41-0.77-12.41c0.58,0,4.48,4.18,4.91,3.76
					c0.23-0.23-2.77-3.03-6.38-7.32c-1.57-1.86-3.25-4-4.84-6.33c-1.47-2.16-2.86-4.48-4-6.9c-0.05-0.12-0.11-0.23-0.16-0.34
					c-3.6-7.72-5.65-14.21-5.72-17.35c-0.02-1.31,0.29-2.05,0.99-2.05c1.72,0,5.47,1.96,13.37,11.41c1.08,1.29,2.23,2.71,3.46,4.3
					c1.61,2.07,3.37,4.4,5.28,7.03c0.92,1.26,1.87,2.58,2.85,3.98c0.19,0.27,0.37,0.56,0.56,0.84c0.39,0.58,0.78,1.15,1.15,1.75
					c1.27,2.05,2.44,4.22,3.5,6.47c10.98,23.31,11,55.4,9.92,55.4c-5.47-1.94-7.21-8.73-11.21-19.28
					c-4.01-10.56-3.2-12.36-3.03-12.54c0.18-0.17,2.28,1.86,2.47,1.62C347.46,186.27,339.02,178.6,334.91,174.49z M359.06,234.39
					c0-6.32-1.53-10.33-2.29-11.95c0.26-0.03,0.51-0.06,0.8-0.06c1.19,0,2.16,0.3,2.96,0.82c2.05,1.34,2.96,4.21,3.25,7.75
					c0.08,0.95,0.11,1.94,0.11,2.97c0,6.37-1.17,11.54-6.32,11.54c-0.23,0-0.46-0.01-0.69-0.05
					C357.71,243.84,359.06,240.34,359.06,234.39z M355.31,245.02c-3.23-1.34-4.07-5.8-4.07-11.1c0-5.23,0.88-9.63,3.98-11.05
					c0.59,1.2,2.27,5.12,2.27,11.52C357.5,240.56,355.95,243.93,355.31,245.02z M482.25,234.39c0,5.94,1.36,9.45,2.17,11.01
					c-0.22,0.03-0.45,0.05-0.68,0.05c-5.14,0-6.32-5.16-6.32-11.54c0-0.74,0.02-1.48,0.05-2.19c0.28-4.71,1.52-8.41,4.87-9.19
					c0.43-0.1,0.88-0.16,1.4-0.16c0.29,0,0.55,0.03,0.82,0.06C483.78,224.06,482.25,228.07,482.25,234.39z M486.1,222.87
					c3.08,1.42,3.96,5.82,3.96,11.05c0,5.3-0.81,9.76-4.07,11.1c-0.63-1.09-2.2-4.46-2.2-10.63
					C483.8,227.99,485.5,224.07,486.1,222.87z M421.06,138.73c23.07,0,42.66,2.05,58.84,4.91c-1.16,1.48-2.3,2.96-3.35,4.41
					c-0.59,0.8-1.15,1.58-1.7,2.36c-15.03-2.48-32.97-4.21-53.9-4.21c-20.53,0-38.22,1.66-53.08,4.07
					c-0.51-0.73-1.04-1.47-1.59-2.22c-1.09-1.49-2.26-3-3.44-4.52C378.88,140.73,398.28,138.73,421.06,138.73z M309.38,111.92
					c5.8-5.8,28.4,12.51,37.27,21.38c1.22,1.23,2.6,2.69,4.06,4.31c1.9,2.12,3.95,4.52,6,7.07c1.73,2.14,3.46,4.38,5.12,6.65
					c5.77,7.88,10.68,16.03,11.41,21.08c-4.9,17.49-2.39,54.09-5.97,54.09c-3.5,0,1.97-38.1-13.63-68.49
					c-1.02-2.09-2.11-4.13-3.32-6.08c-0.14-0.22-0.27-0.42-0.4-0.63c-0.49-0.78-0.99-1.53-1.48-2.23c-1-1.42-1.97-2.76-2.9-4.04
					c-1.89-2.59-3.7-5.01-5.4-7.18c-0.79-1.01-1.55-1.97-2.28-2.87c-10.61-13.07-15.37-14.96-18.9-14.96
					c-0.45,0-0.89,0.06-1.32,0.15C313.16,116.47,310.02,113.68,309.38,111.92z M482.73,320.75c-28.88,28.35-57.81,37.7-59.03,38.08
					c-0.84,0.28-1.74,0.4-2.64,0.4c-0.89,0-1.78-0.12-2.62-0.4c-1.23-0.38-30.14-9.71-59.04-38.08
					c-26.43-25.95-57.93-73.51-57.93-152.79c0-2.57,1.4-4.92,3.76-6.3c0.6-0.35,6.34-3.63,17.21-7.6c0.26,0.41,0.53,0.82,0.81,1.23
					c1.14,1.68,2.4,3.37,3.8,5.11c-11.71,4.14-17.59,7.56-17.59,7.56c0,49.68,12.44,86.66,29,113.92
					c28.59,5.62,46.83,31.4,46.83,31.4s-11.93-22.86-28.35-33.1c0,0,5.62-1.74,17.61,0c7.67,2.15,8.24,8.45,8.8,13.82
					c0.54,5.37,4.58,13.43,13.1,21.52c5.61,5.34,9.07,6.3,10.63,6.58l-0.14,0.41l0.01,0.01c-0.48,1.46-0.71,2.97-0.71,4.47
					c0,2.31,0.54,4.49,1.51,6.45c2.39,4.88,7.4,8.25,13.17,8.25c5.77,0,10.76-3.36,13.15-8.23c0.97-1.96,1.53-4.14,1.53-6.47
					c0-1.69-0.29-3.31-0.83-4.83c1.34-0.17,4.91-0.8,11.05-6.63c8.52-8.09,12.54-16.15,13.1-21.52c0.57-5.37,1.1-11.67,8.8-13.82
					c11.98-1.74,17.59,0,17.59,0c-16.42,10.24-28.35,33.1-28.35,33.1s18.04-25.47,46.35-31.31c16.6-27.26,29.08-64.26,29.08-114.01
					c0,0-5.65-3.29-16.87-7.31c1.47-1.83,2.81-3.59,4-5.36c0.23-0.34,0.45-0.69,0.67-1.03c10.51,3.88,16.08,7.05,16.66,7.4
					c2.36,1.38,3.77,3.73,3.77,6.3C540.65,247.24,509.15,294.81,482.73,320.75z"/>
				<path class="st0" d="M367.87,150.28c14.86-2.41,32.55-4.07,53.08-4.07c20.93,0,38.87,1.73,53.9,4.21
					c0.55-0.77,1.12-1.56,1.7-2.36c1.06-1.46,2.2-2.93,3.35-4.41c-16.17-2.86-35.77-4.91-58.84-4.91c-22.78,0-42.18,1.99-58.23,4.8
					c1.18,1.51,2.35,3.03,3.44,4.52C366.83,148.81,367.36,149.54,367.87,150.28z"/>
				<path class="st0" d="M536.88,161.66c-0.59-0.35-6.15-3.52-16.66-7.4c-0.22,0.34-0.44,0.69-0.67,1.03c-1.2,1.76-2.53,3.53-4,5.36
					c11.22,4.02,16.87,7.31,16.87,7.31c0,49.75-12.48,86.76-29.08,114.01c-28.31,5.83-46.35,31.31-46.35,31.31
					s11.93-22.86,28.35-33.1c0,0-5.61-1.74-17.59,0c-7.7,2.15-8.23,8.45-8.8,13.82c-0.56,5.37-4.58,13.43-13.1,21.52
					c-6.13,5.82-9.71,6.45-11.05,6.63c0.54,1.52,0.83,3.14,0.83,4.83c0,2.32-0.56,4.51-1.53,6.47c-2.39,4.87-7.38,8.23-13.15,8.23
					c-5.78,0-10.78-3.37-13.17-8.25c-0.96-1.95-1.51-4.13-1.51-6.45c0-1.5,0.23-3.01,0.71-4.47l-0.01-0.01l0.14-0.41
					c-1.56-0.28-5.02-1.24-10.63-6.58c-8.52-8.09-12.56-16.15-13.1-21.52c-0.57-5.37-1.13-11.67-8.8-13.82
					c-11.98-1.74-17.61,0-17.61,0c16.42,10.24,28.35,33.1,28.35,33.1s-18.24-25.78-46.83-31.4c-16.56-27.26-29-64.24-29-113.92
					c0,0,5.88-3.42,17.59-7.56c-1.4-1.74-2.66-3.42-3.8-5.11c-0.28-0.41-0.55-0.82-0.81-1.23c-10.87,3.97-16.62,7.25-17.21,7.6
					c-2.36,1.38-3.76,3.73-3.76,6.3c0,79.28,31.5,126.84,57.93,152.79c28.9,28.37,57.81,37.7,59.04,38.08
					c0.84,0.28,1.72,0.4,2.62,0.4c0.9,0,1.8-0.12,2.64-0.4c1.22-0.39,30.15-9.73,59.03-38.08c26.42-25.95,57.92-73.51,57.92-152.79
					C540.65,165.39,539.25,163.04,536.88,161.66z"/>
				<path class="st1" d="M421.1,316.04c-0.05,0-0.11-0.01-0.15-0.01c-6.04,0-10.95,4.91-10.95,10.95c0,6.05,4.92,10.96,10.95,10.96
					c0.04,0,0.1-0.01,0.15-0.01c5.99-0.09,10.79-4.95,10.79-10.95C431.89,320.99,427.09,316.13,421.1,316.04z"/>
				<path class="st2" d="M462.31,277.78c2.46,2.46,28.94-18.57,28.94-19.21c0-0.63-9.82-5.87-14.32-12
					c-2.43-3.27-3.83-8.78-4.77-15.53c-1.35-9.53-1.81-21.54-2.94-33.22c0,0-0.32-5.09-2.85-11.09
					c-1.99-4.74-5.34-10.06-10.99-13.94c-12.98-8.07-26.31-15.05-26.31-15.05s-4.52-1.96-7.84-5.47c-3.33,3.51-7.81,5.47-7.81,5.47
					s-13.35,6.99-26.34,15.05c-5.28,3.62-8.54,8.5-10.57,12.99c-2.89,6.42-3.23,12.04-3.23,12.04c-1.17,11.77-1.63,23.88-2.99,33.45
					c-0.95,6.64-2.35,12.06-4.72,15.29c-4.54,6.14-14.33,11.37-14.33,12c0,0.64,26.46,21.67,28.93,19.21
					c2.47-2.47-13.93-15.04-13.93-16.27c0-1.25,7.26-6.78,11.51-17.22c3.7-9.13-0.17-26.54,6.41-30.87
					c8.08-5.3,34.26,10.98,37.07,10.98c2.85,0,29.01-16.29,37.09-10.98c6.59,4.33,2.7,21.74,6.41,30.87
					c4.27,10.45,11.5,15.98,11.5,17.22C476.24,262.74,459.83,275.31,462.31,277.78z"/>
				<path class="st0" d="M460.23,230.11c0-22.82-38.99-1.45-38.99-1.45s-39-21.37-39,1.45c0,9.71,9.3,14.49,9.3,14.49
					s-9.3,2.47-9.3,6.29c0,33.18,32.61,48.54,32.61,48.54s3.01,1.31,6.4,1.31c3.4,0,6.4-1.31,6.4-1.31s32.59-15.37,32.59-48.54
					c0-3.82-9.25-6.29-9.25-6.29S460.23,239.82,460.23,230.11z M398.13,240.58c-2.24-0.01-4.02-1.54-6.25-2.54
					c-2.39-1.07-5.16,0.25-5.16-0.29c0-0.55,6.82-5.47,11.42-5.47c1.74,0,3.36,0.26,4.69,0.72c-1.78-2.07-3.76-3.73-7.42-3.73
					c-7.83,0-10.78,2.35-10.82,2.35c-0.73-0.07-0.5-0.99-0.5-0.99c0.09-0.13,2.62-4.39,11.33-4.39c10.12,0,19.91,6.7,19.91,13.93
					c0,0,0.4,2.39-1.22,2.39c-0.77-1.27-2.03-2.22-2.42-2.34c-2.32-0.7-3.98-1.86-5.3-3.16
					C405.73,239.05,402.3,240.58,398.13,240.58z M436.24,278.89c-1.38,0-6,1.27-6,1.27s-2.94,1.59-9,1.59
					c-6.04,0-8.98-1.59-8.98-1.59s-4.66-1.27-6-1.27c-1.38,0-2.15-1.8-2.15-1.8s13.36,0,13.95,0c0.55,0,1.77,0.59,3.18,0.59
					c1.45,0,2.64-0.59,3.22-0.59c0.53,0,13.93,0,13.93,0S437.62,278.89,436.24,278.89z M451.42,238.04c-2.23,1-4.06,2.53-6.26,2.54
					c-4.27,0-7.75-1.61-8.22-3.65c-1.68,1.62-3.71,3.04-6.85,3.7c0,0,0,16.7,0,16.72c0,0.04,7.56,2.09,3.63,9.04
					c-2.24,3.67-9.22,4.4-11.7,4.89v2.6h-1.51v-2.54c-2.7-0.52-11.32-2.79-12.56-5.07c-1.47-2.66,2.18-5.6,2.18-5.6
					c0.8,6.41,11.17,6.77,11.17,6.77s12.44-1.39,9.61-6.83c-0.43-0.82-1.78-1.54-2.68-1.77h-1.38l0.02-18.52
					c0-7.23,10.91-14.09,21.03-14.09c8.7,0,11.24,4.26,11.32,4.39c0,0,0.22,0.92-0.51,0.99c-0.04,0-2.97-2.35-10.81-2.35
					c-3.71,0-5.72,1.69-7.57,3.78c1.37-0.47,3.01-0.77,4.83-0.77c4.59,0,11.41,4.91,11.41,5.47
					C456.57,238.29,453.81,236.97,451.42,238.04z"/>
				<path class="st0" d="M317.63,120.17c0.43-0.09,0.87-0.15,1.32-0.15c3.53,0,8.29,1.89,18.9,14.96c0.73,0.9,1.49,1.86,2.28,2.87
					c1.7,2.17,3.51,4.59,5.4,7.18c0.93,1.28,1.9,2.62,2.9,4.04c0.49,0.7,0.99,1.45,1.48,2.23c0.13,0.21,0.27,0.42,0.4,0.63
					c1.21,1.95,2.3,3.99,3.32,6.08c15.6,30.38,10.12,68.49,13.63,68.49c3.58,0,1.07-36.6,5.97-54.09
					c-0.73-5.05-5.65-13.2-11.41-21.08c-1.66-2.27-3.39-4.5-5.12-6.65c-2.05-2.55-4.1-4.95-6-7.07c-1.46-1.62-2.83-3.08-4.06-4.31
					c-8.87-8.86-31.47-27.17-37.27-21.38C310.02,113.68,313.16,116.47,317.63,120.17z"/>
				<path class="st0" d="M344.79,184.89c-0.16,0.18-0.98,1.97,3.03,12.54c4,10.55,5.74,17.34,11.21,19.28
					c1.09,0,1.06-32.08-9.92-55.4c-1.06-2.25-2.23-4.42-3.5-6.47c-0.37-0.6-0.76-1.17-1.15-1.75c-0.19-0.28-0.37-0.57-0.56-0.84
					c-0.99-1.4-1.93-2.73-2.85-3.98c-1.91-2.63-3.67-4.96-5.28-7.03c-1.23-1.58-2.38-3.01-3.46-4.3
					c-7.89-9.45-11.65-11.41-13.37-11.41c-0.7,0-1.01,0.74-0.99,2.05c0.06,3.15,2.12,9.63,5.72,17.35c0.05,0.11,0.1,0.22,0.16,0.34
					c1.14,2.42,2.53,4.74,4,6.9c1.59,2.34,3.27,4.47,4.84,6.33c3.61,4.28,6.6,7.08,6.38,7.32c-0.43,0.42-4.33-3.76-4.91-3.76
					c-0.59,0-3.33,8.31,0.77,12.41c4.11,4.11,12.55,11.78,12.34,12.03C347.07,186.76,344.97,184.73,344.79,184.89z"/>
				<path class="st1" d="M482.34,222.54c-3.36,0.78-4.59,4.48-4.87,9.19c-0.04,0.71-0.05,1.44-0.05,2.19
					c0,6.37,1.19,11.54,6.32,11.54c0.23,0,0.45-0.01,0.68-0.05c-0.81-1.57-2.17-5.07-2.17-11.01c0-6.32,1.54-10.33,2.31-11.95
					c-0.27-0.03-0.53-0.06-0.82-0.06C483.22,222.38,482.77,222.44,482.34,222.54z"/>
				<path class="st1" d="M490.06,233.92c0-5.23-0.88-9.63-3.96-11.05c-0.6,1.2-2.3,5.12-2.3,11.52c0,6.17,1.57,9.53,2.2,10.63
					C489.25,243.68,490.06,239.22,490.06,233.92z"/>
				<path class="st1" d="M363.89,233.92c0-1.02-0.03-2.01-0.11-2.97c-0.29-3.54-1.2-6.41-3.25-7.75c-0.8-0.52-1.78-0.82-2.96-0.82
					c-0.29,0-0.54,0.03-0.8,0.06c0.76,1.62,2.29,5.62,2.29,11.95c0,5.94-1.35,9.45-2.18,11.01c0.23,0.03,0.46,0.05,0.69,0.05
					C362.72,245.46,363.89,240.3,363.89,233.92z"/>
				<path class="st1" d="M351.25,233.92c0,5.3,0.83,9.76,4.07,11.1c0.64-1.09,2.19-4.46,2.19-10.63c0-6.4-1.69-10.33-2.27-11.52
					C352.13,224.29,351.25,228.69,351.25,233.92z"/>
				<path class="st0" d="M453.52,284.26c-0.01-0.88-0.08-1.34-0.08-1.34s-16.46,25.55-23.59,25.55c-7.15,0-8.61,0.03-8.61,0.03
					s-1.47-0.03-8.59-0.03c-0.13,0-0.29-0.02-0.43-0.04c-7.35-0.96-23.18-25.51-23.18-25.51s-0.09,0.46-0.09,1.34
					c-0.02,3.97,1.68,16.53,21.34,33.19c4.31-5.43,10.95-5,10.95-5s6.64-0.43,10.95,5C451.85,300.79,453.56,288.23,453.52,284.26z"
					/>
				<path class="st0" d="M475.4,226.45c0.05,0.01,0.09,0.04,0.16,0.04c3.49,0-1.97-38.1,13.6-68.49c0.73-1.47,1.49-2.92,2.3-4.32
					c0.35-0.59,0.67-1.18,1.03-1.76c0.62-1.01,1.28-1.97,1.9-2.86c0.49-0.72,1-1.42,1.48-2.1c0.34-0.47,0.68-0.92,1-1.38
					c0.14-0.18,0.29-0.38,0.41-0.56c1.89-2.59,3.71-5.01,5.41-7.18c12.22-15.67,17.41-17.83,21.18-17.83c0.33,0,0.68,0.04,1.03,0.09
					c0.08,0.02,0.19,0.04,0.28,0.06c4.48-3.7,7.61-6.49,8.25-8.25c-0.78-0.78-1.88-1.11-3.18-1.1c-8.46,0.06-26.43,14.8-34.09,22.48
					c-1.22,1.23-2.6,2.69-4.07,4.31c-1.89,2.11-3.95,4.51-6,7.07c-1.73,2.14-3.45,4.38-5.12,6.65c-5.77,7.88-10.68,16.03-11.4,21.08
					C474.41,189.62,472.04,225.37,475.4,226.45z"/>
				<path class="st0" d="M514.99,152.19c1.46-2.16,2.85-4.48,3.99-6.9c0.05-0.12,0.1-0.23,0.16-0.34
					c3.59-7.72,5.64-14.21,5.71-17.35c0.02-1.24-0.28-1.96-0.9-2.03c-0.03,0-0.05-0.02-0.08-0.02c-1.96,0-6.53,2.52-16.83,15.7
					c-0.07,0.07-0.12,0.14-0.17,0.22c-1.57,2.01-3.28,4.27-5.12,6.81c-0.03,0.05-0.06,0.1-0.12,0.15c-0.87,1.21-1.8,2.48-2.73,3.83
					c-0.59,0.83-1.16,1.7-1.72,2.59c-0.04,0.06-0.08,0.13-0.13,0.2c-1.22,1.99-2.35,4.09-3.37,6.27
					c-10.97,23.31-10.99,55.4-9.92,55.4c0.12-0.04,0.2-0.08,0.31-0.13c5.22-2.09,6.98-8.8,10.91-19.15
					c3.52-9.27,3.32-11.79,3.11-12.38c-0.05-0.08-0.08-0.13-0.09-0.16c-0.11-0.12-1.16,0.8-1.84,1.31
					c-0.32,0.23-0.57,0.38-0.62,0.31c-0.21-0.25,8.23-7.91,12.33-12.03c3.82-3.82,1.72-11.29,0.93-12.29
					c-0.08-0.08-0.12-0.12-0.16-0.12c-0.51,0-3.36,2.99-4.5,3.66c-0.2,0.12-0.36,0.17-0.42,0.11c-0.22-0.23,2.77-3.03,6.38-7.32
					C511.7,156.66,513.4,154.53,514.99,152.19z"/>
				<path class="st0" d="M554.25,151.07l-7.86-4.6c-0.66-0.39-3.83-2.19-9.48-4.68c2.07-5.7,3.1-10.44,3.13-14.37
					c3.65-3.33,6.22-6.35,7.65-10.24c2.04-5.54,0.66-11.82-3.52-16c-2.54-2.54-6.99-5.56-13.86-5.56
					c-17.51,0-42.15,24.18-44.88,26.94c-1.05,1.03-2.14,2.19-3.31,3.45c-19.24-3.36-39.81-5.06-61.18-5.06
					c-21.08,0-41.38,1.65-60.39,4.92c-1.12-1.21-2.18-2.32-3.16-3.3c-2.75-2.76-27.39-26.95-44.89-26.95
					c-6.86,0-11.32,3.02-13.86,5.56c-4.18,4.18-5.56,10.46-3.51,16c1.43,3.89,4,6.91,7.64,10.24c0.03,3.85,1.02,8.48,3,14.02
					c-6.15,2.66-9.57,4.61-10.28,5.03l-7.85,4.6c-2.95,1.72-4.78,4.92-4.78,8.34v8.55c0,85.27,34.37,136.93,63.2,165.24
					c32.08,31.5,65.1,42.1,66.49,42.55l5.49,1.71c0.93,0.31,1.91,0.46,2.9,0.46c0.99,0,1.96-0.15,2.91-0.46l5.47-1.71
					c1.39-0.46,34.43-11.06,66.5-42.55c28.84-28.31,63.2-79.97,63.2-165.24v-8.55C559.03,155.99,557.2,152.79,554.25,151.07z
					 M554.88,167.96c0,83.84-33.69,134.53-61.97,162.28c-31.36,30.79-63.47,41.13-64.83,41.56l-5.49,1.71
					c-0.52,0.17-1.09,0.27-1.65,0.27c-0.56,0-1.12-0.1-1.66-0.27l-5.48-1.71c-1.35-0.43-33.45-10.76-64.84-41.55
					C320.7,302.49,287,251.8,287,167.96v-8.55c0-1.96,1.04-3.77,2.73-4.77l7.85-4.6c0.57-0.34,5.12-2.94,13.5-6.33
					c-3.65-8.96-4.45-14.44-4.1-18.08c-4.31-3.78-6.72-6.51-7.97-9.89c-1.49-4.03-0.49-8.6,2.56-11.64
					c1.98-1.98,5.49-4.35,10.93-4.35c16.09,0,40.91,24.68,41.97,25.73c1.35,1.35,2.86,2.95,4.46,4.73c0.03,0.04,0.07,0.08,0.11,0.12
					c19.42-3.49,40.23-5.25,61.92-5.25c21.98,0,43.05,1.82,62.72,5.4c0.07-0.09,0.14-0.18,0.23-0.27c1.6-1.78,3.09-3.38,4.45-4.73
					c1.06-1.04,25.87-25.73,41.96-25.73c5.45,0,8.94,2.36,10.93,4.35c3.05,3.04,4.06,7.6,2.56,11.63c-1.24,3.38-3.64,6.11-7.97,9.89
					c0.36,3.68-0.46,9.25-4.22,18.4c7.87,3.23,12.15,5.69,12.7,6.01l7.83,4.6c1.7,0.99,2.74,2.8,2.74,4.77V167.96z"/>
				<path d="M456.57,237.75c0-0.55-6.83-5.47-11.41-5.47c-1.81,0-3.45,0.3-4.83,0.77c1.84-2.09,3.86-3.78,7.57-3.78
					c7.84,0,10.78,2.35,10.81,2.35c0.73-0.07,0.51-0.99,0.51-0.99c-0.08-0.13-2.62-4.39-11.32-4.39c-10.12,0-21.03,6.85-21.03,14.09
					l-0.02,18.52h1.38c0.9,0.23,2.24,0.95,2.68,1.77c2.83,5.44-9.61,6.83-9.61,6.83s-10.37-0.37-11.17-6.77c0,0-3.65,2.93-2.18,5.6
					c1.24,2.29,9.86,4.55,12.56,5.07v2.54h1.51v-2.6c2.48-0.48,9.46-1.22,11.7-4.89c3.93-6.94-3.63-9-3.63-9.04
					c0-0.02,0-16.72,0-16.72c3.14-0.66,5.17-2.08,6.85-3.7c0.47,2.04,3.96,3.65,8.22,3.65c2.21-0.01,4.03-1.54,6.26-2.54
					C453.81,236.97,456.57,238.29,456.57,237.75z"/>
			</g>
			<g>
				<g>
					<path class="st0" d="M434.87,461.11c-3.15,0-6.21-0.41-9.15-1.23c-2.91-0.8-5.67-1.97-8.23-3.47
						c-1.31-0.78-2.58-1.64-3.78-2.58c-0.59,1.09-1.34,2.1-2.24,2.99c-2.38,2.34-5.6,3.61-9.07,3.61h-8.87c-3.45,0-6.65-1.29-9-3.64
						c-0.8-0.8-1.48-1.71-2.02-2.68c-0.44,0.75-0.95,1.46-1.54,2.11c-2.42,2.73-5.79,4.21-9.46,4.21h-8.85
						c-3.14,0-6.18-1.18-8.56-3.33c-0.44-0.4-0.85-0.82-1.22-1.26c-2.32,2.9-5.88,4.59-9.89,4.59h-30.5c-1.71,0-3.37-0.31-4.9-0.94
						c-1.34,0.54-2.77,0.87-4.26,0.93c-0.18,0.01-0.35,0.01-0.53,0.01h-26.94c-2.05,0-4.01-0.45-5.76-1.32
						c-1.76,0.88-3.72,1.32-5.79,1.32h-8.91c-3.15,0-6.16-1.12-8.47-3.17c-0.14-0.11-0.27-0.24-0.4-0.37
						c-0.18,0.17-0.36,0.34-0.55,0.5c-2.33,1.99-5.25,3.04-8.44,3.04h-8.87c-3.35,0-6.49-1.24-8.84-3.49
						c-0.86-0.84-1.59-1.78-2.17-2.81c-0.43,0.74-0.94,1.45-1.52,2.09c-2.43,2.72-5.79,4.21-9.47,4.21h-8.85
						c-1.75,0-3.5-0.38-5.11-1.08c-1.64,0.71-3.45,1.08-5.35,1.08h-8.66c-2.78,0-5.28-0.74-7.44-2.21c-1.84-1.24-3.31-2.96-4.3-5.02
						h-0.5c-2.17,4.43-6.59,7.23-11.62,7.23h-8.9c-2.98,0-5.75-0.96-8.03-2.79c-4.11-3.27-5.56-8.84-3.61-13.85l16.21-41.98
						c0.44-1.32,1.12-2.58,2.01-3.71c0.72-0.92,1.57-1.74,2.52-2.47c0.97-0.74,2.05-1.33,3.18-1.77c1.51-0.59,3.07-0.87,4.64-0.87
						h7.72c2.79,0,5.49,0.9,7.69,2.59c2.22-1.69,4.94-2.59,7.76-2.59h32.46c1.79,0,3.52,0.36,5.13,1.05
						c1.58-0.68,3.3-1.05,5.04-1.05h8.96c2.85,0,5.58,0.96,7.91,2.78c0.34,0.26,0.66,0.54,0.97,0.83c2.37-2.34,5.51-3.61,8.89-3.61
						h8.82c2.05,0,4.05,0.46,5.86,1.35c1.77-0.91,3.75-1.38,5.81-1.38h8.93c3.03,0,5.98,1.09,8.3,3.07c2.66,2.29,4.22,5.48,4.4,9
						c0.01,0.19,0.01,0.38,0.01,0.56v21.51h2.3v-21.41c0-3.25,1.18-6.33,3.33-8.67c2.39-2.61,5.7-4.04,9.32-4.04h29.93
						c1.46,0,2.89,0.23,4.24,0.69c1.34-0.45,2.77-0.69,4.2-0.69h32.46c1.78,0,3.49,0.35,5.08,1.03c1.58-0.69,3.31-1.03,5.12-1.03
						h8.87c2.64,0,5.24,0.84,7.48,2.43c1.62,1.14,2.9,2.58,3.8,4.21c1.22-0.96,2.51-1.83,3.86-2.62c2.52-1.46,5.25-2.62,8.13-3.43
						c2.96-0.84,6.04-1.27,9.2-1.27c3.56,0,7.01,0.52,10.24,1.54c3.1,0.97,6.06,2.38,8.77,4.18c2.06,1.31,3.69,3.11,4.75,5.25
						c1.77,3.53,1.74,7.63-0.08,11.28c-0.25,0.49-0.55,0.99-0.88,1.45l-5.02,7.14c-0.96,1.4-2.13,2.57-3.45,3.46
						c1.1,0.73,2.22,1.72,3.24,3.08c0.07,0.12,0.17,0.22,0.24,0.34l5.16,7.41c0.32,0.45,0.59,0.93,0.84,1.4
						c1.87,3.75,1.86,7.94-0.05,11.5c-1.06,2.02-2.66,3.73-4.62,4.96c-2.73,1.8-5.68,3.22-8.81,4.21
						C441.92,460.58,438.44,461.11,434.87,461.11z M434.76,426.09c-0.01,0.02-0.02,0.04-0.03,0.07c-0.04,0.05-0.09,0.19-0.09,0.55
						c0,0.16,0.01,0.37,0.08,0.49c0.01,0.03,0.02,0.06,0.02,0.07c0.04,0,0.06-0.01,0.06-0.01c0.03-0.01,0.09-0.04,0.14-0.07
						c0.24-0.17,0.48-0.34,0.74-0.51c-0.27-0.18-0.53-0.37-0.81-0.57c-0.01-0.01-0.02-0.01-0.05-0.02
						C434.81,426.1,434.79,426.09,434.76,426.09z"/>
					<path d="M454.22,439.99l-5.16-7.42c-0.04-0.07-0.11-0.13-0.15-0.21c-1.66-2.23-3.68-2.97-5.12-3.21
						c-0.41-0.06-0.83-0.09-1.24-0.09c-1.52,0-2.98,0.43-4.38,1.28c-0.19,0.13-0.38,0.26-0.57,0.38c-0.4,0.31-0.84,0.54-1.36,0.72
						c-0.48,0.17-1,0.24-1.57,0.24c-0.66,0-1.23-0.1-1.71-0.34c-0.55-0.24-1-0.55-1.38-0.96c-0.41-0.44-0.73-0.94-0.97-1.57
						c-0.26-0.64-0.37-1.32-0.37-2.11c0-0.79,0.13-1.5,0.38-2.15c0.24-0.63,0.57-1.17,0.98-1.61c0.38-0.4,0.81-0.73,1.36-0.96
						c0.48-0.22,1.05-0.33,1.71-0.33c0.58,0,1.1,0.08,1.56,0.25c0.5,0.16,0.93,0.39,1.33,0.68c0.18,0.14,0.37,0.26,0.56,0.38
						c1.39,0.85,2.86,1.29,4.37,1.29c0.49,0,1.01-0.06,1.48-0.14c2.03-0.4,3.84-1.63,5.07-3.47l5.04-7.16
						c0.2-0.27,0.38-0.58,0.54-0.88c1.19-2.38,1.22-5.06,0.08-7.33c-0.7-1.45-1.82-2.66-3.2-3.51c-2.39-1.59-4.98-2.82-7.7-3.69
						c-2.8-0.87-5.79-1.31-8.91-1.31c-2.76,0-5.44,0.36-8,1.08c-2.52,0.72-4.91,1.73-7.11,3c-2.22,1.31-4.27,2.89-6.08,4.71
						c-1.06,1.06-2.03,2.19-2.91,3.39v-3.29c0-2.67-1.24-5.07-3.43-6.62c-1.52-1.05-3.22-1.62-4.95-1.62h-8.87
						c-1.91,0-3.68,0.6-5.09,1.72c-1.48-1.13-3.24-1.72-5.11-1.72h-32.46c-1.5,0-2.94,0.39-4.21,1.12c-1.26-0.74-2.7-1.12-4.23-1.12
						h-29.93c-2.37,0-4.52,0.94-6.06,2.61c-1.4,1.53-2.16,3.54-2.16,5.69v25.96c-0.48-0.08-0.96-0.14-1.46-0.14h-9.69v-25.92
						c0-0.11,0-0.23-0.01-0.34c-0.11-2.31-1.12-4.39-2.86-5.87c-1.52-1.3-3.45-2.02-5.42-2.02h-8.93c-2.21,0-4.24,0.81-5.77,2.3
						c-0.31-0.29-0.65-0.56-1.01-0.82c-1.44-0.94-3.13-1.46-4.89-1.46h-8.82c-2.29,0-4.41,0.9-5.97,2.53
						c-1.48,1.54-2.29,3.57-2.29,5.71v7.41h-1.19v-7.41c0-2.51-1.14-4.84-3.13-6.41c-1.54-1.2-3.33-1.84-5.19-1.84h-8.96
						c-1.85,0-3.62,0.62-5.03,1.74c-1.49-1.14-3.26-1.74-5.14-1.74h-32.46c-2.08,0-4.06,0.75-5.59,2.11
						c-0.93,0.82-1.64,1.82-2.1,2.92l-0.01-0.03c-0.21-0.47-0.48-0.94-0.8-1.37c-0.41-0.54-0.91-1.07-1.52-1.61
						c-1.49-1.29-3.42-2.02-5.42-2.02h-7.72c-1.02,0-2.03,0.19-3.03,0.58c-0.76,0.29-1.49,0.7-2.14,1.19
						c-0.64,0.47-1.21,1.03-1.7,1.64c-0.6,0.77-1.04,1.59-1.32,2.48l-16.26,42.08c-1.25,3.2-0.35,6.73,2.25,8.82
						c1.48,1.19,3.3,1.81,5.27,1.81h8.9c3.64,0,6.78-2.21,8.02-5.66c0.19-0.51,0.39-1.05,0.6-1.59h6.48
						c0.21,0.55,0.43,1.11,0.64,1.67c0.64,1.73,1.73,3.16,3.16,4.13c1.42,0.96,3.08,1.45,4.96,1.45h8.66c2.5,0,4.24-0.92,5.35-1.79
						c1.48,1.16,3.27,1.79,5.11,1.79h8.85c2.4,0,4.59-0.98,6.17-2.75c1.38-1.55,2.15-3.54,2.15-5.58v-26.13h3.5
						c0.68,0,1.33-0.08,1.97-0.23v26.59c0,0.06,0,0.12,0,0.18c0.11,4.51,3.64,7.91,8.2,7.91h8.87c2.12,0,4.05-0.7,5.57-1.99
						c1.81-1.54,2.84-3.8,2.84-6.25v-10.22h1.19v10.22c0,2.45,0.97,4.65,2.71,6.18c1.51,1.32,3.48,2.06,5.55,2.06h8.91
						c2.07,0,3.97-0.68,5.49-1.97c0.1-0.09,0.2-0.18,0.3-0.27c1.47,1.4,3.47,2.24,5.76,2.24h26.94c0.11,0,0.22,0,0.32-0.01
						c1.65-0.08,3.19-0.61,4.46-1.54c1.4,1.01,3.08,1.54,4.9,1.54h30.5c3.42,0,6.27-1.87,7.51-4.74c0.57-1.08,0.87-2.3,0.87-3.55
						v-7.57c0-3.78-2.27-6.83-5.6-7.88c0.25-0.78,0.38-1.6,0.38-2.43v-6.52c0-0.86-0.12-1.7-0.37-2.48
						c0.29-0.11,0.57-0.26,0.84-0.43c1.26,0.75,2.72,1.14,4.23,1.14h3.48v26.13c0,2.37,0.97,4.55,2.73,6.13
						c1.57,1.41,3.55,2.19,5.59,2.19h8.85c2.4,0,4.59-0.98,6.17-2.75c1.39-1.55,2.15-3.54,2.15-5.58v-26.13h3.5
						c0.68,0,1.34-0.08,1.97-0.23v26.44c0,4.7,3.54,8.24,8.23,8.24h8.87c4.78,0,8.37-3.54,8.37-8.24v-3.25
						c0.89,1.2,1.87,2.34,2.93,3.39c1.8,1.8,3.84,3.38,6.04,4.68c2.22,1.29,4.62,2.31,7.16,3.02c2.55,0.7,5.23,1.06,7.97,1.06
						c3.12,0,6.14-0.45,9-1.36c2.75-0.87,5.35-2.11,7.74-3.69c1.33-0.84,2.4-1.98,3.13-3.33c1.21-2.3,1.21-5-0.01-7.46
						C454.58,440.56,454.41,440.26,454.22,439.99z M185.86,421.57c0.06,0,0.13,0,0.19,0h3.47v9.44L185.86,421.57z"/>
					<path class="st0" d="M637.44,461.11c-3.15,0-6.23-0.41-9.16-1.23c-2.91-0.8-5.68-1.97-8.23-3.47
						c-0.27-0.17-0.57-0.34-0.84-0.52c-0.53,0.65-1.13,1.25-1.78,1.78c-2.24,1.81-5,2.77-7.98,2.77h-10.36
						c-2.69,0-5.27-0.82-7.46-2.39c-2.13,1.54-4.75,2.39-7.59,2.39h-8.96c-1.8,0-3.54-0.35-5.13-1.03
						c-1.59,0.68-3.34,1.03-5.16,1.03h-30.5c-1.87,0-3.66-0.38-5.31-1.11c-1.64,0.72-3.46,1.11-5.34,1.11h-8.54
						c-2.24,0-4.37-0.52-6.21-1.52c-1.78,0.98-3.76,1.5-5.81,1.5h-7.94c-2.06,0-4.05-0.52-5.84-1.51c-1.86,1.01-3.99,1.53-6.27,1.53
						h-8.54c-3.43,0-6.62-1.29-8.98-3.64c-2.35-2.36-3.63-5.55-3.63-9.01c0-0.38,0.02-0.76,0.05-1.14
						c4.32-42.21,4.33-42.22,4.33-42.25c0.29-2.77,1.46-5.32,3.35-7.36c2.41-2.6,5.73-4.03,9.35-4.03h10.45
						c2.83,0,5.49,0.87,7.72,2.55c0.72,0.54,1.41,1.19,2,1.87c2.4-2.78,5.88-4.42,9.74-4.42h10.32c2.72,0,5.35,0.86,7.54,2.45
						c2.15-1.6,4.77-2.45,7.57-2.45h29.93c1.91,0,3.76,0.41,5.44,1.19c1.66-0.78,3.52-1.19,5.42-1.19h19.49
						c3.6,0,7.05,0.69,10.27,2.06c3.11,1.34,5.88,3.18,8.24,5.5c0.32,0.32,0.63,0.64,0.95,0.98c1.85-1.74,3.88-3.25,6.07-4.52
						c2.52-1.46,5.26-2.62,8.13-3.43c2.95-0.84,6.05-1.27,9.22-1.27c3.56,0,6.99,0.52,10.23,1.54c1.58,0.51,3.11,1.12,4.61,1.82
						c2.19-1.72,4.92-2.68,7.78-2.68h8.97c2.85,0,5.58,0.96,7.9,2.78c0.34,0.26,0.67,0.54,0.97,0.83c2.37-2.34,5.52-3.61,8.89-3.61
						h8.82c2.64,0,5.18,0.76,7.34,2.21c3.48,2.34,5.48,6.12,5.48,10.37v42.21c0,3.82-1.56,7.24-4.39,9.64
						c-2.33,1.98-5.21,3.01-8.34,3.01h-8.91c-3.15,0-6.16-1.12-8.48-3.17c-0.13-0.11-0.26-0.24-0.4-0.37
						c-0.17,0.17-0.35,0.34-0.54,0.5c-2.33,1.99-5.26,3.04-8.44,3.04h-8.88c-2.93,0-5.67-0.96-7.86-2.65
						c-1.44,0.67-2.92,1.26-4.44,1.75C644.48,460.58,641.01,461.11,637.44,461.11z M637.31,426.09c-0.01,0.02-0.02,0.04-0.03,0.07
						c-0.02,0.05-0.07,0.2-0.07,0.55c0,0.22,0.02,0.39,0.06,0.49c0.01,0.03,0.02,0.06,0.02,0.07c0.06,0,0.08-0.01,0.08-0.01
						c0.04-0.01,0.1-0.04,0.12-0.07c0.25-0.18,0.51-0.35,0.76-0.51c-0.28-0.18-0.56-0.37-0.81-0.57c-0.01-0.01-0.02-0.01-0.06-0.02
						C637.37,426.1,637.35,426.09,637.31,426.09z"/>
					<path d="M700.49,398.87c-1.43-0.94-3.12-1.46-4.88-1.46h-8.82c-2.29,0-4.4,0.9-5.96,2.53c-1.47,1.54-2.29,3.57-2.29,5.71v7.41
						h-1.19v-7.41c0-2.51-1.14-4.84-3.13-6.41c-1.54-1.2-3.33-1.84-5.19-1.84h-8.97c-2.39,0-4.63,1.03-6.17,2.83
						c-0.26,0.32-0.5,0.64-0.71,0.96c-2.15-1.32-4.44-2.38-6.84-3.13c-2.8-0.87-5.8-1.31-8.91-1.31c-2.76,0-5.45,0.36-8.01,1.08
						c-2.51,0.72-4.9,1.73-7.1,3c-2.23,1.31-4.27,2.89-6.09,4.71c-0.94,0.94-1.79,1.94-2.59,2.98c-1-1.78-2.22-3.39-3.68-4.81
						c-1.96-1.93-4.26-3.48-6.85-4.58c-2.68-1.15-5.54-1.73-8.54-1.73h-19.49c-2.06,0-3.96,0.7-5.41,1.97
						c-1.49-1.27-3.38-1.97-5.45-1.97h-29.93c-2.37,0-4.52,0.94-6.05,2.61c-0.61,0.67-1.1,1.41-1.46,2.22
						c-0.48-1.05-1.21-2.01-2.1-2.79c-1.54-1.31-3.49-2.04-5.49-2.04h-10.32c-3.67,0-6.73,2.17-8.03,5.67
						c-0.04,0.11-0.08,0.25-0.12,0.39l-1.65,5.4l-1.61-5.37c-1.08-3.71-4.24-6.1-8.05-6.1h-10.45c-2.37,0-4.54,0.93-6.11,2.61
						c-1.24,1.35-2,3.03-2.21,4.87c0,0.02-4.32,42.2-4.32,42.2c-0.02,0.23-0.03,0.46-0.03,0.69c0,4.7,3.53,8.24,8.19,8.24h8.54
						c2.55,0,4.75-1,6.27-2.66c0.05,0.07,0.13,0.13,0.19,0.2c1.57,1.56,3.57,2.43,5.65,2.43h7.94c2.19,0,4.23-0.94,5.79-2.63
						c1.49,1.66,3.71,2.66,6.23,2.66h8.54c2.09,0,3.94-0.69,5.36-1.84c1.48,1.21,3.3,1.84,5.29,1.84h30.5
						c1.98,0,3.77-0.62,5.16-1.72c1.46,1.13,3.21,1.72,5.13,1.72h8.96c3.44,0,6.25-1.85,7.53-4.65c0.58,1.17,1.45,2.21,2.5,2.99
						c1.46,1.08,3.2,1.66,5.02,1.66h10.36c1.95,0,3.75-0.62,5.2-1.79c1.59-1.29,2.58-3.13,2.82-5.16c1.49,1.33,3.11,2.51,4.83,3.53
						c2.23,1.29,4.63,2.31,7.17,3.02c2.55,0.7,5.23,1.06,7.98,1.06c3.12,0,6.14-0.45,8.98-1.36c2.35-0.74,4.59-1.76,6.68-3.03
						c1.42,2.28,3.97,3.74,6.96,3.74h8.88c2.12,0,4.05-0.7,5.57-1.99c1.8-1.54,2.84-3.8,2.84-6.25v-10.22h1.19v10.22
						c0,2.45,0.96,4.65,2.71,6.18c1.51,1.32,3.48,2.06,5.55,2.06h8.91c2.07,0,3.97-0.68,5.49-1.97c1.82-1.55,2.82-3.77,2.82-6.27
						v-42.21C704.01,402.82,702.74,400.38,700.49,398.87z M651.47,432.36c-1.68-2.23-3.7-2.97-5.12-3.21
						c-0.41-0.06-0.83-0.09-1.24-0.09c-1.51,0-2.99,0.43-4.39,1.28c-0.19,0.13-0.38,0.26-0.56,0.38c-0.4,0.31-0.86,0.54-1.36,0.72
						c-0.5,0.17-1,0.24-1.57,0.24c-0.67,0-1.23-0.1-1.73-0.34c-0.55-0.24-1-0.55-1.38-0.96c-0.41-0.44-0.72-0.94-0.97-1.57
						c-0.24-0.64-0.37-1.32-0.37-2.11c0-0.79,0.12-1.5,0.38-2.15c0.25-0.63,0.57-1.17,0.98-1.61c0.38-0.4,0.82-0.73,1.36-0.96
						c0.5-0.22,1.06-0.33,1.73-0.33c0.57,0,1.07,0.08,1.56,0.25c0.48,0.16,0.91,0.39,1.31,0.68c0.18,0.14,0.37,0.26,0.56,0.38
						c1.39,0.85,2.88,1.29,4.38,1.29c0.51,0,1.01-0.06,1.5-0.14c2.03-0.4,3.81-1.63,5.05-3.47l0.29-0.4v12.68l-0.25-0.35
						C651.56,432.5,651.52,432.44,651.47,432.36z"/>
				</g>
				<path class="st2" d="M161.25,405.5c0.02-0.13,0.08-0.25,0.2-0.39c0.11-0.15,0.25-0.28,0.41-0.39c0.16-0.13,0.33-0.21,0.51-0.3
					c0.18-0.06,0.35-0.09,0.51-0.09h7.72c0.34,0,0.63,0.09,0.88,0.32c0.24,0.21,0.42,0.4,0.54,0.55l0.75,1.73l15.84,40.84
					c0.16,0.4,0.13,0.74-0.09,0.98c-0.22,0.25-0.6,0.38-1.15,0.38h-8.66c-0.46,0-0.82-0.08-1.07-0.25
					c-0.25-0.17-0.45-0.46-0.59-0.87c-0.4-1.03-0.79-2.04-1.18-3.06c-0.38-1.01-0.76-2.03-1.15-3.06h-16.02
					c-0.38,1.03-0.77,2.05-1.16,3.06c-0.39,1.01-0.78,2.03-1.16,3.06c-0.26,0.74-0.77,1.12-1.54,1.12h-8.9c-0.38,0-0.7-0.1-0.95-0.3
					c-0.25-0.2-0.3-0.51-0.14-0.91L161.25,405.5z M166.74,418.41c-0.38,1.02-0.77,2.14-1.16,3.33c-0.39,1.19-0.78,2.38-1.16,3.59
					c-0.38,1.2-0.77,2.4-1.16,3.57c-0.39,1.18-0.78,2.27-1.16,3.31h9.26L166.74,418.41z"/>
				<path class="st2" d="M184.63,405.65c0-0.4,0.13-0.72,0.41-0.96c0.27-0.25,0.61-0.37,1.01-0.37h32.46c0.36,0,0.68,0.1,0.97,0.33
					c0.28,0.23,0.44,0.54,0.48,0.99v7.48c0,0.37-0.13,0.72-0.38,1.06c-0.25,0.31-0.61,0.48-1.07,0.48H208.1v33.04
					c0,0.37-0.13,0.68-0.39,0.98c-0.26,0.28-0.6,0.43-1.02,0.43h-8.85c-0.34,0-0.66-0.14-0.96-0.41c-0.3-0.26-0.45-0.61-0.45-1.01
					v-33.04h-10.38c-0.4,0-0.74-0.13-1.01-0.39c-0.27-0.25-0.41-0.64-0.41-1.15V405.65z"/>
				<path class="st2" d="M227.38,405.65c0.02-0.34,0.14-0.66,0.38-0.92c0.23-0.27,0.54-0.41,0.92-0.41h8.96
					c0.3,0,0.61,0.13,0.94,0.38c0.32,0.24,0.48,0.57,0.48,0.95v14.32h15v-14.32c0-0.36,0.12-0.69,0.38-0.94
					c0.25-0.26,0.58-0.39,0.98-0.39h8.82c0.4,0,0.75,0.09,1.05,0.29c0.3,0.2,0.46,0.53,0.46,0.97v42.21c0,0.46-0.13,0.78-0.39,1
					c-0.27,0.23-0.6,0.34-1.03,0.34h-8.91c-0.4,0-0.73-0.11-0.98-0.34c-0.25-0.22-0.38-0.54-0.38-1v-17.12h-15v17.12
					c0,0.43-0.14,0.75-0.41,0.98c-0.27,0.24-0.64,0.35-1.1,0.35h-8.87c-0.85,0-1.28-0.39-1.3-1.18V405.65z"/>
				<path class="st2" d="M274.54,405.61c0-0.35,0.12-0.67,0.36-0.92c0.24-0.28,0.57-0.39,1-0.39h8.93c0.34,0,0.65,0.11,0.93,0.36
					c0.28,0.24,0.43,0.55,0.45,0.96v32.83h16.59c0.37,0,0.68,0.13,0.94,0.37c0.26,0.24,0.39,0.58,0.39,0.99v7.93
					c0,0.35-0.12,0.65-0.35,0.94c-0.23,0.27-0.56,0.43-0.98,0.45h-26.94c-0.89,0-1.32-0.44-1.32-1.33V405.61z"/>
				<path class="st2" d="M311.16,405.71c0-0.42,0.12-0.76,0.35-1.01c0.23-0.25,0.56-0.38,0.98-0.38h29.93
					c0.44,0,0.78,0.13,1.03,0.39c0.24,0.25,0.36,0.61,0.36,1.05v7.47c0,0.34-0.12,0.66-0.36,0.98c-0.24,0.3-0.59,0.46-1.05,0.46
					h-19.55v7.49h15.09c0.38,0,0.7,0.08,0.94,0.26c0.26,0.18,0.38,0.5,0.38,0.91v6.52c0,0.27-0.11,0.55-0.33,0.81
					c-0.22,0.25-0.55,0.39-0.97,0.39h-15.12v7.72h20.27c0.9,0,1.36,0.45,1.36,1.38v7.57c0,0.2-0.08,0.38-0.25,0.55
					c-0.08,0.56-0.49,0.84-1.23,0.84h-30.5c-0.4,0-0.72-0.1-0.97-0.32c-0.24-0.21-0.36-0.53-0.36-0.98V405.71z"/>
				<path class="st2" d="M349.44,405.65c0-0.4,0.13-0.72,0.41-0.96c0.27-0.25,0.61-0.37,1.01-0.37h32.46c0.37,0,0.69,0.1,0.97,0.33
					c0.28,0.23,0.44,0.54,0.48,0.99v7.48c0,0.37-0.13,0.72-0.38,1.06c-0.26,0.31-0.61,0.48-1.07,0.48h-10.41v33.04
					c0,0.37-0.13,0.68-0.39,0.98c-0.26,0.28-0.6,0.43-1.02,0.43h-8.85c-0.34,0-0.66-0.14-0.96-0.41c-0.3-0.26-0.46-0.61-0.46-1.01
					v-33.04h-10.38c-0.4,0-0.73-0.13-1.01-0.39c-0.27-0.25-0.41-0.64-0.41-1.15V405.65z"/>
				<path class="st2" d="M392.2,405.65c0-0.36,0.11-0.68,0.33-0.94c0.22-0.26,0.56-0.39,1-0.39h8.87c0.3,0,0.62,0.12,0.96,0.37
					c0.35,0.23,0.52,0.56,0.52,0.96v42.13c0,0.9-0.49,1.33-1.48,1.33h-8.87c-0.89,0-1.32-0.44-1.32-1.33V405.65z"/>
				<path class="st2" d="M447.75,407.57c0.35,0.2,0.59,0.48,0.76,0.79c0.17,0.33,0.14,0.72-0.08,1.15l-5.1,7.25
					c-0.22,0.33-0.45,0.52-0.72,0.59c-0.25,0.05-0.54-0.05-0.9-0.27c-0.99-0.73-2.08-1.3-3.27-1.7c-1.19-0.4-2.44-0.61-3.77-0.61
					c-1.64,0-3.17,0.3-4.56,0.92c-1.39,0.63-2.58,1.49-3.59,2.57c-1,1.1-1.79,2.36-2.36,3.8c-0.57,1.46-0.84,3-0.84,4.65
					c0,1.64,0.27,3.19,0.84,4.62c0.57,1.45,1.35,2.71,2.36,3.77c1,1.09,2.2,1.93,3.59,2.55c1.39,0.62,2.91,0.94,4.56,0.94
					c1.33,0,2.59-0.21,3.8-0.62c1.23-0.41,2.31-0.99,3.3-1.74c0.37-0.22,0.65-0.31,0.92-0.26c0.24,0.04,0.47,0.22,0.71,0.53
					l5.16,7.43c0.22,0.44,0.27,0.81,0.1,1.11c-0.17,0.3-0.41,0.54-0.76,0.75c-1.9,1.28-3.93,2.26-6.11,2.94
					c-2.18,0.71-4.47,1.04-6.9,1.04c-2.11,0-4.18-0.27-6.14-0.82c-1.96-0.54-3.79-1.31-5.49-2.31c-1.72-1.01-3.28-2.22-4.67-3.62
					c-1.4-1.4-2.6-2.94-3.6-4.64c-1-1.71-1.78-3.53-2.33-5.5c-0.54-1.96-0.81-4-0.81-6.14c0-2.13,0.27-4.18,0.81-6.14
					c0.55-1.96,1.33-3.8,2.33-5.52c1-1.7,2.2-3.27,3.6-4.67c1.4-1.41,2.95-2.62,4.67-3.62c1.69-1,3.52-1.76,5.49-2.31
					c1.96-0.56,4.03-0.83,6.14-0.83c2.43,0,4.7,0.33,6.85,1.02C443.87,405.34,445.88,406.31,447.75,407.57z"/>
				<path class="st2" d="M477.52,405.65c0.04-0.36,0.16-0.68,0.42-0.94c0.24-0.26,0.58-0.39,1.02-0.39h10.45
					c0.73,0,1.22,0.38,1.44,1.15l8.2,27.39l8.27-27.39c0.28-0.77,0.79-1.15,1.54-1.15h10.32c0.37,0,0.68,0.13,0.98,0.38
					c0.28,0.24,0.45,0.57,0.49,0.95c0.71,7.07,1.44,14.1,2.16,21.07c0.74,6.97,1.47,14,2.16,21.07v0.16c0,0.79-0.44,1.18-1.33,1.18
					h-8.54c-0.91,0-1.41-0.44-1.44-1.33l-2.62-23.3l-6.79,23.46c-0.05,0.2-0.18,0.44-0.45,0.73c-0.25,0.27-0.49,0.42-0.72,0.42
					h-7.94c-0.25,0-0.5-0.14-0.76-0.41c-0.29-0.28-0.43-0.53-0.46-0.75l-6.78-23.41l-2.62,23.25c-0.04,0.9-0.54,1.33-1.49,1.33
					h-8.54c-0.86,0-1.28-0.44-1.28-1.33L477.52,405.65z"/>
				<path class="st2" d="M532.96,405.71c0-0.42,0.11-0.76,0.34-1.01c0.23-0.25,0.56-0.38,0.98-0.38h29.93
					c0.45,0,0.78,0.13,1.03,0.39c0.25,0.25,0.35,0.61,0.35,1.05v7.47c0,0.34-0.11,0.66-0.35,0.98c-0.25,0.3-0.6,0.46-1.06,0.46
					h-19.55v7.49h15.1c0.38,0,0.69,0.08,0.94,0.26c0.26,0.18,0.38,0.5,0.38,0.91v6.52c0,0.27-0.1,0.55-0.32,0.81
					c-0.23,0.25-0.55,0.39-0.97,0.39h-15.13v7.72h20.29c0.89,0,1.36,0.45,1.36,1.38v7.57c0,0.2-0.09,0.38-0.26,0.55
					c-0.07,0.56-0.48,0.84-1.23,0.84h-30.5c-0.4,0-0.71-0.1-0.97-0.32c-0.24-0.21-0.35-0.53-0.35-0.98V405.71z"/>
				<path class="st2" d="M573.75,405.71c0-0.42,0.11-0.76,0.33-1.01c0.22-0.25,0.56-0.38,0.99-0.38h19.49
					c2.07,0,4.02,0.39,5.82,1.16c1.81,0.78,3.39,1.82,4.74,3.16c1.35,1.31,2.4,2.87,3.18,4.65c0.78,1.78,1.16,3.69,1.16,5.7
					c0,1.37-0.19,2.66-0.56,3.91c-0.38,1.23-0.89,2.39-1.56,3.46c-0.66,1.08-1.45,2.05-2.37,2.93c-0.91,0.86-1.92,1.62-3,2.24
					l7.75,14.61c0.15,0.27,0.33,0.61,0.55,0.99c0.22,0.38,0.33,0.72,0.33,1c0,0.33-0.11,0.57-0.32,0.75
					c-0.21,0.18-0.5,0.25-0.86,0.25h-10.36c-0.33,0-0.64-0.1-0.91-0.3c-0.28-0.2-0.45-0.48-0.53-0.82l-7.33-13.78h-4.89v13.6
					c0,0.87-0.46,1.3-1.39,1.3h-8.96c-0.4,0-0.72-0.1-0.97-0.32c-0.24-0.21-0.36-0.53-0.36-0.98V405.71z M597.38,419.11
					c0-0.61-0.12-1.22-0.34-1.82c-0.22-0.6-0.54-1.15-0.94-1.65c-0.4-0.51-0.87-0.93-1.44-1.26c-0.57-0.34-1.19-0.56-1.87-0.68
					c-0.56-0.03-1.09-0.07-1.58-0.09c-0.5-0.03-1.04-0.05-1.62-0.05h-4.16v11.06h5.55c0.36,0,0.69-0.01,0.96-0.03
					c0.29-0.02,0.59-0.04,0.94-0.08c0.71-0.09,1.34-0.3,1.9-0.62c0.55-0.34,1.04-0.75,1.42-1.25c0.38-0.48,0.66-1.04,0.86-1.65
					C597.27,420.38,597.38,419.75,597.38,419.11z"/>
				<path class="st2" d="M650.32,407.57c0.35,0.2,0.59,0.48,0.76,0.79c0.16,0.33,0.13,0.72-0.1,1.15l-5.09,7.25
					c-0.22,0.33-0.47,0.52-0.71,0.59c-0.25,0.05-0.56-0.05-0.92-0.27c-0.99-0.73-2.07-1.3-3.25-1.7c-1.19-0.4-2.44-0.61-3.77-0.61
					c-1.65,0-3.17,0.3-4.56,0.92c-1.39,0.63-2.58,1.49-3.59,2.57c-1,1.1-1.79,2.36-2.35,3.8c-0.57,1.46-0.84,3-0.84,4.65
					c0,1.64,0.28,3.19,0.84,4.62c0.57,1.45,1.35,2.71,2.35,3.77c1.01,1.09,2.2,1.93,3.59,2.55c1.39,0.62,2.91,0.94,4.56,0.94
					c1.33,0,2.59-0.21,3.8-0.62c1.2-0.41,2.31-0.99,3.3-1.74c0.36-0.22,0.66-0.31,0.89-0.26c0.24,0.04,0.49,0.22,0.73,0.53
					l5.16,7.43c0.22,0.44,0.24,0.81,0.08,1.11c-0.15,0.3-0.41,0.54-0.75,0.75c-1.89,1.28-3.92,2.26-6.1,2.94
					c-2.19,0.71-4.49,1.04-6.9,1.04c-2.14,0-4.18-0.27-6.14-0.82c-1.96-0.54-3.79-1.31-5.51-2.31c-1.7-1.01-3.25-2.22-4.65-3.62
					c-1.4-1.4-2.61-2.94-3.61-4.64c-1.01-1.71-1.78-3.53-2.31-5.5c-0.55-1.96-0.82-4-0.82-6.14c0-2.13,0.27-4.18,0.82-6.14
					c0.54-1.96,1.31-3.8,2.31-5.52c1.01-1.7,2.22-3.27,3.61-4.67c1.4-1.41,2.95-2.62,4.65-3.62c1.72-1,3.55-1.76,5.51-2.31
					c1.96-0.56,4-0.83,6.14-0.83c2.41,0,4.69,0.33,6.83,1.02C646.41,405.34,648.43,406.31,650.32,407.57z"/>
				<path class="st2" d="M658.77,405.65c0.02-0.34,0.14-0.66,0.38-0.92c0.23-0.27,0.53-0.41,0.91-0.41h8.97
					c0.3,0,0.61,0.13,0.93,0.38c0.33,0.24,0.49,0.57,0.49,0.95v14.32h14.99v-14.32c0-0.36,0.13-0.69,0.38-0.94
					c0.26-0.26,0.58-0.39,0.98-0.39h8.82c0.4,0,0.75,0.09,1.05,0.29c0.3,0.2,0.44,0.53,0.44,0.97v42.21c0,0.46-0.12,0.78-0.39,1
					c-0.25,0.23-0.6,0.34-1.02,0.34h-8.91c-0.4,0-0.72-0.11-0.98-0.34c-0.24-0.22-0.38-0.54-0.38-1v-17.12h-14.99v17.12
					c0,0.43-0.14,0.75-0.41,0.98c-0.27,0.24-0.65,0.35-1.1,0.35h-8.88c-0.84,0-1.27-0.39-1.29-1.18V405.65z"/>
			</g>
		</g>
		<g>
			<path class="st0" d="M188.85,479.39c-0.21-0.48-0.24-0.86-0.11-1.18c0.12-0.31,0.47-0.48,1.02-0.48h4.33
				c0.29,0,0.54,0.03,0.77,0.21c0.22,0.17,0.36,0.39,0.47,0.69c0.2,0.6,0.4,1.24,0.63,2c0.23,0.76,0.5,1.51,0.73,2.28
				c0.26,0.77,0.53,1.55,0.76,2.3c0.24,0.75,0.48,1.44,0.68,2.1c0.23,0.62,0.41,1.18,0.56,1.67c0.15,0.48,0.29,0.81,0.36,1.02
				l3.6-11.36c0.16-0.36,0.34-0.61,0.53-0.72c0.18-0.15,0.42-0.18,0.78-0.18h4.02c0.33,0,0.58,0.02,0.74,0.09
				c0.16,0.09,0.27,0.19,0.33,0.32c0.08,0.15,0.08,0.3,0.05,0.48c-0.05,0.17-0.12,0.36-0.17,0.55l-1.89,4.54
				c0.07,0.2,0.21,0.55,0.46,0.98c0.22,0.48,0.48,0.99,0.77,1.56c0.29,0.61,0.58,1.23,0.88,1.86c0.32,0.63,0.56,1.22,0.76,1.78
				l4.18-11.27c0.13-0.36,0.28-0.61,0.43-0.72c0.18-0.15,0.38-0.18,0.71-0.18h3.73c0.56,0,0.93,0.07,1.13,0.29
				c0.2,0.2,0.21,0.58,0.02,1.16l-7.94,19.37c-0.12,0.21-0.29,0.37-0.49,0.53c-0.21,0.16-0.49,0.19-0.9,0.19h-1.79
				c-0.43,0-0.77-0.03-0.97-0.19c-0.19-0.15-0.37-0.33-0.47-0.57l-3.18-7.69l-3.1,7.74c-0.14,0.21-0.28,0.37-0.43,0.53
				c-0.17,0.16-0.44,0.19-0.76,0.19h-2.04c-0.43,0-0.77-0.03-0.96-0.19c-0.19-0.14-0.32-0.31-0.41-0.53L188.85,479.39z"/>
			<path class="st0" d="M221.56,479.39c-0.23-0.48-0.27-0.86-0.13-1.18c0.15-0.31,0.47-0.48,1-0.48h4.37c0.28,0,0.55,0.03,0.77,0.21
				c0.21,0.17,0.38,0.39,0.45,0.69c0.19,0.6,0.41,1.24,0.66,2c0.24,0.76,0.46,1.51,0.71,2.28c0.29,0.77,0.5,1.55,0.75,2.3
				c0.26,0.75,0.5,1.44,0.7,2.1c0.2,0.62,0.39,1.18,0.56,1.67c0.17,0.48,0.26,0.81,0.37,1.02l3.57-11.36
				c0.14-0.36,0.3-0.61,0.5-0.72c0.18-0.15,0.44-0.18,0.78-0.18h4.02c0.35,0,0.59,0.02,0.76,0.09c0.18,0.09,0.3,0.19,0.35,0.32
				c0.04,0.15,0.05,0.3,0.02,0.48c-0.02,0.17-0.08,0.36-0.17,0.55l-1.86,4.54c0.08,0.2,0.24,0.55,0.47,0.98
				c0.22,0.48,0.46,0.99,0.77,1.56c0.26,0.61,0.59,1.23,0.87,1.86c0.3,0.63,0.53,1.22,0.75,1.78l4.16-11.27
				c0.18-0.36,0.31-0.61,0.44-0.72c0.16-0.15,0.4-0.18,0.71-0.18h3.76c0.52,0,0.9,0.07,1.11,0.29c0.19,0.2,0.21,0.58,0.04,1.16
				l-7.97,19.37c-0.09,0.21-0.23,0.37-0.45,0.53c-0.23,0.16-0.52,0.19-0.9,0.19h-1.79c-0.47,0-0.77-0.03-0.97-0.19
				c-0.21-0.15-0.36-0.33-0.5-0.57l-3.16-7.69l-3.12,7.74c-0.1,0.21-0.27,0.37-0.44,0.53c-0.18,0.16-0.41,0.19-0.77,0.19h-2
				c-0.47,0-0.77-0.03-0.96-0.19c-0.19-0.14-0.32-0.31-0.43-0.53L221.56,479.39z"/>
			<path class="st0" d="M254.28,479.39c-0.21-0.48-0.27-0.86-0.15-1.18c0.16-0.31,0.51-0.48,1.04-0.48h4.32
				c0.32,0,0.56,0.03,0.77,0.21c0.24,0.17,0.38,0.39,0.49,0.69c0.2,0.6,0.43,1.24,0.63,2c0.23,0.76,0.47,1.51,0.76,2.28
				c0.23,0.77,0.48,1.55,0.76,2.3c0.23,0.75,0.44,1.44,0.66,2.1c0.21,0.62,0.39,1.18,0.54,1.67c0.18,0.48,0.32,0.81,0.38,1.02
				l3.63-11.36c0.14-0.36,0.3-0.61,0.48-0.72c0.19-0.15,0.47-0.18,0.79-0.18h4.03c0.3,0,0.6,0.02,0.75,0.09
				c0.16,0.09,0.29,0.19,0.32,0.32c0.07,0.15,0.09,0.3,0.03,0.48c-0.03,0.17-0.07,0.36-0.15,0.55l-1.85,4.54
				c0.05,0.2,0.22,0.55,0.42,0.98c0.25,0.48,0.52,0.99,0.77,1.56c0.33,0.61,0.6,1.23,0.94,1.86c0.26,0.63,0.53,1.22,0.74,1.78
				l4.13-11.27c0.15-0.36,0.31-0.61,0.48-0.72c0.15-0.15,0.39-0.18,0.66-0.18h3.78c0.55,0,0.92,0.07,1.14,0.29
				c0.2,0.2,0.21,0.58,0.01,1.16l-7.98,19.37c-0.08,0.21-0.24,0.37-0.46,0.53c-0.19,0.16-0.53,0.19-0.91,0.19h-1.77
				c-0.43,0-0.77-0.03-0.96-0.19c-0.21-0.15-0.38-0.33-0.51-0.57l-3.15-7.69l-3.1,7.74c-0.14,0.21-0.3,0.37-0.45,0.53
				c-0.16,0.16-0.45,0.19-0.77,0.19h-2c-0.46,0-0.77-0.03-0.97-0.19c-0.18-0.14-0.35-0.31-0.39-0.53L254.28,479.39z"/>
			<path class="st0" d="M288.63,494.41c0-0.26,0.03-0.44,0.19-0.56c0.11-0.16,0.29-0.21,0.57-0.21h4.47c0.18,0,0.38,0.05,0.54,0.21
				c0.19,0.12,0.23,0.3,0.23,0.56v4.08c0,0.2-0.03,0.39-0.21,0.56c-0.1,0.17-0.31,0.21-0.57,0.21h-4.47c-0.53,0-0.76-0.23-0.76-0.77
				V494.41z"/>
			<path class="st0" d="M320.9,498.02c0,0.2-0.01,0.39-0.07,0.56c-0.1,0.17-0.18,0.3-0.33,0.41c-0.15,0.09-0.29,0.21-0.45,0.25
				c-0.16,0.01-0.31,0.02-0.46,0.02h-3.33c-0.23,0-0.44-0.01-0.56-0.06c-0.17-0.11-0.28-0.15-0.36-0.29
				c-0.11-0.1-0.2-0.25-0.22-0.42c-0.1-0.18-0.16-0.36-0.2-0.54l-0.53-1.25c-0.28,0.29-0.59,0.63-0.97,0.98
				c-0.38,0.34-0.76,0.63-1.19,0.96c-0.48,0.28-0.93,0.55-1.47,0.76c-0.47,0.19-1.01,0.26-1.58,0.26c-1.07,0-2.07-0.1-3.01-0.39
				c-0.94-0.23-1.8-0.61-2.62-1.12c-0.84-0.45-1.59-1.03-2.24-1.72c-0.67-0.66-1.26-1.4-1.72-2.23c-0.51-0.86-0.86-1.71-1.13-2.66
				c-0.23-0.96-0.38-1.98-0.38-3.03c0-1.56,0.31-3.06,0.87-4.39c0.59-1.36,1.4-2.52,2.36-3.5c0.98-1.01,2.15-1.8,3.5-2.39
				c1.34-0.56,2.82-0.84,4.37-0.84c0.66,0,1.33,0.1,1.93,0.33c0.57,0.21,1.12,0.45,1.56,0.82c0.52,0.35,0.93,0.72,1.31,1.15
				c0.39,0.41,0.76,0.85,1.06,1.3l0.68-2.07c0.09-0.26,0.18-0.53,0.25-0.69c0.11-0.14,0.15-0.29,0.26-0.38
				c0.06-0.09,0.18-0.12,0.29-0.16c0.15-0.05,0.34-0.07,0.53-0.07h2.52c0.16,0,0.3,0.03,0.46,0.08c0.16,0.04,0.3,0.07,0.45,0.22
				c0.15,0.14,0.23,0.26,0.33,0.42c0.07,0.17,0.07,0.36,0.07,0.54V498.02z M304.2,488.5c0,0.77,0.12,1.45,0.35,2.1
				c0.22,0.64,0.57,1.22,0.98,1.71c0.4,0.45,0.96,0.82,1.55,1.13c0.6,0.25,1.3,0.4,2.02,0.4c0.74,0,1.44-0.16,2.12-0.4
				c0.66-0.32,1.21-0.68,1.67-1.13c0.52-0.5,0.9-1.08,1.12-1.71c0.3-0.65,0.43-1.33,0.43-2.1c0-0.73-0.14-1.4-0.43-2.09
				c-0.22-0.62-0.6-1.19-1.12-1.72c-0.45-0.47-1.01-0.85-1.67-1.17c-0.68-0.28-1.38-0.42-2.12-0.42c-0.73,0-1.42,0.13-2.02,0.42
				c-0.58,0.32-1.14,0.7-1.55,1.17c-0.41,0.53-0.76,1.1-0.98,1.72C304.32,487.1,304.2,487.77,304.2,488.5z"/>
			<path class="st0" d="M326.28,474.35c0-0.35,0.15-0.62,0.37-0.8c0.22-0.17,0.58-0.33,0.98-0.47l3.85-1.36
				c0.07-0.02,0.15-0.03,0.17-0.03c0.05,0,0.13,0,0.18,0c0.41,0,0.67,0.11,0.8,0.37c0.16,0.24,0.22,0.54,0.22,0.96l-0.03,5.35h2.87
				c0.38,0,0.63,0.12,0.89,0.34c0.22,0.2,0.33,0.53,0.33,0.96v3.26c0,0.48-0.11,0.82-0.33,1.06c-0.26,0.21-0.51,0.3-0.89,0.3h-2.87
				l0.03,13.66c0,0.46-0.09,0.77-0.38,0.97c-0.22,0.25-0.59,0.33-0.99,0.33h-3.84c-0.9,0-1.34-0.41-1.34-1.31l-0.01-13.66h-1.22
				c-0.88,0-1.29-0.44-1.29-1.36v-3.26c0-0.86,0.4-1.3,1.29-1.3h1.22L326.28,474.35z"/>
			<path class="st0" d="M346.07,480c0.23-0.33,0.52-0.66,0.8-0.96c0.34-0.33,0.69-0.58,1.11-0.83c0.39-0.26,0.86-0.46,1.38-0.62
				c0.55-0.13,1.12-0.21,1.82-0.21c1.27,0,2.43,0.24,3.44,0.75c1.04,0.51,1.88,1.17,2.58,2.02c0.74,0.86,1.25,1.86,1.61,3.02
				c0.37,1.12,0.56,2.39,0.56,3.68v11.1c0,0.46-0.08,0.77-0.26,0.97c-0.2,0.25-0.53,0.33-0.93,0.33h-3.89c-0.53,0-0.83-0.05-1-0.22
				c-0.18-0.17-0.31-0.5-0.31-0.96v-11.23c0-0.48-0.06-0.92-0.26-1.39c-0.19-0.41-0.45-0.78-0.74-1.06
				c-0.36-0.32-0.74-0.54-1.14-0.72c-0.4-0.18-0.89-0.3-1.33-0.3c-0.39,0-0.81,0.11-1.18,0.29c-0.41,0.16-0.75,0.38-1.1,0.65
				c-0.28,0.33-0.56,0.69-0.77,1.12c-0.21,0.39-0.33,0.87-0.38,1.36v11.23c0,0.2-0.01,0.4-0.07,0.6c-0.1,0.17-0.19,0.3-0.33,0.43
				c-0.18,0.06-0.3,0.16-0.39,0.19c-0.19,0.01-0.33,0.02-0.5,0.02h-3.85c-0.46,0-0.83-0.1-1.02-0.35c-0.22-0.23-0.35-0.56-0.35-0.96
				v-13.8v-0.12v-5.05v-0.09v-6.3c0-0.39,0.13-0.68,0.35-0.96c0.19-0.21,0.56-0.32,1.02-0.32h3.85c0.29,0,0.54,0.09,0.89,0.28
				c0.14,0.06,0.24,0.22,0.33,0.41c0.06,0.19,0.07,0.38,0.07,0.57V480z"/>
			<path class="st0" d="M363.43,472.59c0-0.36,0.08-0.63,0.29-0.92c0.17-0.24,0.5-0.34,0.94-0.34h4.15c0.08,0,0.24,0.01,0.35,0.08
				c0.11,0.06,0.24,0.16,0.32,0.23c0.16,0.16,0.19,0.3,0.31,0.44c0.06,0.15,0.07,0.32,0.07,0.51v25.37c0,0.46-0.09,0.77-0.38,0.97
				c-0.22,0.25-0.53,0.33-0.93,0.33h-3.9c-0.44,0-0.77-0.09-0.94-0.33c-0.21-0.21-0.29-0.51-0.29-0.97V472.59z"/>
			<path class="st0" d="M392.03,496.7c-1.02,0.93-2.13,1.61-3.36,2.15c-1.24,0.53-2.56,0.77-3.96,0.77c-1.57,0-3.01-0.28-4.41-0.86
				c-1.38-0.56-2.59-1.34-3.61-2.37c-1.07-0.98-1.86-2.15-2.49-3.51c-0.62-1.34-0.89-2.84-0.89-4.42c0-1.01,0.09-1.98,0.37-2.9
				c0.2-0.93,0.58-1.85,0.97-2.64c0.48-0.81,1.01-1.55,1.67-2.28c0.62-0.64,1.38-1.24,2.16-1.74c0.77-0.48,1.62-0.83,2.56-1.15
				c0.91-0.24,1.91-0.39,2.94-0.39c0.93,0,1.85,0.14,2.75,0.38c0.87,0.23,1.72,0.59,2.5,1.05c0.77,0.46,1.45,1.02,2.12,1.64
				c0.6,0.62,1.16,1.32,1.65,2.09c0.46,0.75,0.84,1.54,1.05,2.39c0.29,0.86,0.38,1.73,0.38,2.63c0,0.59,0,1.11-0.01,1.45
				c0,0.38-0.09,0.66-0.24,0.89c-0.15,0.21-0.44,0.35-0.79,0.48c-0.37,0.06-0.91,0.09-1.65,0.09h-12.22
				c0.11,0.74,0.33,1.34,0.7,1.85c0.38,0.47,0.76,0.83,1.16,1.16c0.49,0.27,0.94,0.46,1.48,0.6c0.49,0.14,0.99,0.19,1.41,0.19
				c0.44,0,0.85-0.03,1.3-0.15c0.41-0.06,0.81-0.18,1.24-0.32c0.39-0.14,0.76-0.31,1.1-0.5c0.38-0.18,0.59-0.38,0.81-0.58
				c0.18-0.17,0.35-0.24,0.5-0.35c0.1-0.04,0.23-0.07,0.41-0.07c0.13,0,0.28,0.04,0.4,0.14c0.19,0.09,0.36,0.25,0.57,0.45l1.77,2.02
				c0.15,0.15,0.22,0.31,0.26,0.41c0.03,0.11,0.06,0.25,0.06,0.37c0,0.21-0.07,0.42-0.18,0.57
				C392.32,496.41,392.2,496.57,392.03,496.7z M383.86,482.55c-0.41,0-0.88,0.08-1.29,0.26c-0.41,0.17-0.8,0.4-1.18,0.71
				c-0.35,0.32-0.64,0.63-0.98,0.97c-0.25,0.38-0.48,0.76-0.66,1.14h8.7c-0.28-0.41-0.53-0.81-0.78-1.18
				c-0.33-0.38-0.62-0.74-0.96-0.98c-0.34-0.3-0.77-0.53-1.25-0.7C385.02,482.62,384.46,482.55,383.86,482.55z"/>
			<path class="st0" d="M399.33,474.35c0-0.35,0.1-0.62,0.33-0.8c0.23-0.17,0.54-0.33,0.98-0.47l3.86-1.36
				c0.09-0.02,0.11-0.03,0.15-0.03c0.08,0,0.14,0,0.15,0c0.43,0,0.73,0.11,0.85,0.37c0.12,0.24,0.24,0.54,0.24,0.96l-0.03,5.35h2.8
				c0.37,0,0.69,0.12,0.92,0.34c0.21,0.2,0.36,0.53,0.36,0.96v3.26c0,0.48-0.15,0.82-0.36,1.06c-0.23,0.21-0.56,0.3-0.92,0.3h-2.8
				l0.03,13.66c0,0.46-0.14,0.77-0.38,0.97c-0.25,0.25-0.59,0.33-1.04,0.33h-3.84c-0.85,0-1.29-0.41-1.29-1.31l-0.03-13.66h-1.23
				c-0.88,0-1.32-0.44-1.32-1.36v-3.26c0-0.86,0.44-1.3,1.32-1.3h1.23L399.33,474.35z"/>
			<path class="st0" d="M412.59,470.45c0-0.48,0.08-0.8,0.28-1.01c0.2-0.19,0.56-0.31,0.94-0.31h3.99c0.38,0,0.67,0.12,0.96,0.31
				c0.24,0.21,0.36,0.53,0.36,1.01v3.28c0,0.17-0.04,0.33-0.11,0.48c-0.06,0.14-0.17,0.29-0.23,0.45c-0.15,0.15-0.3,0.24-0.45,0.36
				c-0.15,0.08-0.33,0.16-0.52,0.16h-3.99c-0.77,0-1.23-0.5-1.23-1.45V470.45z M412.59,479.04c0-0.35,0.08-0.69,0.28-0.94
				c0.2-0.26,0.56-0.37,0.94-0.37h3.91c0.14,0,0.31,0.02,0.45,0.05c0.15,0.11,0.28,0.17,0.45,0.29c0.15,0.12,0.22,0.26,0.34,0.43
				c0.08,0.17,0.16,0.35,0.16,0.54v18.91c0,0.46-0.12,0.77-0.35,0.97c-0.28,0.25-0.6,0.33-1.06,0.33h-3.91
				c-0.77,0-1.23-0.41-1.23-1.31V479.04z"/>
			<path class="st0" d="M437,492.66c0.15-0.14,0.27-0.19,0.44-0.24c0.14-0.05,0.25-0.06,0.34-0.06c0.2,0,0.38,0.06,0.52,0.16
				c0.14,0.05,0.3,0.22,0.47,0.48l1.92,2.87c0.05,0.11,0.1,0.19,0.18,0.32c0.02,0.13,0.05,0.19,0.05,0.27
				c0,0.26-0.06,0.48-0.23,0.65c-0.18,0.17-0.38,0.29-0.56,0.41c-0.93,0.64-1.92,1.16-3.06,1.55c-1.09,0.39-2.23,0.58-3.47,0.58
				c-1,0-1.99-0.1-2.93-0.39c-0.95-0.23-1.88-0.61-2.65-1.12c-0.82-0.45-1.55-1.03-2.28-1.72c-0.65-0.66-1.21-1.4-1.72-2.23
				c-0.43-0.86-0.81-1.71-1.09-2.66c-0.28-0.96-0.42-1.98-0.42-3.03c0-1.02,0.15-2.04,0.42-3.01c0.28-0.96,0.66-1.82,1.09-2.66
				c0.51-0.85,1.07-1.57,1.72-2.23c0.73-0.71,1.46-1.27,2.28-1.74c0.78-0.5,1.71-0.85,2.65-1.12c0.94-0.24,1.93-0.38,2.93-0.38
				c1.24,0,2.34,0.17,3.44,0.51c0.99,0.31,1.98,0.82,2.91,1.44l-0.03-0.04c0.21,0.15,0.41,0.33,0.59,0.54
				c0.15,0.19,0.2,0.42,0.2,0.71c0,0.22-0.04,0.44-0.2,0.64l-1.52,2.54c-0.3,0.57-0.68,0.84-1.15,0.84c-0.09,0-0.23-0.04-0.38-0.07
				c-0.12-0.03-0.28-0.17-0.46-0.26c-0.53-0.34-1.06-0.59-1.63-0.82c-0.55-0.2-1.19-0.3-1.78-0.3c-0.75,0-1.38,0.13-1.98,0.42
				c-0.62,0.32-1.09,0.7-1.56,1.17c-0.42,0.53-0.74,1.1-0.98,1.72c-0.26,0.69-0.34,1.37-0.34,2.09c0,0.77,0.08,1.45,0.34,2.1
				c0.25,0.64,0.56,1.22,0.98,1.71c0.47,0.45,0.94,0.82,1.56,1.13c0.6,0.25,1.23,0.4,1.98,0.4c0.59,0,1.23-0.14,1.77-0.36
				C435.93,493.29,436.47,492.97,437,492.66z"/>
			<path class="st0" d="M444.6,478.01c0.14-0.11,0.32-0.22,0.5-0.26c0.15-0.01,0.29-0.02,0.42-0.02h2.59c0.22,0,0.37,0.01,0.52,0.09
				c0.13,0.08,0.29,0.17,0.35,0.3c0.16,0.12,0.18,0.24,0.29,0.4c0.06,0.18,0.09,0.35,0.17,0.52l0.49,2.16
				c0.2-0.37,0.39-0.77,0.65-1.19c0.26-0.45,0.56-0.86,0.97-1.27c0.41-0.38,0.89-0.68,1.5-0.99c0.6-0.23,1.39-0.38,2.26-0.38
				c1.49,0,2.72,0.34,3.83,0.94c1.09,0.59,1.97,1.44,2.69,2.48c0.2-0.35,0.49-0.74,0.88-1.13c0.38-0.4,0.85-0.78,1.36-1.14
				c0.47-0.31,1.1-0.6,1.79-0.8c0.63-0.22,1.4-0.35,2.21-0.35c1.27,0,2.42,0.24,3.45,0.75c1.05,0.51,1.85,1.17,2.59,2.02
				c0.71,0.86,1.22,1.86,1.6,3.02c0.36,1.12,0.54,2.39,0.54,3.68v11.1c0,0.46-0.06,0.77-0.25,0.97c-0.19,0.25-0.52,0.33-0.91,0.33
				h-3.91c-0.52,0-0.85-0.05-1.01-0.22c-0.17-0.17-0.28-0.5-0.28-0.96v-11.23c0-0.48-0.04-0.92-0.19-1.39
				c-0.19-0.41-0.37-0.78-0.67-1.06c-0.29-0.32-0.62-0.54-0.99-0.72c-0.41-0.18-0.84-0.3-1.28-0.3c-0.45,0-0.87,0.11-1.27,0.29
				c-0.37,0.17-0.7,0.39-0.98,0.67c-0.31,0.31-0.56,0.68-0.74,1.1c-0.18,0.42-0.21,0.91-0.21,1.41v11.1c0,0.46-0.14,0.77-0.32,0.97
				c-0.17,0.25-0.44,0.33-0.87,0.33h-0.36h-0.18h-3.42c-0.44,0-0.82-0.05-1-0.22c-0.19-0.17-0.26-0.5-0.26-0.96v-11.23
				c0-0.48-0.08-0.92-0.2-1.39c-0.13-0.41-0.34-0.78-0.62-1.06c-0.28-0.32-0.62-0.54-0.97-0.72c-0.39-0.18-0.82-0.3-1.26-0.3
				c-0.44,0-0.82,0.11-1.23,0.29c-0.38,0.16-0.72,0.38-1.04,0.65c-0.31,0.33-0.57,0.69-0.77,1.12c-0.19,0.39-0.36,0.87-0.38,1.36
				v11.23c0,0.2-0.01,0.4-0.11,0.6c-0.07,0.17-0.17,0.3-0.3,0.43c-0.16,0.06-0.35,0.16-0.45,0.19c-0.1,0.01-0.29,0.02-0.46,0.02
				h-3.84c-0.45,0-0.8-0.1-1.03-0.35c-0.21-0.23-0.34-0.56-0.34-0.96v-18.97c0-0.24,0.03-0.45,0.17-0.61
				c0.06-0.16,0.21-0.3,0.41-0.42L444.6,478.01z"/>
			<path class="st0" d="M498.1,496.7c-1,0.93-2.12,1.61-3.41,2.15c-1.21,0.53-2.55,0.77-3.92,0.77c-1.54,0-3.03-0.28-4.4-0.86
				c-1.39-0.56-2.61-1.34-3.63-2.37c-1.05-0.98-1.9-2.15-2.5-3.51c-0.6-1.34-0.94-2.84-0.94-4.42c0-1.01,0.17-1.98,0.38-2.9
				c0.24-0.93,0.57-1.85,1.07-2.64c0.46-0.81,0.98-1.55,1.62-2.28c0.62-0.64,1.34-1.24,2.12-1.74c0.8-0.48,1.71-0.83,2.62-1.15
				c0.91-0.24,1.9-0.39,2.95-0.39c0.94,0,1.84,0.14,2.7,0.38c0.92,0.23,1.71,0.59,2.48,1.05c0.77,0.46,1.53,1.02,2.14,1.64
				c0.68,0.62,1.2,1.32,1.69,2.09c0.45,0.75,0.78,1.54,1.08,2.39c0.26,0.86,0.36,1.73,0.36,2.63c0,0.59-0.01,1.11-0.02,1.45
				c-0.02,0.38-0.08,0.66-0.26,0.89c-0.17,0.21-0.39,0.35-0.77,0.48c-0.38,0.06-0.93,0.09-1.64,0.09h-12.21
				c0.1,0.74,0.33,1.34,0.66,1.85c0.35,0.47,0.73,0.83,1.23,1.16c0.44,0.27,0.92,0.46,1.41,0.6c0.54,0.14,0.98,0.19,1.48,0.19
				c0.39,0,0.82-0.03,1.22-0.15c0.43-0.06,0.86-0.18,1.27-0.32c0.42-0.14,0.76-0.31,1.08-0.5c0.33-0.18,0.62-0.38,0.82-0.58
				c0.18-0.17,0.32-0.24,0.45-0.35c0.15-0.04,0.29-0.07,0.41-0.07c0.17,0,0.34,0.04,0.48,0.14c0.14,0.09,0.3,0.25,0.49,0.45
				l1.82,2.02c0.11,0.15,0.21,0.31,0.25,0.41c0.01,0.11,0.03,0.25,0.03,0.37c0,0.21-0.03,0.42-0.19,0.57
				C498.4,496.41,498.26,496.57,498.1,496.7z M489.88,482.55c-0.42,0-0.82,0.08-1.26,0.26c-0.41,0.17-0.81,0.4-1.14,0.71
				c-0.36,0.32-0.71,0.63-0.98,0.97c-0.29,0.38-0.51,0.76-0.7,1.14h8.65c-0.2-0.41-0.49-0.81-0.77-1.18
				c-0.27-0.38-0.57-0.74-0.95-0.98c-0.37-0.3-0.77-0.53-1.22-0.7C491.03,482.62,490.53,482.55,489.88,482.55z"/>
			<path class="st0" d="M504.05,478.96c0-0.2,0.03-0.39,0.15-0.56c0.06-0.17,0.18-0.3,0.29-0.41c0.33-0.2,0.62-0.26,0.92-0.26h2.57
				c0.21,0,0.37,0.02,0.5,0.09c0.16,0.09,0.22,0.18,0.35,0.31c0.04,0.12,0.15,0.24,0.2,0.39c0.04,0.18,0.13,0.35,0.21,0.51
				c0.02,0.04,0.07,0.14,0.16,0.3c0.03,0.17,0.12,0.38,0.22,0.6c0.05,0.2,0.17,0.4,0.19,0.59c0.11,0.19,0.17,0.3,0.19,0.37
				c0.32-0.38,0.63-0.77,0.96-1.21c0.31-0.4,0.62-0.79,0.98-1.15c0.38-0.33,0.76-0.62,1.18-0.82c0.44-0.24,0.93-0.36,1.51-0.36
				c0.62,0,1.16,0.04,1.68,0.15c0.45,0.05,0.92,0.22,1.38,0.39c0.4,0.17,0.81,0.4,1.26,0.64c0.44,0.32,0.86,0.62,1.4,0.94
				c0.78,0.46,0.91,1.09,0.42,1.91l-1.54,2.63c-0.22,0.33-0.52,0.56-0.83,0.62c-0.34,0.08-0.71,0.02-1.09-0.17
				c-0.48-0.45-0.98-0.8-1.49-1.03c-0.48-0.26-1.05-0.35-1.71-0.35c-0.47,0-0.85,0.04-1.18,0.19c-0.32,0.1-0.62,0.27-0.89,0.53
				c-0.31,0.21-0.5,0.47-0.77,0.82c-0.24,0.31-0.49,0.62-0.7,1.01v12.3c0,0.46-0.14,0.77-0.33,0.97c-0.22,0.25-0.57,0.33-1.02,0.33
				h-3.82c-0.91,0-1.35-0.41-1.35-1.31V478.96z"/>
			<path class="st0" d="M535.75,492.66c0.17-0.14,0.35-0.19,0.46-0.24c0.12-0.05,0.26-0.06,0.32-0.06c0.19,0,0.37,0.06,0.54,0.16
				c0.19,0.05,0.33,0.22,0.49,0.48l1.91,2.87c0.05,0.11,0.1,0.19,0.14,0.32c0.06,0.13,0.1,0.19,0.1,0.27c0,0.26-0.1,0.48-0.25,0.65
				c-0.16,0.17-0.33,0.29-0.53,0.41c-0.91,0.64-1.96,1.16-3.04,1.55c-1.12,0.39-2.28,0.58-3.52,0.58c-1.05,0-2.01-0.1-2.97-0.39
				c-0.95-0.23-1.78-0.61-2.62-1.12c-0.83-0.45-1.59-1.03-2.22-1.72c-0.71-0.66-1.3-1.4-1.74-2.23c-0.51-0.86-0.86-1.71-1.12-2.66
				c-0.28-0.96-0.39-1.98-0.39-3.03c0-1.02,0.11-2.04,0.39-3.01c0.25-0.96,0.61-1.82,1.12-2.66c0.44-0.85,1.03-1.57,1.74-2.23
				c0.63-0.71,1.39-1.27,2.22-1.74c0.84-0.5,1.68-0.85,2.62-1.12c0.96-0.24,1.92-0.38,2.97-0.38c1.24,0,2.38,0.17,3.4,0.51
				c1.08,0.31,2.06,0.82,2.96,1.44l-0.07-0.04c0.28,0.15,0.49,0.33,0.61,0.54c0.12,0.19,0.22,0.42,0.22,0.71
				c0,0.22-0.08,0.44-0.19,0.64l-1.52,2.54c-0.33,0.57-0.72,0.84-1.16,0.84c-0.12,0-0.22-0.04-0.35-0.07
				c-0.17-0.03-0.35-0.17-0.53-0.26c-0.48-0.34-1.01-0.59-1.56-0.82c-0.6-0.2-1.2-0.3-1.88-0.3c-0.69,0-1.37,0.13-1.95,0.42
				c-0.59,0.32-1.13,0.7-1.53,1.17c-0.4,0.53-0.77,1.1-0.99,1.72c-0.23,0.69-0.37,1.37-0.37,2.09c0,0.77,0.15,1.45,0.37,2.1
				c0.22,0.64,0.58,1.22,0.99,1.71c0.4,0.45,0.94,0.82,1.53,1.13c0.58,0.25,1.26,0.4,1.95,0.4c0.67,0,1.28-0.14,1.86-0.36
				C534.72,493.29,535.26,492.97,535.75,492.66z"/>
			<path class="st0" d="M549.44,480c0.22-0.33,0.49-0.66,0.79-0.96c0.29-0.33,0.66-0.58,1.06-0.83c0.41-0.26,0.91-0.46,1.42-0.62
				c0.52-0.13,1.11-0.21,1.82-0.21c1.28,0,2.43,0.24,3.45,0.75c0.98,0.51,1.87,1.17,2.54,2.02c0.74,0.86,1.29,1.86,1.64,3.02
				c0.38,1.12,0.56,2.39,0.56,3.68v11.1c0,0.46-0.11,0.77-0.3,0.97c-0.18,0.25-0.46,0.33-0.89,0.33h-3.91
				c-0.48,0-0.79-0.05-0.98-0.22c-0.18-0.17-0.31-0.5-0.31-0.96v-11.23c0-0.48-0.07-0.92-0.26-1.39c-0.19-0.41-0.44-0.78-0.76-1.06
				c-0.33-0.32-0.71-0.54-1.13-0.72c-0.41-0.18-0.86-0.3-1.36-0.3c-0.39,0-0.78,0.11-1.16,0.29c-0.39,0.16-0.76,0.38-1.08,0.65
				c-0.28,0.33-0.55,0.69-0.79,1.12c-0.21,0.39-0.31,0.87-0.35,1.36v11.23c0,0.2-0.03,0.4-0.09,0.6c-0.09,0.17-0.19,0.3-0.36,0.43
				c-0.14,0.06-0.25,0.16-0.39,0.19c-0.14,0.01-0.29,0.02-0.44,0.02h-3.85c-0.51,0-0.85-0.1-1.08-0.35c-0.19-0.23-0.3-0.56-0.3-0.96
				v-13.8v-0.12v-5.05v-0.09v-6.3c0-0.39,0.11-0.68,0.3-0.96c0.23-0.21,0.58-0.32,1.08-0.32h3.85c0.25,0,0.52,0.09,0.83,0.28
				c0.18,0.06,0.28,0.22,0.36,0.41c0.06,0.19,0.09,0.38,0.09,0.57V480z"/>
			<path class="st0" d="M567.05,494.41c0-0.26,0.07-0.44,0.18-0.56c0.16-0.16,0.35-0.21,0.57-0.21h4.51c0.2,0,0.38,0.05,0.53,0.21
				c0.16,0.12,0.25,0.3,0.25,0.56v4.08c0,0.2-0.08,0.39-0.2,0.56c-0.12,0.17-0.31,0.21-0.59,0.21h-4.51c-0.5,0-0.75-0.23-0.75-0.77
				V494.41z"/>
			<path class="st0" d="M591,492.66c0.15-0.14,0.28-0.19,0.42-0.24c0.15-0.05,0.24-0.06,0.35-0.06c0.18,0,0.37,0.06,0.51,0.16
				c0.15,0.05,0.3,0.22,0.48,0.48l1.92,2.87c0.04,0.11,0.12,0.19,0.17,0.32c0.03,0.13,0.04,0.19,0.04,0.27
				c0,0.26-0.05,0.48-0.22,0.65c-0.18,0.17-0.37,0.29-0.56,0.41c-0.92,0.64-1.93,1.16-3.05,1.55c-1.08,0.39-2.27,0.58-3.49,0.58
				c-1.01,0-2-0.1-2.95-0.39c-0.94-0.23-1.84-0.61-2.64-1.12c-0.8-0.45-1.56-1.03-2.26-1.72c-0.65-0.66-1.23-1.4-1.74-2.23
				c-0.44-0.86-0.81-1.71-1.11-2.66c-0.26-0.96-0.39-1.98-0.39-3.03c0-1.02,0.13-2.04,0.39-3.01c0.3-0.96,0.66-1.82,1.11-2.66
				c0.5-0.85,1.09-1.57,1.74-2.23c0.7-0.71,1.46-1.27,2.26-1.74c0.8-0.5,1.71-0.85,2.64-1.12c0.94-0.24,1.93-0.38,2.95-0.38
				c1.22,0,2.36,0.17,3.43,0.51c1.02,0.31,2.02,0.82,2.91,1.44l-0.02-0.04c0.23,0.15,0.44,0.33,0.6,0.54
				c0.16,0.19,0.19,0.42,0.19,0.71c0,0.22-0.03,0.44-0.18,0.64l-1.53,2.54c-0.29,0.57-0.68,0.84-1.15,0.84
				c-0.07,0-0.21-0.04-0.36-0.07c-0.14-0.03-0.29-0.17-0.46-0.26c-0.54-0.34-1.08-0.59-1.63-0.82c-0.59-0.2-1.21-0.3-1.82-0.3
				c-0.74,0-1.36,0.13-1.98,0.42c-0.61,0.32-1.1,0.7-1.53,1.17c-0.44,0.53-0.75,1.1-1.01,1.72c-0.24,0.69-0.35,1.37-0.35,2.09
				c0,0.77,0.11,1.45,0.35,2.1c0.27,0.64,0.57,1.22,1.01,1.71c0.43,0.45,0.92,0.82,1.53,1.13c0.61,0.25,1.24,0.4,1.98,0.4
				c0.61,0,1.23-0.14,1.8-0.36C589.91,493.29,590.46,492.97,591,492.66z"/>
			<path class="st0" d="M596.77,488.5c0-1.02,0.14-2.04,0.39-3.01c0.25-0.96,0.62-1.82,1.14-2.66c0.44-0.85,1.03-1.57,1.72-2.23
				c0.64-0.71,1.4-1.27,2.24-1.74c0.83-0.5,1.73-0.85,2.69-1.12c0.95-0.24,1.95-0.38,2.98-0.38c1.54,0,3,0.29,4.36,0.84
				c1.36,0.59,2.52,1.38,3.51,2.39c1.01,0.98,1.81,2.15,2.38,3.5c0.59,1.34,0.88,2.84,0.88,4.39c0,1.06-0.15,2.07-0.4,3.03
				c-0.26,0.95-0.64,1.8-1.13,2.66c-0.47,0.83-1.03,1.57-1.73,2.23c-0.67,0.7-1.4,1.27-2.25,1.72c-0.82,0.51-1.71,0.89-2.65,1.12
				c-0.94,0.29-1.93,0.39-2.97,0.39c-1.03,0-2.03-0.1-2.98-0.39c-0.96-0.23-1.85-0.61-2.69-1.12c-0.84-0.45-1.6-1.03-2.24-1.72
				c-0.7-0.66-1.28-1.4-1.72-2.23c-0.52-0.86-0.89-1.71-1.14-2.66C596.91,490.58,596.77,489.56,596.77,488.5z M602.95,488.5
				c0,0.77,0.14,1.45,0.37,2.1c0.2,0.64,0.56,1.22,0.97,1.71c0.42,0.45,0.96,0.82,1.53,1.13c0.61,0.25,1.32,0.4,2.08,0.4
				c0.75,0,1.37-0.16,1.97-0.4c0.59-0.32,1.11-0.68,1.51-1.13c0.41-0.5,0.75-1.08,0.96-1.71c0.21-0.65,0.34-1.33,0.34-2.1
				c0-0.73-0.14-1.4-0.34-2.09c-0.21-0.62-0.55-1.19-0.96-1.72c-0.4-0.47-0.93-0.85-1.51-1.17c-0.6-0.28-1.23-0.42-1.97-0.42
				c-0.76,0-1.47,0.13-2.08,0.42c-0.57,0.32-1.11,0.7-1.53,1.17c-0.41,0.53-0.77,1.1-0.97,1.72
				C603.09,487.1,602.95,487.77,602.95,488.5z"/>
			<path class="st0" d="M622.89,478.01c0.15-0.11,0.3-0.22,0.45-0.26c0.15-0.01,0.33-0.02,0.48-0.02h2.55c0.2,0,0.39,0.01,0.54,0.09
				c0.16,0.08,0.25,0.17,0.37,0.3c0.09,0.12,0.19,0.24,0.23,0.4c0.06,0.18,0.14,0.35,0.18,0.52l0.54,2.16
				c0.17-0.37,0.38-0.77,0.61-1.19c0.22-0.45,0.56-0.86,0.96-1.27c0.39-0.38,0.92-0.68,1.52-0.99c0.59-0.23,1.36-0.38,2.28-0.38
				c1.42,0,2.71,0.34,3.79,0.94c1.07,0.59,1.98,1.44,2.69,2.48c0.21-0.35,0.49-0.74,0.86-1.13c0.38-0.4,0.82-0.78,1.34-1.14
				c0.54-0.31,1.13-0.6,1.81-0.8c0.67-0.22,1.42-0.35,2.22-0.35c1.31,0,2.45,0.24,3.45,0.75c1.01,0.51,1.89,1.17,2.59,2.02
				c0.7,0.86,1.25,1.86,1.62,3.02c0.38,1.12,0.56,2.39,0.56,3.68v11.1c0,0.46-0.11,0.77-0.3,0.97c-0.18,0.25-0.46,0.33-0.86,0.33
				h-3.96c-0.46,0-0.8-0.05-0.98-0.22c-0.18-0.17-0.26-0.5-0.26-0.96v-11.23c0-0.48-0.09-0.92-0.23-1.39
				c-0.14-0.41-0.37-0.78-0.65-1.06c-0.25-0.32-0.59-0.54-0.98-0.72c-0.39-0.18-0.82-0.3-1.32-0.3c-0.41,0-0.81,0.11-1.19,0.29
				c-0.39,0.17-0.74,0.39-1.03,0.67c-0.29,0.31-0.52,0.68-0.7,1.1c-0.18,0.42-0.27,0.91-0.27,1.41v11.1c0,0.46-0.09,0.77-0.27,0.97
				c-0.19,0.25-0.48,0.33-0.91,0.33h-0.34h-0.13h-3.43c-0.5,0-0.82-0.05-1-0.22c-0.18-0.17-0.28-0.5-0.28-0.96v-11.23
				c0-0.48-0.07-0.92-0.22-1.39c-0.13-0.41-0.34-0.78-0.59-1.06c-0.27-0.32-0.59-0.54-0.97-0.72c-0.38-0.18-0.8-0.3-1.3-0.3
				c-0.42,0-0.81,0.11-1.19,0.29c-0.38,0.16-0.76,0.38-1.04,0.65c-0.31,0.33-0.58,0.69-0.78,1.12c-0.23,0.39-0.32,0.87-0.37,1.36
				v11.23c0,0.2-0.05,0.4-0.11,0.6c-0.07,0.17-0.19,0.3-0.34,0.43c-0.13,0.06-0.27,0.16-0.43,0.19c-0.12,0.01-0.25,0.02-0.43,0.02
				h-3.84c-0.51,0-0.85-0.1-1.07-0.35c-0.21-0.23-0.3-0.56-0.3-0.96v-18.97c0-0.24,0.04-0.45,0.13-0.61c0.1-0.16,0.23-0.3,0.39-0.42
				L622.89,478.01z"/>
		</g>
	</g>
</g>
</svg>
