<?xml version="1.0" encoding="utf-8"?>
<!-- Generator: Adobe Illustrator 14.0.0, SVG Export Plug-In . SVG Version: 6.00 Build 43363)  -->
<!DOCTYPE svg PUBLIC "-//W3C//DTD SVG 1.1//EN" "http://www.w3.org/Graphics/SVG/1.1/DTD/svg11.dtd">
<svg version="1.1" id="Layer_1" xmlns="http://www.w3.org/2000/svg" xmlns:xlink="http://www.w3.org/1999/xlink" x="0px" y="0px"
	 width="304px" height="168px" viewBox="0 0 304 168" enable-background="new 0 0 304 168" xml:space="preserve">
<rect x="-22.5" y="-16" width="348" height="199"/>
<g>
	<defs>
		<rect id="SVGID_1_" x="17.29" y="89.57" width="235.46" height="64.23"/>
	</defs>
	<clipPath id="SVGID_2_">
		<use xlink:href="#SVGID_1_"  overflow="visible"/>
	</clipPath>
	
		<linearGradient id="SVGID_3_" gradientUnits="userSpaceOnUse" x1="-22.5029" y1="182.9971" x2="-21.5029" y2="182.9971" gradientTransform="matrix(0 -64.2344 -64.2344 0 11889.752 -1291.6216)">
		<stop  offset="0" style="stop-color:#D1D3D4"/>
		<stop  offset="1" style="stop-color:#FFFFFF"/>
	</linearGradient>
	<rect x="17.29" y="89.57" clip-path="url(#SVGID_2_)" fill="url(#SVGID_3_)" width="235.46" height="64.23"/>
</g>
<g>
	<defs>
		<path id="SVGID_4_" d="M214.12,65.95c0-5.19,2.56-12.48,6.79-16.52l14.53,22.15c0,0-3.33,6.98-10.76,6.98
			C217.25,78.56,214.12,71.13,214.12,65.95 M217.93,26.38c0-6.15,3.71-8.96,6.53-8.96c2.82,0,5.76,2.18,5.76,7.3
			c0,5.12-4.74,11.4-7.94,13.83C222.29,38.55,217.93,32.53,217.93,26.38 M211.34,27.34c0,8.2,5.76,16.58,5.76,16.58
			c-6.27,6.47-9.86,14.34-9.86,23.62c0,9.28,6.02,17.73,16.65,17.73c10.63,0,15.04-7.87,15.04-7.87l3.84,5.83h8.71l-8.77-13.38
			c3.39-7.3,3.52-15.3,3.52-17.73v-4.48h-6.66v9.99c0,2.24-1.09,5.76-1.09,5.76l-12.68-19.46c7.11-6.85,10.76-12.1,10.76-20.04
			c0-7.94-4.87-13-12.04-13C217.36,10.89,211.34,19.15,211.34,27.34"/>
	</defs>
	<clipPath id="SVGID_5_">
		<use xlink:href="#SVGID_4_"  overflow="visible"/>
	</clipPath>
	
		<linearGradient id="SVGID_6_" gradientUnits="userSpaceOnUse" x1="-22.499" y1="183.002" x2="-21.499" y2="183.002" gradientTransform="matrix(0 -73.7066 -73.7066 0 13717.7295 -1583.2223)">
		<stop  offset="0" style="stop-color:#D1D3D4"/>
		<stop  offset="1" style="stop-color:#FFFFFF"/>
	</linearGradient>
	<rect x="207.24" y="10.89" clip-path="url(#SVGID_5_)" fill="url(#SVGID_6_)" width="44.24" height="74.39"/>
</g>
<g>
	<defs>
		<rect id="SVGID_7_" x="-22.5" y="-16" width="348" height="199"/>
	</defs>
	<clipPath id="SVGID_8_">
		<use xlink:href="#SVGID_7_"  overflow="visible"/>
	</clipPath>
	<polygon clip-path="url(#SVGID_8_)" points="23.57,95.6 50.5,95.6 50.5,109 36.6,109 36.6,116.61 49.55,116.61 49.55,129.77 
		36.6,129.77 36.6,148.18 23.57,148.18 	"/>
	<polygon clip-path="url(#SVGID_8_)" points="70.65,95.6 100.78,95.6 100.78,109.87 92.24,109.89 92.24,148.18 79.19,148.18 
		79.19,109.89 70.65,109.87 	"/>
	<path clip-path="url(#SVGID_8_)" d="M104.08,95.6h12.99l13.38,23.13l-0.02-23.13h14.09v52.58H131.2l-12.89-24.67
		c0.09,7.6-0.01,24.67-0.01,24.67h-14.21V95.6z"/>
	<polygon clip-path="url(#SVGID_8_)" points="149.93,95.6 176.44,95.6 176.44,109.83 162.95,109.83 162.95,114.98 175.39,114.98 
		175.39,128.65 162.95,128.65 162.95,133.81 176.86,133.81 176.86,148.18 149.93,148.18 	"/>
	<rect x="54.24" y="95.6" clip-path="url(#SVGID_8_)" width="13.05" height="52.58"/>
	<path clip-path="url(#SVGID_8_)" d="M217.63,131.27l0.8,0.64c4.23,2.52,6.74,4.25,10.54,4.3c1.41,0.02,4.81-0.19,4.81-2.95
		c0-2.37-1.56-3.35-4.09-4.02l-3.84-1.27c-6.49-1.84-10.49-7.19-10.49-15.42c0-12.48,8.4-17.28,16.97-17.28
		c4.5,0,10.93,1.72,14.81,4.86l-2.98,11.41c-2.46-2.23-6.77-3.77-9.85-3.78c-3.17-0.01-4.49,1.33-4.49,3.49
		c0,1.95,2.99,2.87,4.09,3.22l3.56,0.72c6.07,1.81,10.84,6.9,10.84,15.83c0,12.55-8.96,17.61-17.49,17.61
		c-4.97,0-11.23-2.45-16.45-6.99L217.63,131.27z"/>
	<path clip-path="url(#SVGID_8_)" d="M182.42,131.27l0.8,0.64c4.23,2.52,6.74,4.25,10.54,4.3c1.41,0.02,4.81-0.19,4.81-2.95
		c0-2.37-1.56-3.35-4.09-4.02l-3.84-1.27c-6.49-1.84-10.49-7.19-10.49-15.42c0-12.48,8.4-17.28,16.97-17.28
		c4.5,0,10.93,1.72,14.8,4.86l-2.97,11.41c-2.46-2.23-6.77-3.77-9.85-3.78c-3.18-0.01-4.49,1.33-4.49,3.49
		c0,1.95,2.99,2.87,4.09,3.22l3.56,0.72c6.07,1.81,10.84,6.9,10.84,15.83c0,12.55-8.96,17.61-17.49,17.61
		c-4.97,0-11.23-2.45-16.45-6.99L182.42,131.27z"/>
</g>
<g>
	<defs>
		<path id="SVGID_9_" d="M175.4,24.48h5.19v45.78h-5.19V24.48z M166.47,10.39l-9.85,9.85v27.12v26.89l9.85,9.85h22.94l9.85-9.85
			V47.37V20.25l-9.85-9.85H166.47z"/>
	</defs>
	<clipPath id="SVGID_10_">
		<use xlink:href="#SVGID_9_"  overflow="visible"/>
	</clipPath>
	
		<linearGradient id="SVGID_11_" gradientUnits="userSpaceOnUse" x1="-22.4971" y1="183.0029" x2="-21.4971" y2="183.0029" gradientTransform="matrix(0 -73.7158 -73.7158 0 13668.127 -1574.3239)">
		<stop  offset="0" style="stop-color:#AE1B1F"/>
		<stop  offset="1" style="stop-color:#ED1C24"/>
	</linearGradient>
	<rect x="156.62" y="10.39" clip-path="url(#SVGID_10_)" fill="url(#SVGID_11_)" width="42.65" height="73.72"/>
</g>
<g>
	<defs>
		<path id="SVGID_12_" d="M128.62,24.48h5.19v45.78h-5.19V24.48z M110.52,10.39v73.72h32.1l9.85-9.85V47.37V20.25l-9.85-9.85H110.52
			z"/>
	</defs>
	<clipPath id="SVGID_13_">
		<use xlink:href="#SVGID_12_"  overflow="visible"/>
	</clipPath>
	
		<linearGradient id="SVGID_14_" gradientUnits="userSpaceOnUse" x1="-22.4971" y1="183.0059" x2="-21.4971" y2="183.0059" gradientTransform="matrix(0 -73.7158 -73.7158 0 13621.8145 -1574.3239)">
		<stop  offset="0" style="stop-color:#AE1B1F"/>
		<stop  offset="1" style="stop-color:#ED1C24"/>
	</linearGradient>
	<rect x="110.52" y="10.39" clip-path="url(#SVGID_13_)" fill="url(#SVGID_14_)" width="41.96" height="73.72"/>
</g>
<g>
	<defs>
		<polygon id="SVGID_15_" points="96.27,10.39 87.45,10.39 87.45,70.26 82.26,70.26 82.26,10.39 73.32,10.39 63.47,10.39 
			63.47,47.37 63.47,74.26 73.32,84.11 84.8,84.11 96.27,84.11 106.12,74.26 106.12,47.37 106.12,10.39 		"/>
	</defs>
	<clipPath id="SVGID_16_">
		<use xlink:href="#SVGID_15_"  overflow="visible"/>
	</clipPath>
	
		<linearGradient id="SVGID_17_" gradientUnits="userSpaceOnUse" x1="-22.4971" y1="183.0029" x2="-21.4971" y2="183.0029" gradientTransform="matrix(0 -73.7158 -73.7158 0 13575.002 -1574.3239)">
		<stop  offset="0" style="stop-color:#AE1B1F"/>
		<stop  offset="1" style="stop-color:#ED1C24"/>
	</linearGradient>
	<rect x="63.47" y="10.39" clip-path="url(#SVGID_16_)" fill="url(#SVGID_17_)" width="42.65" height="73.72"/>
</g>
<g>
	<defs>
		<path id="SVGID_18_" d="M35.57,53.8h5.19v16.46h-5.19V53.8z M35.57,24.13h5.19v16.46h-5.19V24.13z M17.82,10.39v73.72h31.76
			l9.85-9.85v-19.7l-9.22-7.19l7.82-7.19V20.25l-9.85-9.85H17.82z"/>
	</defs>
	<clipPath id="SVGID_19_">
		<use xlink:href="#SVGID_18_"  overflow="visible"/>
	</clipPath>
	
		<linearGradient id="SVGID_20_" gradientUnits="userSpaceOnUse" x1="-22.4971" y1="183.0029" x2="-21.4971" y2="183.0029" gradientTransform="matrix(0 -73.7158 -73.7158 0 13528.8145 -1574.3239)">
		<stop  offset="0" style="stop-color:#AE1B1F"/>
		<stop  offset="1" style="stop-color:#ED1C24"/>
	</linearGradient>
	<rect x="17.82" y="10.39" clip-path="url(#SVGID_19_)" fill="url(#SVGID_20_)" width="41.61" height="73.72"/>
</g>
<g>
	<defs>
		<rect id="SVGID_21_" x="-22.5" y="-16" width="348" height="199"/>
	</defs>
	<clipPath id="SVGID_22_">
		<use xlink:href="#SVGID_21_"  overflow="visible"/>
	</clipPath>
	<path clip-path="url(#SVGID_22_)" fill="#EB2227" d="M259.64,76.59"/>
	<path clip-path="url(#SVGID_22_)" fill="none" stroke="#000000" stroke-width="1.024" d="M259.64,76.59"/>
	<path clip-path="url(#SVGID_22_)" fill="#EB2227" d="M259.64,86.36"/>
	<path clip-path="url(#SVGID_22_)" fill="none" stroke="#000000" stroke-width="1.024" d="M259.64,86.36"/>
	<path clip-path="url(#SVGID_22_)" fill="#EB2227" d="M259.64,130.68"/>
	<path clip-path="url(#SVGID_22_)" fill="none" stroke="#000000" stroke-width="1.024" d="M259.64,130.68"/>
</g>
<g>
	<defs>
		<path id="SVGID_23_" d="M270.49,12.23c-1.11,1.17-2,2.75-2.95,4.56c-0.28,0.59-0.56,1.13-0.89,1.53
			c-0.34,0.45-0.74,0.72-1.29,0.72c-1.02,0-1.54-1.45-1.53-2.71c0-2.35,1.29-4.56,2.59-5.83l-7.25-0.01
			c-0.62,2.17-0.96,4.56-0.96,6.91c-0.01,6.41,3.43,10.84,7.73,10.85c1.75,0,2.98-0.58,4.03-1.67c1.04-1.04,1.91-2.57,2.83-4.51
			c0.27-0.5,0.58-1.17,0.95-1.67c0.37-0.5,0.8-0.9,1.29-0.9c0.89,0,1.41,1.31,1.41,2.4c0,2.12-1.33,4.33-2.49,5.42l7.04,0.01
			c0.71-1.94,1.17-4.34,1.17-6.55c0.01-7.86-4.91-10.4-7.61-10.4C272.86,10.38,271.56,11.1,270.49,12.23"/>
	</defs>
	<clipPath id="SVGID_24_">
		<use xlink:href="#SVGID_23_"  overflow="visible"/>
	</clipPath>
	
		<linearGradient id="SVGID_25_" gradientUnits="userSpaceOnUse" x1="-22.502" y1="182.998" x2="-21.502" y2="182.998" gradientTransform="matrix(0 -154.6381 -154.6381 0 28568.7246 -3314.885)">
		<stop  offset="0" style="stop-color:#AE1B1F"/>
		<stop  offset="1" style="stop-color:#ED1C24"/>
	</linearGradient>
	<rect x="258.18" y="10.38" clip-path="url(#SVGID_24_)" fill="url(#SVGID_25_)" width="23.98" height="17.88"/>
</g>
<g>
	<defs>
		<polygon id="SVGID_26_" points="276.09,36.65 258.57,36.63 258.56,45.85 276.08,45.86 276.07,51.15 281.72,51.15 281.75,31.6 
			276.09,31.59 		"/>
	</defs>
	<clipPath id="SVGID_27_">
		<use xlink:href="#SVGID_26_"  overflow="visible"/>
	</clipPath>
	
		<linearGradient id="SVGID_28_" gradientUnits="userSpaceOnUse" x1="-22.4995" y1="183.001" x2="-21.4995" y2="183.001" gradientTransform="matrix(0 -154.638 -154.638 0 28569.0918 -3314.0239)">
		<stop  offset="0" style="stop-color:#AE1B1F"/>
		<stop  offset="1" style="stop-color:#ED1C24"/>
	</linearGradient>
	<rect x="258.56" y="31.59" clip-path="url(#SVGID_27_)" fill="url(#SVGID_28_)" width="23.18" height="19.56"/>
</g>
<g>
	<defs>
		<path id="SVGID_29_" d="M270.12,70.29c-1.44,0-6.15-0.14-6.14-3.62c0.01-3.48,4.71-3.61,6.15-3.61c1.44,0,6.14,0.14,6.14,3.62
			c0,3.47-4.67,3.61-6.13,3.61C270.13,70.29,270.13,70.29,270.12,70.29 M258.14,66.66c-0.01,9.35,6.32,13.02,11.97,13.02
			c5.65,0.01,11.99-3.65,12-13c0.01-9.35-6.32-13.02-11.97-13.02c0,0-0.01,0-0.01,0C264.47,53.67,258.15,57.32,258.14,66.66"/>
	</defs>
	<clipPath id="SVGID_30_">
		<use xlink:href="#SVGID_29_"  overflow="visible"/>
	</clipPath>
	
		<linearGradient id="SVGID_31_" gradientUnits="userSpaceOnUse" x1="-22.499" y1="183" x2="-21.499" y2="183" gradientTransform="matrix(0 -154.6379 -154.6379 0 28568.834 -3314.29)">
		<stop  offset="0" style="stop-color:#AE1B1F"/>
		<stop  offset="1" style="stop-color:#ED1C24"/>
	</linearGradient>
	<rect x="258.13" y="53.67" clip-path="url(#SVGID_30_)" fill="url(#SVGID_31_)" width="23.99" height="26.02"/>
</g>
<g>
	<defs>
		<path id="SVGID_32_" d="M270.96,94.34l0.03-0.59l5.72,0.01c0.09,2.53-0.77,4.34-2.8,4.33C272.4,98.09,270.96,96.78,270.96,94.34
			 M258.51,93.74l6.18,0.01c1.14,0,2.27-0.09,3.41-0.13l0.06,0.09l-9.65,5.09l-0.01,9.98l9.66-6.86c0.98,3.66,3.25,5.29,5.8,5.29
			c6.12,0.01,7.72-5.77,7.73-13.77l0.01-8.9l-23.17-0.02L258.51,93.74z"/>
	</defs>
	<clipPath id="SVGID_33_">
		<use xlink:href="#SVGID_32_"  overflow="visible"/>
	</clipPath>
	
		<linearGradient id="SVGID_34_" gradientUnits="userSpaceOnUse" x1="-22.499" y1="183" x2="-21.499" y2="183" gradientTransform="matrix(0 -154.6379 -154.6379 0 28568.834 -3314.29)">
		<stop  offset="0" style="stop-color:#AE1B1F"/>
		<stop  offset="1" style="stop-color:#ED1C24"/>
	</linearGradient>
	<rect x="258.5" y="84.53" clip-path="url(#SVGID_33_)" fill="url(#SVGID_34_)" width="23.19" height="24.25"/>
</g>
<g>
	<defs>
		<polygon id="SVGID_35_" points="258.48,129.92 263.95,129.92 263.96,122.02 267.49,122.02 267.48,129.11 272.95,129.12 
			272.96,122.03 276.19,122.03 276.18,129.94 281.65,129.94 281.67,112.82 258.49,112.8 		"/>
	</defs>
	<clipPath id="SVGID_36_">
		<use xlink:href="#SVGID_35_"  overflow="visible"/>
	</clipPath>
	
		<linearGradient id="SVGID_37_" gradientUnits="userSpaceOnUse" x1="-22.498" y1="183.0039" x2="-21.498" y2="183.0039" gradientTransform="matrix(0 -154.6379 -154.6379 0 28569.334 -3313.665)">
		<stop  offset="0" style="stop-color:#AE1B1F"/>
		<stop  offset="1" style="stop-color:#ED1C24"/>
	</linearGradient>
	<rect x="258.48" y="112.8" clip-path="url(#SVGID_36_)" fill="url(#SVGID_37_)" width="23.19" height="17.14"/>
</g>
<g>
	<defs>
		<path id="SVGID_38_" d="M270.36,137.06c-1.11,1.17-2,2.75-2.96,4.56c-0.28,0.59-0.55,1.13-0.89,1.54
			c-0.34,0.45-0.74,0.72-1.29,0.72c-1.01,0-1.53-1.45-1.53-2.71c0-2.35,1.29-4.56,2.59-5.83l-7.25-0.01
			c-0.62,2.17-0.96,4.56-0.96,6.91c-0.01,6.41,3.43,10.84,7.73,10.85c1.75,0,2.98-0.58,4.03-1.67c1.05-1.04,1.91-2.57,2.83-4.51
			c0.28-0.5,0.58-1.17,0.95-1.67c0.37-0.5,0.8-0.9,1.29-0.9c0.89,0,1.41,1.31,1.41,2.4c0,2.12-1.32,4.33-2.49,5.42l7.04,0.01
			c0.71-1.94,1.17-4.33,1.17-6.55c0.01-7.86-4.91-10.4-7.61-10.4C272.73,135.21,271.44,135.93,270.36,137.06"/>
	</defs>
	<clipPath id="SVGID_39_">
		<use xlink:href="#SVGID_38_"  overflow="visible"/>
	</clipPath>
	
		<linearGradient id="SVGID_40_" gradientUnits="userSpaceOnUse" x1="-22.5015" y1="183" x2="-21.5015" y2="183" gradientTransform="matrix(0 -154.6381 -154.6381 0 28568.7246 -3314.135)">
		<stop  offset="0" style="stop-color:#AE1B1F"/>
		<stop  offset="1" style="stop-color:#ED1C24"/>
	</linearGradient>
	<rect x="258.06" y="135.21" clip-path="url(#SVGID_39_)" fill="url(#SVGID_40_)" width="23.98" height="17.88"/>
</g>
<g>
	<defs>
		<rect id="SVGID_41_" x="-22.5" y="-16" width="348" height="199"/>
	</defs>
	<clipPath id="SVGID_42_">
		<use xlink:href="#SVGID_41_"  overflow="visible"/>
	</clipPath>
	<path clip-path="url(#SVGID_42_)" fill="#939598" d="M291.49,6.68c3.21,0,5.45,2.14,5.45,5.37c0,3.21-2.24,5.48-5.45,5.48
		c-3.23,0-5.36-2.2-5.36-5.4C286.13,8.89,288.26,6.68,291.49,6.68 M291.53,5.59c-4.6,0-6.52,3.49-6.52,6.53
		c0,3.08,1.95,6.5,6.52,6.5c3.94,0,6.54-2.93,6.54-6.5C298.06,8.72,295.81,5.59,291.53,5.59 M290.08,12.92h1.31l1.57,2.91h1.63
		l-1.72-3.08c1.24-0.09,1.95-0.63,1.95-2.01c0-1.66-0.92-2.22-2.45-2.27h-3.71v7.36h1.43V12.92z M291.79,9.65
		c1.1,0,1.73,0.16,1.73,1.11c0,0.69-0.46,0.97-1.31,0.97h-2.13V9.65H291.79z"/>
</g>
</svg>
