<?xml version="1.0" encoding="utf-8"?>
<!-- Generator: Adobe Illustrator 14.0.0, SVG Export Plug-In . SVG Version: 6.00 Build 43363)  -->
<!DOCTYPE svg PUBLIC "-//W3C//DTD SVG 1.1//EN" "http://www.w3.org/Graphics/SVG/1.1/DTD/svg11.dtd">
<svg version="1.1" id="Layer_1" xmlns="http://www.w3.org/2000/svg" xmlns:xlink="http://www.w3.org/1999/xlink" x="0px" y="0px"
	 width="426.15px" height="311.09px" viewBox="0 0 426.15 311.09" enable-background="new 0 0 426.15 311.09" xml:space="preserve">
<rect x="274.59" y="276.17" fill="#FFFFFF" width="9.52" height="34.92"/>
<polygon fill="#FFFFFF" points="231.2,289.66 215.07,289.66 215.07,284.04 233.67,284.04 236.55,276.17 211.16,276.17 
	205.55,281.78 205.55,292.21 210.93,297.6 227.06,297.6 227.06,303.22 208.47,303.22 205.58,311.09 231.24,311.09 236.59,305.71 
	236.59,295.05 "/>
<polygon fill="#FFFFFF" points="264.45,289.66 248.32,289.66 248.32,284.04 266.92,284.04 269.8,276.17 244.41,276.17 238.8,281.78 
	238.8,292.21 244.18,297.6 260.31,297.6 260.31,303.22 241.72,303.22 238.83,311.09 264.49,311.09 269.84,305.71 269.84,295.05 "/>
<polygon fill="#FFFFFF" points="298.16,303.22 298.16,284.04 313.97,284.04 316.86,276.17 294.25,276.17 288.64,281.78 
	288.64,305.71 294.02,311.09 316.86,311.09 313.97,303.22 "/>
<polygon fill="#FFFFFF" points="151.65,303.22 151.65,276.17 142.13,276.17 142.13,311.09 167.2,311.09 167.2,303.22 "/>
<path fill="#FFFFFF" d="M195.73,276.17h-19.26l-5.61,5.61v29.31h9.52v-11.79h11.43v11.79h9.53v-29.31L195.73,276.17z M191.81,291.36
	h-11.43v-7.31h11.43V291.36z"/>
<polygon fill="#FFFFFF" points="119.98,303.22 119.98,284.04 135.79,284.04 138.68,276.17 116.07,276.17 110.45,281.78 
	110.45,305.71 115.84,311.09 138.68,311.09 135.79,303.22 "/>
<path fill-rule="evenodd" clip-rule="evenodd" fill="#FFFFFF" d="M188.77,243.24h-17.21v-27.69h17.21V243.24z M136.11,243.24h-17.25
	v-27.69h17.25V243.24z M150.9,211.69l-8.15-8.17h-38.67v51.75h38.67l8.15-8.15V211.69z M27.54,232.63L27.54,232.63h4.51v10.62h-3.06
	H14.79v-10.62H27.54z M27.54,215.55h4.51v2.66l-17.25,7.97v-10.63H27.54z M41.82,229.4l5.01-4.97v-12.75l-8.18-8.17H0v51.75h38.71
	l8.13-8.15v-12.76L41.82,229.4z M84.08,243.35v-39.83h14.81l-0.03,43.6l-8.13,8.15h-30.2l-8.16-8.15l-0.01-43.6h14.79v39.83H84.08z
	 M194.82,203.52l8.77,8.05v35.55l-8.17,8.15h-30.5l-8.18-8.15v-35.43l8.15-8.17H194.82z"/>
<path fill-rule="evenodd" clip-rule="evenodd" fill="#FFFFFF" d="M306.96,243.24h-17.23v-27.69h17.23V243.24z M313.73,203.52
	l8.16,8.17l0.01,35.43l-8.17,8.15H283.2l-8.13-8.15v-35.43l8.14-8.17H313.73z M254.16,228.4v-24.88h6.71l8.18,8.17v43.58h-12.94
	l-19-24.88v24.88h-0.2h-6.56l-8.13-8.15v-43.6h12.95L254.16,228.4z M411.37,243.24H394.1v-27.69h17.27V243.24z M426.15,211.69
	l-8.18-8.17h-38.64v51.75h38.65l8.17-8.15V211.69z M349.7,238.21h-7.94v17.07h-14.84v-51.75h38.71l8.13,8.17v13.92l-7.52,7.23
	l7.52,7.28v15.15h-15.39v-9.17L349.7,238.21z M341.48,233.05l17.32-13.65l0-3.86h-17.31V233.05z"/>
<polygon fill="#FFFFFF" points="153.06,83.79 174.78,61.98 153.2,40.4 124.12,68.88 124.12,113.37 144.75,134.59 166.53,134.64 
	166.54,156.38 187.89,177.78 231.12,177.78 260.87,148.07 239.18,126.38 209.47,156.1 188.05,134.68 196.01,83.21 166.44,113.07 
	153.06,99.78 "/>
<polygon fill="#FFFFFF" points="271.71,93.99 249.99,115.8 271.56,137.38 300.64,108.9 300.64,64.41 280.02,43.17 258.24,43.17 
	258.23,21.4 236.87,0 193.64,0 163.9,29.7 185.59,51.4 215.3,21.68 236.72,43.1 228.76,94.57 258.33,64.71 271.71,78 "/>
</svg>
