<svg id="EEM-Logo-Vit" xmlns="http://www.w3.org/2000/svg" xmlns:xlink="http://www.w3.org/1999/xlink" width="171.365" height="50.315" viewBox="0 0 171.365 50.315">
  <defs>
    <clipPath id="clip-path">
      <rect id="Rectangle_299" data-name="Rectangle 299" width="171.365" height="50.315" fill="#fff"/>
    </clipPath>
  </defs>
  <g id="Group_646" data-name="Group 646" clip-path="url(#clip-path)">
    <path id="Path_452" data-name="Path 452" d="M46.746,24.329c-.007-.409-.237-.473-.492-.152,0,0-2.434,2.872-5.354,2.872s-5.276-2.95-5.276-2.95a.57.57,0,0,0-.93,0s-2.357,2.95-5.281,2.95-5.276-2.95-5.276-2.95a.568.568,0,0,0-.928,0s-2.361,2.95-5.283,2.95-5.276-2.95-5.276-2.95a.57.57,0,0,0-.93,0s-2.356,2.95-5.28,2.95c-2.865,0-5.233-2.842-5.233-2.842-.262-.314-.476-.237-.476.173v5.312a.614.614,0,0,0,.268.4l.13.09a9.571,9.571,0,0,0,5.363,1.467,15.109,15.109,0,0,0,5.1-1.464,1.75,1.75,0,0,1,1.339,0A14.443,14.443,0,0,0,17.9,31.6a15.118,15.118,0,0,0,5.091-1.458,1.707,1.707,0,0,1,1.337.007,15.1,15.1,0,0,0,5.1,1.542,16.529,16.529,0,0,0,5.139-1.476,1.7,1.7,0,0,1,1.335.036,12.881,12.881,0,0,0,5.1,1.4,12.674,12.674,0,0,0,5.115-1.471,1.362,1.362,0,0,0,.639-1.105Z" transform="translate(0.534 17.465)" fill="#fff"/>
    <path id="Path_453" data-name="Path 453" d="M21.9,5.4s.18-.322.286-.554c.225-.544.421-1.013.767-1.736.365-.764.838-1.751,1.18-2.29.227-.371-.064-.487-.223-.487-.126,0-.527.009-.779.023A24.269,24.269,0,0,0,0,24.6,24.083,24.083,0,0,0,4.625,38.484a4.676,4.676,0,0,0,.559.57,1.764,1.764,0,0,0,1.057.331h5c.942,0,.724-.655.369-1a19.557,19.557,0,0,1-6.2-13.805A18.831,18.831,0,0,1,20.457,6.051c.251-.05.3-.055.553-.106A1.273,1.273,0,0,0,21.9,5.4" transform="translate(0 0.243)" fill="#fff"/>
    <path id="Path_454" data-name="Path 454" d="M20.374,1.471a14.678,14.678,0,0,0-4.051,3.243c-.253.35-.1.53.012.561A19.03,19.03,0,0,1,31.416,23.864a18.929,18.929,0,0,1-6.537,14.022c-.3.272-.4.792.241.792l5.442,0a1.836,1.836,0,0,0,1.185-.547A24.257,24.257,0,0,0,36.685,23.89,24.282,24.282,0,0,0,21.734,1.476a1.488,1.488,0,0,0-1.36-.005" transform="translate(11.849 0.952)" fill="#fff"/>
    <path id="Path_455" data-name="Path 455" d="M8.271,27.5c.012.043.05.159.066.2a19.212,19.212,0,0,0,18.688,11.86,1.536,1.536,0,0,0,.2-.01.165.165,0,0,0,.1-.27.587.587,0,0,0-.057-.054,7.642,7.642,0,0,1-3.133-6.468,10.927,10.927,0,0,1,2.394-6.475c1.661-2.068,3.783-3.537,3.783-7.673,0-5.926-5.726-10.563-10.9-10.5A18.006,18.006,0,0,1,22.8,3.709,26.558,26.558,0,0,1,27.06.464c.449-.27.388-.476-.126-.464a18.041,18.041,0,0,0-4.228.565A3.829,3.829,0,0,0,21.167,1.72,24.083,24.083,0,0,0,19.56,4.159a19.669,19.669,0,0,0-1.8,3.986c-3.566.074-7.89,3.076-9.925,7.105-.255.506.262.558.262.558l6.977.005c.52,0,.748.218.693.733l-.1.939c-.061.514-.317.575-.84.575l-7.207.005c-.52,0-.719.092-.8.7a3.926,3.926,0,0,0-.069.932c.01.336.01.584.573.6h7.5a.741.741,0,0,1,.854.738l.033.76c.059.516-.118.74-.637.74l-7.353,0c-.52,0-.722.244-.632.932a7.338,7.338,0,0,0,.182.913c.1.405.743.393.743.393h7.306a.938.938,0,0,1,.972.766l.222.721c.156.494.021.759-.5.759,0,0-7.188-.01-7.3-.007s-.559.083-.44.478" transform="translate(4.943 -0.003)" fill="#fff"/>
    <path id="Path_456" data-name="Path 456" d="M33.6,5.183c0-.4,0-.778.786-.778h7.353c.79,0,.79.376.79.778v1.6c0,.508-.5.525-.691.525H37.329c-.158,0-.4.026-.4.369v2.351c0,.185-.028.411.246.411h3.54c.431,0,.525.255.525.421V12.9c0,.158,0,.447-.452.447H37.216c-.336,0-.291.21-.291.385v3.185c0,.156,0,.262.246.262h5.046c.559,0,.6.314.6.566v1.568c0,.417-.045.786-.788.786H34.389c-.393,0-.786,0-.786-.786Z" transform="translate(24.602 3.222)" fill="#fff"/>
    <path id="Path_457" data-name="Path 457" d="M39.638,16.428c0-.175-.073-.542.359-.542a2.665,2.665,0,0,1,.631.158,9.256,9.256,0,0,0,2.195.359c.918,0,1.32-.421,1.32-.963a1.512,1.512,0,0,0-.823-1.251c-.788-.61-1.691-1.119-2.344-1.749a3.778,3.778,0,0,1-1.32-2.886,3.354,3.354,0,0,1,1.285-2.659,4.835,4.835,0,0,1,2.641-.733,10.267,10.267,0,0,1,2.441.3c.542.158.7.315.764.4a.775.775,0,0,1,.094.447V8.724c0,.158,0,.471-.437.471a3.562,3.562,0,0,1-1.114-.251,3.771,3.771,0,0,0-1.415-.2c-.856,0-.991.48-.991.743a1.238,1.238,0,0,0,.542.892c.088.088,1.034.752,1.33.935l.246.158a13.086,13.086,0,0,1,1.5,1.348,3.917,3.917,0,0,1,.871,2.527c0,2.248-1.7,3.637-4.5,3.637a10.646,10.646,0,0,1-2.4-.288c-.469-.114-.644-.2-.731-.3a.624.624,0,0,1-.14-.5Z" transform="translate(29.017 4.509)" fill="#fff"/>
    <path id="Path_458" data-name="Path 458" d="M53.573,7.632c.359,0,.542.289.294.584L51,11.725a.577.577,0,0,0-.114.27.265.265,0,0,0,.036.149L54,19.246c.265.62.055.849-.274.849H51.518c-.518,0-.681-.518-.856-.953l-1.814-4.436c-.068-.173-.211-.2-.288-.042l-.475.61a.589.589,0,0,0-.158.438v3.752c0,.6-.338.63-.625.63H45.5c-.6,0-.625-.352-.625-.63V5.025c0-.6.338-.62.625-.62h1.8c.6,0,.625.333.625.62v5.834c0,.158.109.236.265.043l2.267-2.938a.73.73,0,0,1,.67-.333Z" transform="translate(32.854 3.222)" fill="#fff"/>
    <path id="Path_459" data-name="Path 459" d="M53.918,6.207c0,.281-.026.622-.632.622H51.494c-.6,0-.631-.341-.631-.622V4.826c0-.281.028-.613.631-.613h1.791c.3,0,.632.019.632.613Zm0,13.4c0,.6-.333.629-.632.629H51.494c-.6,0-.631-.35-.631-.629V8.4c0-.6.345-.627.631-.627h1.791c.3,0,.632.026.632.627Z" transform="translate(37.239 3.082)" fill="#fff"/>
    <path id="Path_460" data-name="Path 460" d="M56.706,19.466c0,.6-.32.629-.632.629H54.283c-.6,0-.622-.35-.622-.629V5.027c0-.6.336-.622.622-.622h1.791c.615,0,.632.333.632.622Z" transform="translate(39.287 3.222)" fill="#fff"/>
    <path id="Path_461" data-name="Path 461" d="M56.2,16.428c0-.175-.071-.542.35-.542a2.767,2.767,0,0,1,.643.158,9.1,9.1,0,0,0,2.182.359c.92,0,1.33-.421,1.33-.963a1.509,1.509,0,0,0-.842-1.251c-.774-.61-1.678-1.119-2.325-1.749A3.774,3.774,0,0,1,56.22,9.554a3.387,3.387,0,0,1,1.27-2.659,4.892,4.892,0,0,1,2.65-.733,10.384,10.384,0,0,1,2.449.3,1.435,1.435,0,0,1,.762.4.775.775,0,0,1,.094.447V8.724c0,.158,0,.471-.435.471a3.558,3.558,0,0,1-1.119-.251,3.8,3.8,0,0,0-1.419-.2c-.838,0-.982.48-.982.743a1.25,1.25,0,0,0,.537.892c.1.088,1.029.752,1.316.935l.256.158a13.039,13.039,0,0,1,1.5,1.348,3.967,3.967,0,0,1,.873,2.527c0,2.248-1.706,3.637-4.505,3.637a10.831,10.831,0,0,1-2.4-.288,1.553,1.553,0,0,1-.743-.3.655.655,0,0,1-.121-.5Z" transform="translate(41.145 4.509)" fill="#fff"/>
    <path id="Path_462" data-name="Path 462" d="M64.7,4.573c.158-.043.5-.149.5.333V7.424c0,.114-.04.3.291.3h.875c.289,0,.629.017.629.62v1.05c0,.6-.339.63-.629.63h-.92a.228.228,0,0,0-.246.253v6.1c0,.778.175,1.181.965,1.181.445,0,.227-.062.676-.062.175,0,.268.158.268.334v1.7c0,.447-.211.648-1.552.648-2.422,0-3.405-.778-3.405-2.912V10.327c0-.3-.222-.3-.293-.3H61.5c-.248,0-.471-.026-.471-.63V8.342c0-.6.223-.62.471-.62h.355a.261.261,0,0,0,.293-.3V5.761a.416.416,0,0,1,.339-.462Z" transform="translate(44.678 3.316)" fill="#fff"/>
    <path id="Path_463" data-name="Path 463" d="M73.392,18.1c0,.6-.333.629-.622.629H70.777a.417.417,0,0,1-.43-.421V18.24c0-.182-.128-.156-.2-.156a.4.4,0,0,0-.158.113,2.765,2.765,0,0,1-1.966.708c-1.374,0-2.868-.821-2.868-3.331V6.9c0-.6.331-.627.62-.627h1.794c.289,0,.629.026.629.627v8.022a1,1,0,0,0,1.05,1.048c1.145,0,1.1-1.136,1.1-1.661V6.9c0-.6.341-.627.622-.627h1.8c.289,0,.622.026.622.627Z" transform="translate(47.701 4.587)" fill="#fff"/>
    <path id="Path_464" data-name="Path 464" d="M70.95,6.974c0-.6.341-.629.632-.629h1.983a.413.413,0,0,1,.43.428v.062c0,.121.04.156.156.156a.246.246,0,0,0,.2-.113,2.761,2.761,0,0,1,1.973-.717c1.374,0,2.87.83,2.87,3.34V18.18c0,.6-.331.629-.632.629H76.775c-.6,0-.631-.352-.631-.629v-8.03A1,1,0,0,0,75.1,9.108c-1.147,0-1.1,1.129-1.1,1.654V18.18c0,.6-.336.629-.632.629H71.582c-.606,0-.632-.352-.632-.629Z" transform="translate(51.945 4.509)" fill="#fff"/>
    <path id="Path_465" data-name="Path 465" d="M84.833,18.022v.268c0,.246-.161.518-.667.518h-1.9c-.367,0-.414-.14-.414-.246,0-.158.021-.272-.184-.272a.271.271,0,0,0-.192.114,3.126,3.126,0,0,1-1.845.579c-1.614,0-3.057-1.233-3.057-3.927,0-3.447,2.536-4.348,4.417-5.056l.57-.21a.347.347,0,0,0,.218-.359c0-.646-.788-.838-1.432-.838a4.994,4.994,0,0,0-1.524.236,7.919,7.919,0,0,1-1.083.322.411.411,0,0,1-.421-.411V7.352c0-.36.229-1.19,3.288-1.19,3.842,0,4.226,1.933,4.226,3.542Zm-3.054-5.449c0-.158-.158-.2-.3-.106l-.386.244a2.322,2.322,0,0,0-1.322,2.162c0,.726.26,1.381.98,1.381a.929.929,0,0,0,1.031-.812Z" transform="translate(56.062 4.509)" fill="#fff"/>
    <path id="Path_466" data-name="Path 466" d="M33.6,18.816c0-.4,0-.778.779-.778h7.362c.781,0,.781.376.781.778v1.6c0,.508-.5.525-.7.525h-4.5c-.158,0-.411.026-.411.369v2.351c0,.185-.029.411.253.411H40.7c.423,0,.516.255.516.421v2.037c0,.158,0,.447-.443.447h-3.56c-.346,0-.3.21-.3.385v3.185c0,.156,0,.262.253.262H42.21c.566,0,.6.314.6.566v1.568c0,.419-.038.786-.788.786H34.382c-.4,0-.779,0-.779-.786Z" transform="translate(24.602 13.204)" fill="#fff"/>
    <path id="Path_467" data-name="Path 467" d="M39.889,20.607c0-.6.341-.629.632-.629h2a.411.411,0,0,1,.421.428v.062c0,.121.031.156.158.156a.251.251,0,0,0,.2-.113,2.747,2.747,0,0,1,1.966-.717c1.374,0,2.877.83,2.877,3.34v8.678c0,.6-.341.629-.639.629H45.723c-.6,0-.631-.352-.631-.629v-8.03a.993.993,0,0,0-1.046-1.041c-1.159,0-1.1,1.129-1.1,1.654v7.417c0,.6-.336.629-.63.629H40.521c-.615,0-.632-.352-.632-.629Z" transform="translate(29.204 14.49)" fill="#fff"/>
    <path id="Path_468" data-name="Path 468" d="M49,27.028a.242.242,0,0,0-.263.279v.708c0,1.775,1.741,1.872,2.2,1.872a8.125,8.125,0,0,0,2.536-.43c.376-.113.559,0,.559.35v1.846c0,.2-.069.34-.43.5a9.629,9.629,0,0,1-2.86.464c-1.756,0-5.046-.464-5.046-4.53v-3.8c0-1.672.436-4.5,4.249-4.5,1.1,0,4.2.184,4.2,4.5v2.115c0,.6-.341.622-.631.622Zm1.862-2.458c.255,0,.229-.156.229-.227v-.49c0-.542-.1-1.6-1.148-1.6-1.161,0-1.206,1.154-1.206,1.6v.49c0,.2.113.227.229.227Z" transform="translate(33.451 14.49)" fill="#fff"/>
    <path id="Path_469" data-name="Path 469" d="M54.582,31.812c0,.6-.333.629-.63.629H52.167c-.611,0-.631-.35-.631-.629V20.607c0-.6.334-.629.631-.629h2.047c.147,0,.4-.026.4.315v.236c0,.175.078.192.106.192a1.6,1.6,0,0,0,.314-.21,2.943,2.943,0,0,1,2-.715c.637,0,.681.253.681.532v2.188c0,.419-.376.445-.542.445h-.419a1.991,1.991,0,0,0-1.479.577,2.857,2.857,0,0,0-.7,1.976v6.3Z" transform="translate(37.732 14.491)" fill="#fff"/>
    <path id="Path_470" data-name="Path 470" d="M63.332,19.98c.307,0,.63.026.63.627v9.769c0,2.4.139,5.389-4.767,5.389-3.331,0-3.3-.488-3.3-.769V33.22a.279.279,0,0,1,.272-.315,13.617,13.617,0,0,0,2.64.367c1.969,0,2.125-.857,2.125-1.46v-.341c0-.043-.024-.061-.061-.087H60.8a3.68,3.68,0,0,1-2.065.689c-2.868,0-3.1-2.841-3.1-4.627V23.993c0-1.555.14-4.2,2.938-4.2a3.223,3.223,0,0,1,2.125.83c.071,0,.2.026.2-.158v-.175c0-.182.059-.314.4-.314Zm-2.4,4.031c0-.438-.061-1.469-1.093-1.469s-1.1,1.031-1.1,1.469v3.849c0,.462.069,1.486,1.1,1.486s1.093-1.024,1.093-1.486Z" transform="translate(40.734 14.491)" fill="#fff"/>
    <path id="Path_471" data-name="Path 471" d="M64.553,19.84c0,.281-.043.622-.656.622H62.113c-.613,0-.629-.341-.629-.622V18.457c0-.279.016-.611.629-.611H63.9c.307,0,.656.017.656.611Zm0,13.4c0,.6-.35.629-.656.629H62.113c-.613,0-.629-.35-.629-.629V22.034c0-.6.348-.629.629-.629H63.9c.307,0,.656.028.656.629Z" transform="translate(45.015 13.063)" fill="#fff"/>
    <path id="Path_472" data-name="Path 472" d="M76.852,25.271c.6,0,.61.341.61.63v.672a13.006,13.006,0,0,1-.121,2.467c-.184.92-.333,1.034-.411,1.549a.592.592,0,0,0,0,.175.668.668,0,0,0,.568.359h.253a.5.5,0,0,1,.516.462v1.829c0,.288-.035.62-.639.62h-.734a2.537,2.537,0,0,1-1.46-.594.614.614,0,0,0-.35-.227.424.424,0,0,0-.255.088,6.181,6.181,0,0,1-3.05.733c-3.577,0-4.611-2.728-4.611-5.344a5.069,5.069,0,0,1,1.872-4.084c.069-.069.21-.147.21-.253,0-.961-.942-.927-.942-2.841,0-2.222,1.46-3.657,3.882-3.657.533,0,3.061.218,3.184.849v1.538c0,.656-.341.7-.49.7a1.824,1.824,0,0,1-.611-.132,3.842,3.842,0,0,0-1.426-.262c-.883,0-1.445.376-1.445,1.1a5.128,5.128,0,0,0,.833,2.534l1.831,3.035c.154.272.293.542.476.542a.126.126,0,0,0,.121-.139V25.9c0-.289.019-.63.615-.63Zm-5.678,2.4c-.184-.288-.288-.447-.322-.447-.166,0-.5.849-.5,1.592,0,1.618.663,2.536,1.819,2.536.445,0,.972-.139.972-.314a1.964,1.964,0,0,0-.123-.314Z" transform="translate(49.176 13.07)" fill="#fff"/>
    <path id="Path_473" data-name="Path 473" d="M80.678,32.941c0,.786-.376.786-.778.786H78.151c-.411,0-.788,0-.788-.786V18.816c0-.4,0-.778.788-.778h1.985a.977.977,0,0,1,.814.533l2.422,4.845c.071.159.151.386.272.386.106,0,.166-.263.244-.359l2.423-4.81a.938.938,0,0,1,.847-.6h1.881c.786,0,.786.376.786.778V32.941c0,.786-.385.786-.786.786H87.29c-.778,0-.778-.385-.778-.786V24.956c0-.08-.036-.135-.087-.135-.028,0-.052.038-.071.055l-1.749,4.216c-.088.237-.255.579-.6.579h-.76c-.255,0-.456-.2-.613-.579l-1.784-4.4c-.035-.1-.166-.043-.166.017Z" transform="translate(56.64 13.204)" fill="#fff"/>
    <path id="Path_474" data-name="Path 474" d="M88.637,19.84c0,.281-.026.622-.631.622H86.223c-.6,0-.63-.341-.63-.622V18.457c0-.279.028-.611.63-.611h1.784c.3,0,.631.017.631.611Zm0,13.4c0,.6-.333.629-.631.629H86.223c-.6,0-.63-.35-.63-.629V22.034c0-.6.34-.629.63-.629h1.784c.3,0,.631.028.631.629Z" transform="translate(62.665 13.063)" fill="#fff"/>
    <path id="Path_475" data-name="Path 475" d="M91.446,33.1c0,.6-.341.629-.631.629H89.022c-.6,0-.637-.35-.637-.629V18.66c0-.6.34-.622.637-.622h1.793c.6,0,.631.333.631.622Z" transform="translate(64.71 13.204)" fill="#fff"/>
    <path id="Path_476" data-name="Path 476" d="M90.41,35.084c0-.158,0-.411.288-.411a1.609,1.609,0,0,1,.35.061,1.512,1.512,0,0,0,.385.069c.359,0,.719-.13.719-.646a2.636,2.636,0,0,0-.175-.779,3.187,3.187,0,0,1-.166-.953V22.034c0-.6.341-.629.629-.629h1.8c.289,0,.622.028.622.629v10.46a3.233,3.233,0,0,0,.192,1.233,3.266,3.266,0,0,1,.279,1.417c0,.611-.217,2.108-3.069,2.108a5.484,5.484,0,0,1-1.557-.192c-.234-.052-.3-.175-.3-.551ZM94.862,19.84c0,.281-.026.622-.622.622h-1.8c-.288,0-.629-.019-.629-.622V18.457c0-.279.026-.611.629-.611h1.8c.289,0,.622.017.622.611Z" transform="translate(66.192 13.063)" fill="#fff"/>
    <path id="Path_477" data-name="Path 477" d="M94.02,25.719c0-1.7.438-4.5,4.251-4.5s4.259,2.8,4.259,4.5v3.811c0,1.706-.447,4.514-4.259,4.514s-4.251-2.808-4.251-4.514Zm3.516-5.879c0,.281-.026.622-.631.622H95.549c-.288,0-.62-.019-.62-.622V18.457c0-.279.017-.611.62-.611h1.356c.289,0,.631.017.631.611Zm-.468,10.216c0,1.162.643,1.486,1.2,1.486s1.216-.324,1.216-1.486V25.209c0-1.162-.656-1.476-1.216-1.476s-1.2.314-1.2,1.476Zm4.569-10.216c0,.281-.026.622-.639.622H99.653c-.288,0-.62-.019-.62-.622V18.457c0-.594.333-.611.62-.611H101c.3,0,.639.017.639.611Z" transform="translate(68.835 13.063)" fill="#fff"/>
  </g>
</svg>
