<svg id="Eskilstuna-Logistik-Logotyp-Vit" xmlns="http://www.w3.org/2000/svg" xmlns:xlink="http://www.w3.org/1999/xlink" width="149.443" height="52.993" viewBox="0 0 149.443 52.993">
  <defs>
    <clipPath id="clip-path">
      <rect id="Rectangle_297" data-name="Rectangle 297" width="149.443" height="52.993" fill="#fff"/>
    </clipPath>
  </defs>
  <g id="Group_642" data-name="Group 642" clip-path="url(#clip-path)">
    <path id="Path_434" data-name="Path 434" d="M260.851,41.415a.556.556,0,0,1-.157.394,1.192,1.192,0,0,1-.537.281,5.321,5.321,0,0,1-1.007.168c-.419.037-.953.056-1.6.054s-1.178-.019-1.6-.059a5.45,5.45,0,0,1-1.008-.168,1.2,1.2,0,0,1-.535-.283.565.565,0,0,1-.157-.4l.043-38.43a.612.612,0,0,1,.159-.4,1.2,1.2,0,0,1,.537-.3A4.959,4.959,0,0,1,256,2.08a18.918,18.918,0,0,1,3.193,0,5.144,5.144,0,0,1,1.007.194,1.2,1.2,0,0,1,.535.3.587.587,0,0,1,.157.4Z" transform="translate(-249.71 0.184)" fill="#fff"/>
    <path id="Path_435" data-name="Path 435" d="M299.692,35.83a.7.7,0,0,1-.157.459,1.134,1.134,0,0,1-.537.325,4.511,4.511,0,0,1-1.007.2,19.607,19.607,0,0,1-3.193,0,4.7,4.7,0,0,1-1.008-.2,1.168,1.168,0,0,1-.535-.329.709.709,0,0,1-.157-.459l.027-23.287a.7.7,0,0,1,.159-.456,1.223,1.223,0,0,1,.537-.341,4.522,4.522,0,0,1,1.007-.221,13.328,13.328,0,0,1,1.6-.076,12.9,12.9,0,0,1,1.6.081,4.423,4.423,0,0,1,1.007.222,1.252,1.252,0,0,1,.537.341.719.719,0,0,1,.156.457Z" transform="translate(-226.883 5.724)" fill="#fff"/>
    <path id="Path_436" data-name="Path 436" d="M285.1,24.055a17.883,17.883,0,0,1-.791,5.441,11.543,11.543,0,0,1-2.386,4.238,10.58,10.58,0,0,1-4.007,2.742,14.973,14.973,0,0,1-5.625.962,15.374,15.374,0,0,1-5.416-.87,9.731,9.731,0,0,1-3.817-2.515,10.3,10.3,0,0,1-2.247-4.06,18.815,18.815,0,0,1-.726-5.5,17.634,17.634,0,0,1,.8-5.454,11.475,11.475,0,0,1,2.4-4.236,10.646,10.646,0,0,1,3.993-2.729,14.909,14.909,0,0,1,5.614-.964,15.7,15.7,0,0,1,5.441.857,9.528,9.528,0,0,1,3.8,2.5,10.411,10.411,0,0,1,2.232,4.058,19.022,19.022,0,0,1,.727,5.52m-6.778.254a17.221,17.221,0,0,0-.27-3.18,7.534,7.534,0,0,0-.927-2.524,4.643,4.643,0,0,0-1.737-1.677,5.6,5.6,0,0,0-2.734-.6,5.775,5.775,0,0,0-2.566.533,4.628,4.628,0,0,0-1.807,1.567,7.528,7.528,0,0,0-1.062,2.485,14.082,14.082,0,0,0-.357,3.31,16.35,16.35,0,0,0,.284,3.179,7.825,7.825,0,0,0,.926,2.526,4.435,4.435,0,0,0,1.739,1.664,5.707,5.707,0,0,0,2.721.592,5.845,5.845,0,0,0,2.59-.533,4.618,4.618,0,0,0,1.807-1.556,7.118,7.118,0,0,0,1.049-2.472,14.518,14.518,0,0,0,.344-3.309" transform="translate(-246.282 5.533)" fill="#fff"/>
    <path id="Path_437" data-name="Path 437" d="M300.129,14.229a4.577,4.577,0,0,1-.289,1.858c-.194.4-.429.6-.708.6l-2.748,0a3.754,3.754,0,0,1,.822,1.427,5.482,5.482,0,0,1,.248,1.662,9.078,9.078,0,0,1-.684,3.622,7.211,7.211,0,0,1-1.953,2.669,8.608,8.608,0,0,1-3.063,1.643,13.261,13.261,0,0,1-3.991.559,8.171,8.171,0,0,1-2.145-.278,5.386,5.386,0,0,1-1.569-.643,3.783,3.783,0,0,0-.564.811,2.215,2.215,0,0,0-.251,1.046,1.481,1.481,0,0,0,.667,1.245,3.418,3.418,0,0,0,1.87.537l5.678.216a13.8,13.8,0,0,1,3.545.567,7.581,7.581,0,0,1,2.613,1.364,5.893,5.893,0,0,1,1.621,2.108,6.687,6.687,0,0,1,.56,2.8,7.251,7.251,0,0,1-.764,3.256,7.383,7.383,0,0,1-2.28,2.653,11.773,11.773,0,0,1-3.809,1.773,19.5,19.5,0,0,1-5.351.649,23.6,23.6,0,0,1-5.09-.478,11.136,11.136,0,0,1-3.452-1.31,5.3,5.3,0,0,1-1.959-2.005,5.365,5.365,0,0,1-.613-2.551,5.932,5.932,0,0,1,.225-1.65,6.1,6.1,0,0,1,.654-1.5,7.8,7.8,0,0,1,1.062-1.373,11.308,11.308,0,0,1,1.44-1.254,4.362,4.362,0,0,1-2.351-3.9,5.692,5.692,0,0,1,.711-2.812,8.979,8.979,0,0,1,1.832-2.288,6.972,6.972,0,0,1-1.462-2.2,8.124,8.124,0,0,1-.545-3.193,8.839,8.839,0,0,1,.722-3.649,7.713,7.713,0,0,1,2.005-2.72,8.852,8.852,0,0,1,3.064-1.7,12.4,12.4,0,0,1,3.925-.584,16.326,16.326,0,0,1,2.107.133,13.909,13.909,0,0,1,1.869.368l7.407.008q.443,0,.718.576a4.841,4.841,0,0,1,.273,1.937m-6.935,24.143a2.041,2.041,0,0,0-.94-1.807,4.921,4.921,0,0,0-2.59-.683l-4.684-.137a6.85,6.85,0,0,0-1.086.954,5.6,5.6,0,0,0-.656.876,2.6,2.6,0,0,0-.329.81,4.121,4.121,0,0,0-.079.811,2.153,2.153,0,0,0,1.321,1.991,8.331,8.331,0,0,0,3.726.684,9.025,9.025,0,0,0,2.512-.3,4.829,4.829,0,0,0,1.65-.8,2.848,2.848,0,0,0,.891-1.11,3.278,3.278,0,0,0,.264-1.3M291.671,19.74a3.96,3.96,0,0,0-1.045-2.932,4,4,0,0,0-2.955-1.049,4.145,4.145,0,0,0-1.7.325,3.421,3.421,0,0,0-1.218.888,3.707,3.707,0,0,0-.722,1.308,5.135,5.135,0,0,0-.235,1.558,3.767,3.767,0,0,0,1.043,2.813,3.954,3.954,0,0,0,2.9,1.037,4.364,4.364,0,0,0,1.727-.313,3.339,3.339,0,0,0,1.218-.862,3.707,3.707,0,0,0,.733-1.267,4.643,4.643,0,0,0,.251-1.505" transform="translate(-236.654 5.586)" fill="#fff"/>
    <path id="Path_438" data-name="Path 438" d="M316.541,29.423a7.856,7.856,0,0,1-.751,3.506,6.971,6.971,0,0,1-2.108,2.534,9.516,9.516,0,0,1-3.22,1.529A15.867,15.867,0,0,1,301.8,36.8a10.847,10.847,0,0,1-1.569-.618,3.891,3.891,0,0,1-.916-.589,1.828,1.828,0,0,1-.443-.865,7.038,7.038,0,0,1-.156-1.739,11.1,11.1,0,0,1,.054-1.216,3.076,3.076,0,0,1,.157-.732.676.676,0,0,1,.262-.367.759.759,0,0,1,.392-.09,1.913,1.913,0,0,1,.849.327q.567.329,1.4.721a14.872,14.872,0,0,0,1.95.735,8.677,8.677,0,0,0,2.524.343,6.281,6.281,0,0,0,1.583-.181A3.976,3.976,0,0,0,309.093,32a2.22,2.22,0,0,0,.772-.862,2.638,2.638,0,0,0,.264-1.2,2,2,0,0,0-.481-1.348,4.321,4.321,0,0,0-1.281-.983,14.706,14.706,0,0,0-1.805-.788c-.67-.245-1.361-.516-2.066-.813a18.941,18.941,0,0,1-2.067-1.022,7.915,7.915,0,0,1-1.8-1.416,6.426,6.426,0,0,1-1.278-2.015,7.407,7.407,0,0,1-.483-2.828,7.165,7.165,0,0,1,.659-3.074,6.7,6.7,0,0,1,1.886-2.393,8.93,8.93,0,0,1,3-1.538,13.33,13.33,0,0,1,3.966-.546,14.189,14.189,0,0,1,2.134.16,15.543,15.543,0,0,1,1.869.394,9.056,9.056,0,0,1,1.413.511,4.783,4.783,0,0,1,.824.473,1.356,1.356,0,0,1,.352.392,1.694,1.694,0,0,1,.156.472c.035.183.067.411.092.681s.037.607.037,1.007c0,.472-.014.854-.04,1.151a3.066,3.066,0,0,1-.132.707.619.619,0,0,1-.249.352.692.692,0,0,1-.367.091,1.753,1.753,0,0,1-.732-.273,12.841,12.841,0,0,0-1.242-.591,14.857,14.857,0,0,0-1.726-.592,8.274,8.274,0,0,0-2.239-.276,5.767,5.767,0,0,0-1.543.181,2.959,2.959,0,0,0-1.073.522,2.226,2.226,0,0,0-.63.8,2.352,2.352,0,0,0-.21.981,1.951,1.951,0,0,0,.5,1.361,4.515,4.515,0,0,0,1.308.97,14.621,14.621,0,0,0,1.842.788q1.034.367,2.094.8a19.555,19.555,0,0,1,2.091,1.01,7.92,7.92,0,0,1,1.843,1.415,6.527,6.527,0,0,1,1.305,2,7.026,7.026,0,0,1,.5,2.761" transform="translate(-223.58 5.568)" fill="#fff"/>
    <path id="Path_439" data-name="Path 439" d="M335.053,13.552a2.025,2.025,0,0,1,1.529.473,1.94,1.94,0,0,1,.43,1.362l-.025,22.4a.7.7,0,0,1-.157.457,1.152,1.152,0,0,1-.522.327,4.423,4.423,0,0,1-1.01.194,15.324,15.324,0,0,1-1.581.064,16.082,16.082,0,0,1-1.612-.067,4.494,4.494,0,0,1-1.005-.2,1.158,1.158,0,0,1-.524-.327.721.721,0,0,1-.156-.457l.022-18.892-10.493-.011-.013,10.962a5.439,5.439,0,0,0,.6,2.866,2.325,2.325,0,0,0,2.143.957,4.458,4.458,0,0,0,.942-.09,5.771,5.771,0,0,0,.746-.21c.217-.076.4-.146.549-.208a1.088,1.088,0,0,1,.406-.09.564.564,0,0,1,.3.092.621.621,0,0,1,.221.367,5.553,5.553,0,0,1,.143.746,9.182,9.182,0,0,1,.065,1.2,8.554,8.554,0,0,1-.135,1.74,1.974,1.974,0,0,1-.365.862,1.854,1.854,0,0,1-.707.47,6.836,6.836,0,0,1-1.088.34,11.37,11.37,0,0,1-1.335.221,12.579,12.579,0,0,1-1.451.076,10.417,10.417,0,0,1-3.4-.5,5.654,5.654,0,0,1-2.38-1.534,6.387,6.387,0,0,1-1.384-2.6,13.741,13.741,0,0,1-.44-3.717l.014-11.957-2.8,0c-.33,0-.584-.206-.757-.614a5.72,5.72,0,0,1-.26-2.056,10.049,10.049,0,0,1,.068-1.281,3.14,3.14,0,0,1,.2-.826.974.974,0,0,1,.329-.43.78.78,0,0,1,.457-.129l2.774,0,.006-5.208a.8.8,0,0,1,.144-.47,1.1,1.1,0,0,1,.524-.352,4.223,4.223,0,0,1,1.021-.21c.427-.041.954-.062,1.583-.065q.967,0,1.61.07a4.1,4.1,0,0,1,1.007.21,1.2,1.2,0,0,1,.524.354.768.768,0,0,1,.154.473l0,5.2Z" transform="translate(-217.206 3.246)" fill="#fff"/>
    <path id="Path_440" data-name="Path 440" d="M350.672,39.679a.756.756,0,0,1-.146.457.992.992,0,0,1-.521.314,5.65,5.65,0,0,1-1.035.181q-.655.064-1.7.065-1.074,0-1.74-.056a6.132,6.132,0,0,1-1.1-.17,1.658,1.658,0,0,1-.667-.329,1.989,1.989,0,0,1-.419-.551l-7.758-12.306-.013,12.351a.7.7,0,0,1-.159.457,1.144,1.144,0,0,1-.537.327,4.733,4.733,0,0,1-1.007.194q-.629.064-1.6.065t-1.594-.068a4.727,4.727,0,0,1-1.008-.2,1.161,1.161,0,0,1-.537-.329.7.7,0,0,1-.156-.457l.038-34.407a.773.773,0,0,1,.159-.47,1.162,1.162,0,0,1,.537-.354,4.547,4.547,0,0,1,1.005-.221,13.361,13.361,0,0,1,1.6-.078,13.531,13.531,0,0,1,1.6.081,4.479,4.479,0,0,1,1.007.224,1.168,1.168,0,0,1,.535.354.757.757,0,0,1,.157.472l-.022,20.486,6.919-9.282a2.873,2.873,0,0,1,.472-.548,1.776,1.776,0,0,1,.692-.365,5.87,5.87,0,0,1,1.073-.2q.641-.064,1.635-.064c.645,0,1.191.024,1.635.067a5.391,5.391,0,0,1,1.072.2,1.154,1.154,0,0,1,.562.327.754.754,0,0,1,.157.484,2.065,2.065,0,0,1-.2.837,4.5,4.5,0,0,1-.589.942l-6.838,7.738,7.888,12.227a5.931,5.931,0,0,1,.456.9,2,2,0,0,1,.145.694" transform="translate(-205.794 1.409)" fill="#fff"/>
    <path id="Path_441" data-name="Path 441" d="M267.295,11.039a1.394,1.394,0,0,1-.014.229.481.481,0,0,1-.051.165.264.264,0,0,1-.084.1.2.2,0,0,1-.106.029h-4.527a.517.517,0,0,1-.316-.113.469.469,0,0,1-.151-.4V2.632a.467.467,0,0,1,.151-.4.517.517,0,0,1,.316-.113h4.477a.2.2,0,0,1,.1.029.2.2,0,0,1,.076.1.7.7,0,0,1,.048.164,1.309,1.309,0,0,1,.019.245,1.217,1.217,0,0,1-.019.23.647.647,0,0,1-.048.16.2.2,0,0,1-.076.09.2.2,0,0,1-.1.03H263.3V6.125h3.164a.172.172,0,0,1,.1.033.265.265,0,0,1,.081.09.5.5,0,0,1,.048.16,1.784,1.784,0,0,1,.014.241,1.543,1.543,0,0,1-.014.225.468.468,0,0,1-.048.152.2.2,0,0,1-.081.084.2.2,0,0,1-.1.025H263.3v3.375h3.739a.185.185,0,0,1,.106.03.259.259,0,0,1,.084.09.453.453,0,0,1,.051.16,1.53,1.53,0,0,1,.014.245" transform="translate(-245.132 0.248)" fill="#fff"/>
    <path id="Path_442" data-name="Path 442" d="M271.664,8.713a2.072,2.072,0,0,1-.186.9,1.836,1.836,0,0,1-.529.664,2.382,2.382,0,0,1-.818.408,3.7,3.7,0,0,1-1.042.138,3.91,3.91,0,0,1-.667-.054,4,4,0,0,1-.57-.138,2.953,2.953,0,0,1-.426-.176,1.258,1.258,0,0,1-.256-.164.419.419,0,0,1-.118-.2,1.435,1.435,0,0,1-.036-.359,1.58,1.58,0,0,1,.016-.233.688.688,0,0,1,.036-.152.166.166,0,0,1,.062-.084.174.174,0,0,1,.092-.025.526.526,0,0,1,.235.1c.106.067.235.138.388.216a3.514,3.514,0,0,0,.543.214,2.381,2.381,0,0,0,.722.1,2.189,2.189,0,0,0,.552-.065,1.336,1.336,0,0,0,.43-.194.879.879,0,0,0,.283-.324,1.044,1.044,0,0,0,.1-.467.762.762,0,0,0-.141-.467,1.36,1.36,0,0,0-.376-.335,2.943,2.943,0,0,0-.526-.259l-.6-.237c-.206-.084-.406-.176-.6-.281a2.348,2.348,0,0,1-.527-.383,1.772,1.772,0,0,1-.376-.54,1.832,1.832,0,0,1-.141-.751,1.868,1.868,0,0,1,.149-.74,1.713,1.713,0,0,1,.448-.621,2.264,2.264,0,0,1,.746-.426,3.1,3.1,0,0,1,1.048-.16,3.238,3.238,0,0,1,.524.043,3.631,3.631,0,0,1,.475.11,2.3,2.3,0,0,1,.362.143,1.684,1.684,0,0,1,.225.133.4.4,0,0,1,.1.1.281.281,0,0,1,.037.1c.006.037.014.081.022.135a1.4,1.4,0,0,1,.011.2,1.7,1.7,0,0,1-.011.214.6.6,0,0,1-.037.149.191.191,0,0,1-.062.084.136.136,0,0,1-.081.025.414.414,0,0,1-.189-.079,2.591,2.591,0,0,0-.321-.171,3.524,3.524,0,0,0-.462-.171,2.108,2.108,0,0,0-.61-.081,1.9,1.9,0,0,0-.54.07,1.048,1.048,0,0,0-.383.2.847.847,0,0,0-.227.3.935.935,0,0,0-.076.378.771.771,0,0,0,.146.478,1.411,1.411,0,0,0,.379.34,3.2,3.2,0,0,0,.532.262c.2.078.4.157.608.24s.411.176.613.278a2.324,2.324,0,0,1,.537.372,1.684,1.684,0,0,1,.375.526,1.705,1.705,0,0,1,.143.729" transform="translate(-242.21 1.122)" fill="#fff"/>
    <path id="Path_443" data-name="Path 443" d="M277.216,11.634a.166.166,0,0,1-.029.1.2.2,0,0,1-.1.073.685.685,0,0,1-.194.044,2.821,2.821,0,0,1-.313.014c-.132,0-.24,0-.324-.011a1.029,1.029,0,0,1-.216-.037.359.359,0,0,1-.141-.073.577.577,0,0,1-.1-.113L273.031,8V11.64a.169.169,0,0,1-.029.1.23.23,0,0,1-.1.068.6.6,0,0,1-.183.044,2.549,2.549,0,0,1-.3.014,2.457,2.457,0,0,1-.291-.014.677.677,0,0,1-.187-.044.2.2,0,0,1-.094-.068.18.18,0,0,1-.025-.1V1.9a.171.171,0,0,1,.119-.175.746.746,0,0,1,.187-.043,2.457,2.457,0,0,1,.291-.014,2.549,2.549,0,0,1,.3.014.657.657,0,0,1,.183.043.222.222,0,0,1,.1.073.185.185,0,0,1,.029.1V7.836l2.48-2.728a.581.581,0,0,1,.279-.2.893.893,0,0,1,.216-.044c.083-.006.183-.011.3-.011s.222,0,.3.011a.922.922,0,0,1,.2.037.237.237,0,0,1,.108.065.164.164,0,0,1,.033.106.373.373,0,0,1-.046.175,1.059,1.059,0,0,1-.159.2l-2.377,2.377,2.671,3.463a1.658,1.658,0,0,1,.133.2.31.31,0,0,1,.04.143" transform="translate(-239.383 -0.019)" fill="#fff"/>
    <path id="Path_444" data-name="Path 444" d="M278.508,2.684a.794.794,0,0,1-.16.576.868.868,0,0,1-.591.152.842.842,0,0,1-.58-.149.766.766,0,0,1-.157-.565.784.784,0,0,1,.16-.575,1.2,1.2,0,0,1,1.17,0,.786.786,0,0,1,.157.565m-.14,8.778a.165.165,0,0,1-.029.1.229.229,0,0,1-.1.07.656.656,0,0,1-.183.043,2.545,2.545,0,0,1-.3.014,2.486,2.486,0,0,1-.292-.014.749.749,0,0,1-.186-.043.188.188,0,0,1-.094-.07.175.175,0,0,1-.025-.1V4.9a.177.177,0,0,1,.025-.094.176.176,0,0,1,.094-.073.678.678,0,0,1,.186-.044,2.486,2.486,0,0,1,.292-.014,2.545,2.545,0,0,1,.3.014.6.6,0,0,1,.183.044.209.209,0,0,1,.1.073.167.167,0,0,1,.029.094Z" transform="translate(-236.332 0.158)" fill="#fff"/>
    <path id="Path_445" data-name="Path 445" d="M281.51,11.641a.164.164,0,0,1-.029.1.228.228,0,0,1-.1.07.672.672,0,0,1-.183.043,2.546,2.546,0,0,1-.3.014,2.485,2.485,0,0,1-.292-.014.748.748,0,0,1-.186-.043.189.189,0,0,1-.094-.07.175.175,0,0,1-.027-.1V1.9a.194.194,0,0,1,.027-.1.176.176,0,0,1,.094-.073.748.748,0,0,1,.186-.043,2.15,2.15,0,0,1,.292-.016,2.2,2.2,0,0,1,.3.016.672.672,0,0,1,.183.043.209.209,0,0,1,.1.073.181.181,0,0,1,.029.1Z" transform="translate(-234.4 -0.02)" fill="#fff"/>
    <path id="Path_446" data-name="Path 446" d="M287.816,8.713a2.074,2.074,0,0,1-.186.9,1.838,1.838,0,0,1-.529.664,2.383,2.383,0,0,1-.818.408,3.7,3.7,0,0,1-1.042.138,3.982,3.982,0,0,1-1.235-.192,2.908,2.908,0,0,1-.427-.176,1.306,1.306,0,0,1-.256-.164.419.419,0,0,1-.117-.2,1.525,1.525,0,0,1-.035-.359,1.609,1.609,0,0,1,.014-.233.693.693,0,0,1,.037-.152.175.175,0,0,1,.062-.084.178.178,0,0,1,.092-.025.538.538,0,0,1,.237.1c.1.067.233.138.386.216a3.477,3.477,0,0,0,.545.214,2.362,2.362,0,0,0,.721.1,2.211,2.211,0,0,0,.554-.065,1.352,1.352,0,0,0,.43-.194.89.89,0,0,0,.281-.324,1.043,1.043,0,0,0,.1-.467.762.762,0,0,0-.141-.467,1.361,1.361,0,0,0-.376-.335,2.894,2.894,0,0,0-.526-.259l-.6-.237a6.52,6.52,0,0,1-.6-.281,2.321,2.321,0,0,1-.529-.383,1.771,1.771,0,0,1-.376-.54,1.831,1.831,0,0,1-.141-.751,1.866,1.866,0,0,1,.149-.74,1.716,1.716,0,0,1,.449-.621,2.248,2.248,0,0,1,.746-.426,3.084,3.084,0,0,1,1.046-.16,3.273,3.273,0,0,1,.526.043,3.66,3.66,0,0,1,.473.11,2.23,2.23,0,0,1,.362.143,1.687,1.687,0,0,1,.225.133.4.4,0,0,1,.1.1.281.281,0,0,1,.036.1c.006.037.014.081.022.135a1.386,1.386,0,0,1,.011.2,1.679,1.679,0,0,1-.011.214.6.6,0,0,1-.037.149.179.179,0,0,1-.062.084.133.133,0,0,1-.081.025.413.413,0,0,1-.189-.079,2.489,2.489,0,0,0-.321-.171,3.445,3.445,0,0,0-.462-.171,2.108,2.108,0,0,0-.61-.081,1.9,1.9,0,0,0-.54.07,1.061,1.061,0,0,0-.383.2.848.848,0,0,0-.227.3.935.935,0,0,0-.076.378.762.762,0,0,0,.148.478,1.381,1.381,0,0,0,.378.34,3.254,3.254,0,0,0,.532.262c.2.078.4.157.608.24s.413.176.613.278a2.321,2.321,0,0,1,.537.372,1.658,1.658,0,0,1,.375.526,1.7,1.7,0,0,1,.143.729" transform="translate(-232.716 1.122)" fill="#fff"/>
    <path id="Path_447" data-name="Path 447" d="M291.907,10.631a1.556,1.556,0,0,1-.029.335.378.378,0,0,1-.087.183.6.6,0,0,1-.176.11,1.448,1.448,0,0,1-.265.084c-.1.021-.2.04-.318.054a2.62,2.62,0,0,1-.335.022,2.545,2.545,0,0,1-.875-.135,1.432,1.432,0,0,1-.6-.41,1.655,1.655,0,0,1-.338-.692,4.025,4.025,0,0,1-.1-.988V5.36h-.919a.2.2,0,0,1-.176-.117.822.822,0,0,1-.065-.378,1.2,1.2,0,0,1,.019-.233.721.721,0,0,1,.046-.157.19.19,0,0,1,.076-.087.221.221,0,0,1,.108-.025h.911V2.8a.185.185,0,0,1,.024-.1.229.229,0,0,1,.1-.076.6.6,0,0,1,.187-.048,2.418,2.418,0,0,1,.29-.014,2.527,2.527,0,0,1,.3.014.57.57,0,0,1,.183.048.234.234,0,0,1,.094.076.165.165,0,0,1,.03.1V4.361h1.685a.2.2,0,0,1,.1.025.224.224,0,0,1,.078.087.528.528,0,0,1,.046.157,1.594,1.594,0,0,1,.014.233.8.8,0,0,1-.065.378.2.2,0,0,1-.175.117h-1.685v3.66a2.085,2.085,0,0,0,.2,1.024.756.756,0,0,0,.718.346,1.221,1.221,0,0,0,.3-.033,1.866,1.866,0,0,0,.232-.068c.07-.024.127-.048.176-.068a.322.322,0,0,1,.13-.033.147.147,0,0,1,.07.017.121.121,0,0,1,.051.07.767.767,0,0,1,.033.138,1.4,1.4,0,0,1,.014.219" transform="translate(-230.102 0.509)" fill="#fff"/>
    <path id="Path_448" data-name="Path 448" d="M298.2,10.461a.189.189,0,0,1-.024.1.218.218,0,0,1-.092.07.672.672,0,0,1-.172.043,1.99,1.99,0,0,1-.259.014,2.093,2.093,0,0,1-.273-.014.612.612,0,0,1-.168-.043.181.181,0,0,1-.084-.07.205.205,0,0,1-.022-.1V9.595a4.052,4.052,0,0,1-1.108.9,2.381,2.381,0,0,1-1.107.284,2.524,2.524,0,0,1-1.1-.218,1.955,1.955,0,0,1-.726-.6,2.36,2.36,0,0,1-.4-.875,5.214,5.214,0,0,1-.121-1.213V3.9a.178.178,0,0,1,.025-.1.212.212,0,0,1,.1-.073.666.666,0,0,1,.189-.043c.078-.008.176-.011.292-.011s.214,0,.291.011a.629.629,0,0,1,.187.043.265.265,0,0,1,.1.073.168.168,0,0,1,.029.1v3.82a4,4,0,0,0,.084.924,1.706,1.706,0,0,0,.256.589,1.16,1.16,0,0,0,.433.379,1.316,1.316,0,0,0,.613.135,1.533,1.533,0,0,0,.9-.321,5.094,5.094,0,0,0,.953-.94V3.9a.178.178,0,0,1,.025-.1.22.22,0,0,1,.1-.073.668.668,0,0,1,.186-.043c.075-.008.175-.011.3-.011s.214,0,.291.011a.571.571,0,0,1,.183.043.319.319,0,0,1,.1.073.159.159,0,0,1,.032.1Z" transform="translate(-227.211 1.16)" fill="#fff"/>
    <path id="Path_449" data-name="Path 449" d="M304.1,10.5a.164.164,0,0,1-.029.1.219.219,0,0,1-.1.07.659.659,0,0,1-.181.043,2.485,2.485,0,0,1-.292.014,2.557,2.557,0,0,1-.3-.014.674.674,0,0,1-.181-.043.2.2,0,0,1-.094-.07.156.156,0,0,1-.032-.1V6.657a3.76,3.76,0,0,0-.087-.9,1.821,1.821,0,0,0-.254-.591,1.1,1.1,0,0,0-.433-.379,1.38,1.38,0,0,0-.616-.132,1.565,1.565,0,0,0-.9.321,4.958,4.958,0,0,0-.948.942V10.5a.164.164,0,0,1-.029.1.229.229,0,0,1-.1.07.672.672,0,0,1-.183.043,2.546,2.546,0,0,1-.3.014,2.487,2.487,0,0,1-.292-.014.748.748,0,0,1-.186-.043.188.188,0,0,1-.094-.07.176.176,0,0,1-.027-.1V3.937a.192.192,0,0,1,.024-.1.18.18,0,0,1,.087-.073.53.53,0,0,1,.167-.043,3.225,3.225,0,0,1,.535,0,.476.476,0,0,1,.165.043.23.23,0,0,1,.084.073.193.193,0,0,1,.025.1v.868a4,4,0,0,1,1.1-.908,2.381,2.381,0,0,1,1.113-.287,2.461,2.461,0,0,1,1.105.222,1.978,1.978,0,0,1,.724.594,2.361,2.361,0,0,1,.4.872,5.233,5.233,0,0,1,.119,1.2Z" transform="translate(-223.736 1.122)" fill="#fff"/>
    <path id="Path_450" data-name="Path 450" d="M309.628,10.507a.161.161,0,0,1-.06.132.428.428,0,0,1-.16.065,1.54,1.54,0,0,1-.3.022,1.65,1.65,0,0,1-.3-.022.36.36,0,0,1-.165-.065.17.17,0,0,1-.051-.132V9.851a3.26,3.26,0,0,1-.959.714,2.572,2.572,0,0,1-1.118.256,3.043,3.043,0,0,1-.938-.137,2.025,2.025,0,0,1-.714-.389,1.774,1.774,0,0,1-.46-.627,2.066,2.066,0,0,1-.165-.845,1.974,1.974,0,0,1,.227-.964,1.9,1.9,0,0,1,.649-.678,3.271,3.271,0,0,1,1.035-.406,6.6,6.6,0,0,1,1.38-.133h.9v-.51a2.508,2.508,0,0,0-.081-.67,1.171,1.171,0,0,0-.259-.486,1.088,1.088,0,0,0-.464-.291,2.123,2.123,0,0,0-.7-.1,2.8,2.8,0,0,0-.8.106,4.119,4.119,0,0,0-.621.233c-.178.086-.324.164-.445.233a.611.611,0,0,1-.267.106.174.174,0,0,1-.1-.03.249.249,0,0,1-.078-.087A.4.4,0,0,1,304.574,5a1.118,1.118,0,0,1-.016-.2,1.253,1.253,0,0,1,.025-.287.413.413,0,0,1,.124-.2,1.448,1.448,0,0,1,.34-.222,3.636,3.636,0,0,1,.554-.233,5.047,5.047,0,0,1,.684-.176,4.12,4.12,0,0,1,.753-.068,3.962,3.962,0,0,1,1.2.16,1.936,1.936,0,0,1,.8.47,1.821,1.821,0,0,1,.445.77,3.666,3.666,0,0,1,.141,1.072Zm-1.2-3H307.4a3.891,3.891,0,0,0-.861.086,1.761,1.761,0,0,0-.6.248,1.028,1.028,0,0,0-.354.394,1.187,1.187,0,0,0-.113.529,1.054,1.054,0,0,0,.324.811,1.274,1.274,0,0,0,.908.3,1.687,1.687,0,0,0,.878-.24,3.771,3.771,0,0,0,.851-.737Z" transform="translate(-220.337 1.122)" fill="#fff"/>
  </g>
</svg>
