<svg id="Kfast-Logo-Vit" xmlns="http://www.w3.org/2000/svg" width="158.267" height="49.639" viewBox="0 0 158.267 49.639">
  <g id="Group_653" data-name="Group 653" transform="translate(0 0)">
    <path id="Path_478" data-name="Path 478" d="M0,25.024a24.7,24.7,0,0,0,4.751,14.6L18.887.92A24.829,24.829,0,0,0,0,25.024" transform="translate(0 -0.205)" fill="#fff"/>
    <path id="Path_479" data-name="Path 479" d="M27.7,0,20.1,20.859h1.1c3.257,0,6.349-3.575,7.9-5.706,1.949-2.686,4.965-5.889,8.259-5.889,2.849,0,4.292,1.438,4.292,4.277,0,2.3-1.345,3.783-3.426,3.783-1.875,0-2.995-.859-2.995-2.3a3.434,3.434,0,0,1,.35-1.526,2.036,2.036,0,0,0,.228-.878c0-.194,0-.459-.758-.459-1.05,0-2.339,1.506-4.525,4.168-2.189,2.712-3.889,4.372-5.37,5.222a6.209,6.209,0,0,1,5.3,5.2c.549,2.57,1.05,5.158,1.535,7.661l.271,1.4c.627,3.147,1.2,4.209,2.279,4.209,1.619,0,3.341-2.061,5.119-6.128l.138-.315,1.774.5-.172.4c-2.311,5.42-4.965,7.733-8.879,7.733-2.955,0-4.127-1.251-4.98-3.13a25.718,25.718,0,0,1-1.381-5.094c-.2-.968-.407-1.969-.662-3.035-.228-.957-.417-1.84-.583-2.62a14.768,14.768,0,0,0-1.245-4.2c-.652-1.023-1.32-1.511-3.341-1.511h-.947L11.879,44.136A24.818,24.818,0,1,0,27.7,0" transform="translate(-2.644 -0.001)" fill="#fff"/>
    <path id="Path_480" data-name="Path 480" d="M19.05,22.626c2.021,0,2.688.488,3.341,1.511a14.759,14.759,0,0,1,1.245,4.2c.166.78.355,1.664.584,2.62.254,1.067.462,2.068.662,3.036a25.676,25.676,0,0,0,1.382,5.094c.852,1.878,2.025,3.129,4.979,3.129,3.914,0,6.569-2.312,8.879-7.733l.173-.4-1.775-.5-.138.315c-1.778,4.066-3.5,6.128-5.119,6.128-1.078,0-1.654-1.063-2.28-4.209l-.271-1.4c-.485-2.5-.986-5.091-1.535-7.661a6.21,6.21,0,0,0-5.3-5.2c1.481-.85,3.181-2.51,5.37-5.222,2.186-2.663,3.475-4.169,4.525-4.169.757,0,.757.266.757.46a2.018,2.018,0,0,1-.228.877,3.436,3.436,0,0,0-.349,1.527c0,1.439,1.119,2.3,2.994,2.3,2.081,0,3.426-1.484,3.426-3.782,0-2.838-1.444-4.277-4.292-4.277-3.293,0-6.31,3.2-8.259,5.89-1.553,2.131-4.645,5.706-7.9,5.706h-1.1L26.413,0,26.18,0a24.867,24.867,0,0,0-5.933.715L6.111,39.422A24.942,24.942,0,0,0,10.6,44.135L18.1,22.626Z" transform="translate(-1.36)" fill="#b13755"/>
    <path id="Path_481" data-name="Path 481" d="M21.458,96.084c.038.082.12.164.12.244,0,.324-.12.487-.406.487h-1.54a.766.766,0,0,1-.609-.244L11.078,84.853,5.32,90.286v5.8a.694.694,0,0,1-.691.731H3.738a.694.694,0,0,1-.691-.731V75.85a.694.694,0,0,1,.691-.729h.891a.694.694,0,0,1,.691.729V87.164l12.608-11.8a.767.767,0,0,1,.609-.242h1.907c.284,0,.4.162.4.487,0,.08-.08.162-.12.242L12.82,83.23Z" transform="translate(58.63 -60.656)" fill="#fff"/>
    <path id="Path_482" data-name="Path 482" d="M18.678,96.084a.694.694,0,0,1-.689.731H17.1a.694.694,0,0,1-.689-.731V75.81a.693.693,0,0,1,.731-.689H30.356a.693.693,0,0,1,.731.689v.729a.694.694,0,0,1-.731.691H18.678v8.149H29.3a.694.694,0,0,1,.731.689v.569a.694.694,0,0,1-.731.689H18.678Z" transform="translate(67.613 -60.656)" fill="#fff"/>
    <path id="Path_483" data-name="Path 483" d="M44.589,96.328a.447.447,0,0,1-.487.487H42.967c-.4,0-.649-.284-.851-.731L39.8,89.679H30.4l-2.31,6.405c-.2.447-.447.731-.853.731H26.1a.448.448,0,0,1-.487-.487.507.507,0,0,1,.042-.244L33.2,75.527a.72.72,0,0,1,.649-.406h2.514a.724.724,0,0,1,.649.406l7.541,20.557a.507.507,0,0,1,.042.244M39.033,87.57,35.1,76.865l-3.933,10.7Z" transform="translate(73.802 -60.656)" fill="#fff"/>
    <path id="Path_484" data-name="Path 484" d="M39.161,95.639a.507.507,0,0,1-.365-.527c0-.082,0-.2.324-.893a.72.72,0,0,1,.649-.527,1.132,1.132,0,0,1,.365.04,18.655,18.655,0,0,0,7.218,1.42c3.974,0,6.285-1.1,6.285-4.258,0-2.878-3.974-3.244-8.191-4.218-4.014-.932-6.853-1.743-6.853-5.96C38.592,75.972,43.418,75,46.7,75h.243a37.958,37.958,0,0,1,7.542.853l.365.12a.59.59,0,0,1,.447.527,3.1,3.1,0,0,1-.243.933.784.784,0,0,1-.649.569.673.673,0,0,1-.284-.042,32.985,32.985,0,0,0-7.46-.851c-2.353,0-5.8.893-5.8,3.691a3.566,3.566,0,0,0,2.962,3.325c5.23,1.46,12.083,1.378,12.083,6.771,0,5.474-5.191,6.2-8.476,6.2a24.615,24.615,0,0,1-7.907-1.3Z" transform="translate(82.53 -60.738)" fill="#fff"/>
    <path id="Path_485" data-name="Path 485" d="M60.333,77.23V96.084a.694.694,0,0,1-.689.731h-.891a.694.694,0,0,1-.691-.731V77.23H51.615a.693.693,0,0,1-.729-.689V75.81a.693.693,0,0,1,.729-.689H66.74a.694.694,0,0,1,.731.689v.731a.694.694,0,0,1-.731.689Z" transform="translate(90.796 -60.656)" fill="#fff"/>
  </g>
</svg>
