<?xml version="1.0" encoding="utf-8"?>
<!-- Generator: Adobe Illustrator 14.0.0, SVG Export Plug-In . SVG Version: 6.00 Build 43363)  -->
<!DOCTYPE svg PUBLIC "-//W3C//DTD SVG 1.1//EN" "http://www.w3.org/Graphics/SVG/1.1/DTD/svg11.dtd">
<svg version="1.1" id="Layer_1" xmlns="http://www.w3.org/2000/svg" xmlns:xlink="http://www.w3.org/1999/xlink" x="0px" y="0px"
	 width="460.4px" height="456px" viewBox="0 0 460.4 456" enable-background="new 0 0 460.4 456" xml:space="preserve">
<g id="Backgrund" display="none">
	<rect x="-85.8" y="-15.7" display="inline" stroke="#000000" width="670" height="512"/>
</g>
<g id="Layer_1_1_">
	<g>
		<g>
			<defs>
				<rect id="SVGID_1_" x="-191.3" y="-69.8" width="841.9" height="595.3"/>
			</defs>
			<clipPath id="SVGID_2_">
				<use xlink:href="#SVGID_1_"  overflow="visible"/>
			</clipPath>
			<path clip-path="url(#SVGID_2_)" fill="#FFFFFF" d="M457.4,228c0-59.9-23.5-116.2-66.3-158.6C348.4,27,291.6,3.7,231.1,3.7
				C170.7,3.7,113.8,27,71.1,69.4C28.4,111.8,4.8,168.1,4.8,228c0,59.9,23.5,116.2,66.301,158.6c42.699,42.4,99.6,65.7,160,65.7
				c0.699,0,1.399,0,2.1,0c1,0,2,0,3,0l0,0c11.8,0,21.4-0.899,29.5-2.6c47.301-7.101,91-28.9,125.4-63.101
				c0.2-0.199,0.3-0.3,0.5-0.5l0,0l0,0C434.1,343.7,457.4,287.7,457.4,228 M253.3,8c85.501,10.4,151.9,82.8,151.9,170.3
				c0,30.7-8.3,60.9-24,87.2l-1.3,2.1l-0.1,0.101c-8,15.8-26,33-40.3,43c-3.7,2.6-7.301,4.3-11.2,6.2c-9.3,4.399-19.8,9.5-34.601,27
				c-4,4.8-7.8,6.8-11.5,6.1c-5-1-8.5-7-9.4-9.8c-0.5-1.601-1.199-4.601-2.1-8.4c-2.3-10.2-6.2-27.3-13.1-44.7
				C247.3,260.9,235.8,248.2,222.5,248.2c-0.399,0-0.8,0-1.2,0c-12.8,0.7-18.1,4.8-23.399,12.1c-3.4,4.7-8.3,9.9-12.2,14.2
				c-1.9,2-3.5,3.8-4.7,5.2c-1.899,2.2-3,3.899-2.1,5.399c0.899,1.7,3.3,1.4,6.1,1c3.7-0.5,18.2,0,21.601,12.101
				c3.899,14.101-7.801,29.5-9.101,31.2c-2,1.5-4.5,3.199-7.3,5.1c-4,2.7-8.6,5.801-13.2,9.301c-6.3-6.701-18.1-19.101-32.6-26.101
				c-14.9-7.101-49.3-28.8-60.5-50l-1.4-2.4c-15.7-26.3-24-56.5-24-87.2c0-89.6,69.7-163.4,158.101-171
				c4.699-0.3,9.5-0.4,14.199-0.4C238.6,6.9,246,7.3,253.3,8"/>
		</g>
		<g>
			<defs>
				<rect id="SVGID_3_" x="-191.3" y="-69.8" width="841.9" height="595.3"/>
			</defs>
			<clipPath id="SVGID_4_">
				<use xlink:href="#SVGID_3_"  overflow="visible"/>
			</clipPath>
			<path clip-path="url(#SVGID_4_)" fill="#EF423F" d="M329.501,113.8c0,53.8-43.601,97.4-97.4,97.4c-53.801,0-97.4-43.6-97.4-97.4
				c0-53.8,43.6-97.4,97.4-97.4C285.9,16.4,329.501,60,329.501,113.8"/>
		</g>
		<g>
			<defs>
				<rect id="SVGID_5_" x="-191.3" y="-69.8" width="841.9" height="595.3"/>
			</defs>
			<clipPath id="SVGID_6_">
				<use xlink:href="#SVGID_5_"  overflow="visible"/>
			</clipPath>
			
				<circle clip-path="url(#SVGID_6_)" fill="none" stroke="#000000" stroke-width="4" stroke-miterlimit="10" cx="232.1" cy="113.8" r="97.4"/>
		</g>
		<g>
			<defs>
				<rect id="SVGID_7_" x="-191.3" y="-69.8" width="841.9" height="595.3"/>
			</defs>
			<clipPath id="SVGID_8_">
				<use xlink:href="#SVGID_7_"  overflow="visible"/>
			</clipPath>
			<path clip-path="url(#SVGID_8_)" d="M394.001,77.9c26.8,33.8,32,76,34.8,113.1c4.1,55.1-19.601,92.4-29.9,105.8
				c-9.6,12.5-19.3,27.5-27.899,40.7c-9.7,15-18.101,27.9-24,33.8c-3.801,3.8-7.101,6-10.301,8.101c-3.1,2.1-6.3,4.199-9.899,7.699
				c-5.8,5.801-8.3,9.7-13.8,18.301c-1.301,2-2.7,4.3-4.4,6.899c-0.7,1-1.3,2.101-2,3.101c-8.2,12.8-16.601,25.899-42.7,31.3
				c-10.101,1.5-20.4,2.3-30.9,2.5c-28.5-0.4-49.5-7.4-62.5-21.101c-13.7-14.5-15.7-33.6-15-47c1-19.199,22.4-33.8,36.601-43.399
				c2.899-2,5.5-3.7,7.6-5.3l0.3-0.301c0.601-0.699,14.4-17.8,9.801-34.199c-3.7-13.101-18.5-15.4-25.101-14.4
				c-0.399,0.1-1.399,0.2-2.2,0.3c0.2-0.3,0.601-0.8,1.101-1.399c1.2-1.4,2.8-3.101,4.6-5.101c4-4.3,8.9-9.6,12.4-14.5
				c4.8-6.6,9.399-10.1,21-10.8c12.1-0.7,23.2,11.7,33.1,36.9c6.8,17.199,10.601,34.1,12.9,44.199c0.899,4.101,1.6,7,2.2,8.7
				c0.899,2.9,4.899,10.5,11.899,11.9c4.8,0.899,9.7-1.5,14.5-7.2c14.301-17,24.5-21.9,33.5-26.2c4-1.899,7.801-3.8,11.7-6.5
				c13.5-9.5,32.4-26.8,41.2-44.1l1.2-2c16-26.8,24.399-57.5,24.399-88.8c0-69.8-41.5-130.2-101.399-158.2
				C340.4,32.5,370.2,52.4,394.001,77.9 M231.1,6.9c4.8,0,9.5,0.2,14.199,0.5C334.6,14.2,405.1,88.4,405.1,178.5
				c0,30.7-8.3,60.9-24,87.2l-1.3,2.1L379.7,267.9c-8,15.8-26,33-40.3,43c-3.7,2.6-7.3,4.3-11.2,6.199c-9.3,4.4-19.8,9.5-34.6,27
				c-4,4.801-7.801,6.801-11.5,6.101c-5-1-8.5-7-9.4-9.8c-0.5-1.601-1.2-4.601-2.1-8.4c-2.301-10.2-6.2-27.3-13.101-44.7
				c-10.3-26.2-21.8-38.899-35.1-38.899c-0.4,0-0.8,0-1.2,0c-12.8,0.699-18.1,4.8-23.4,12.1c-3.399,4.7-8.3,9.9-12.199,14.2
				c-1.9,2-3.5,3.8-4.7,5.2c-1.9,2.199-3,3.899-2.101,5.399c0.9,1.7,3.301,1.4,6.101,1c3.7-0.5,18.2,0,21.6,12.101
				c3.9,14.1-7.8,29.5-9.1,31.199c-2,1.5-4.5,3.201-7.3,5.101c-4,2.7-8.601,5.8-13.2,9.3c-6.3-6.8-18.101-19.1-32.601-26.1
				c-14.899-7.1-49.3-28.801-60.5-50l-1.399-2.4c-15.7-26.3-24-56.5-24-87.2C58.7,84.2,136,7.3,231.1,6.9 M390.4,69.4
				C350.7,30.1,299.001,7.2,243.5,4.1c-3.8-0.2-7.7-0.4-11.6-0.4c-0.3,0-0.5,0-0.8,0c-0.301,0-0.5,0-0.801,0
				C190.2,5.9,167,16,167,16C101.7,41.7,55.5,104.9,55.5,178.5c0,31.3,8.5,62,24.4,88.9L81.3,269.6c11.5,22,46.7,44.101,61.9,51.4
				c13.9,6.6,25.3,18.5,31.5,25.2c-11.2,9-21.6,20.5-22.3,34.5c-0.2,3.399-0.2,7.1,0.1,11l0.4,4c0.6,4.8,1.7,9.7,3.399,14.7l1.2,3
				c2.4,5.8,5.9,11.6,10.8,16.699c6.601,7,15.2,12.301,25.7,16c0,0,15.7,6.801,36.3,6.101c1,0,1.9,0,2.801,0c0.699,0,1.5,0,2.199,0
				l0,0c11.801,0,21.4-0.9,29.5-2.601c0,0,9.4-0.899,20.9-7.5c11.6-6.6,17.5-15.699,23.2-24.6c0,0,1.601-2.4,1.8-2.7
				c0.2-0.3,0.4-0.6,0.601-0.899c1.7-2.601,3.2-4.9,4.399-6.9c1.601-2.4,2.8-4.4,4-6.2l2.2-3.2c2.101-2.899,4.101-5.3,7.101-8.3
				c1.5-1.5,2.899-2.7,4.3-3.8c0,0,2.399-1.5,7.6-5.3c2.5-1.7,5.2-3.8,8.2-6.8c4.2-4.101,9.4-11.5,15.4-20.5c0,0,1-1.5,3-4.5
				c1.899-3,3.899-6.101,6-9.301c8.5-13.199,18.199-28.1,27.699-40.5c10.801-13.6,35-51.6,30.801-107.899
				c-2.2-29.8-6.101-63-21.301-92.7C398.801,74.6,390.4,69.4,390.4,69.4"/>
		</g>
		<g>
			<defs>
				<rect id="SVGID_9_" x="-191.3" y="-69.8" width="841.9" height="595.3"/>
			</defs>
			<clipPath id="SVGID_10_">
				<use xlink:href="#SVGID_9_"  overflow="visible"/>
			</clipPath>
			<path clip-path="url(#SVGID_10_)" d="M391.1,386.1c42.4-42.3,65.8-98.399,65.8-158.1c0-59.9-23.5-116.2-66.3-158.6
				C347.801,27.1,291,3.8,230.5,3.8s-117.3,23.3-160,65.7C27.8,111.8,4.2,168.1,4.2,228c0,59.9,23.5,116.2,66.3,158.6
				c42.7,42.4,99.601,65.7,160,65.7c0.7,0,1.4,0,2.101,0c1,0,2,0,3,0l0,0c11.8,0,21.399-0.899,29.5-2.6
				c47.3-7.101,91-28.9,125.4-63.101C390.7,386.4,390.9,386.3,391.1,386.1C391.001,386.1,391.1,386.1,391.1,386.1L391.1,386.1z
				 M333.6,385.6c1.3-0.399,2.9-0.8,4.7-1.199c13.399-3.4,38.5-9.7,62.399-28.101c9.601-7.399,18.5-14.899,24.801-20.8
				c-10.2,18-22.801,34.5-37.4,49c-3.1,2.2-11.4,4.5-21.6,7.3c-2.301,0.601-4.7,1.3-7.2,2c-12,3.4-29.9,3.8-36.9,3.8
				c2.101-2.899,4.101-5.3,7.101-8.3C330.801,387.8,332.2,386.6,333.6,385.6 M430.9,325.2c-2.8,4-15.899,16-32.2,28.5
				c-21.3,16.399-43.7,23-57.5,26.6c2.5-1.7,5.2-3.8,8.2-6.8c4.2-4.1,9.4-11.5,15.4-20.5c10.8-3.4,34.399-16.6,54.399-45.1
				c15.3-21.801,30.7-49.101,34.2-88.4c0.101,2.8,0.2,5.7,0.2,8.5C453.6,262.9,445.501,295.8,430.9,325.2 M432.2,190.8
				c-2.199-29.8-6.1-63-21.3-92.7c20.2,27.4,34.2,59.6,39.9,94.5c2.6,53.6-15.7,87.5-34.101,113.6
				c-17.399,24.7-37.3,37.6-48.8,42.399c1.9-3,3.9-6.1,6-9.3c8.5-13.2,18.2-28.1,27.7-40.5C412.2,285,436.4,247,432.2,190.8
				 M394.2,77.9c26.801,33.8,32,76,34.801,113.1c4.1,55.1-19.601,92.4-29.9,105.8c-9.6,12.5-19.3,27.5-27.9,40.7
				c-9.699,15-18.1,27.9-24,33.8c-3.8,3.8-7.1,6-10.3,8.101c-3.1,2.1-6.3,4.199-9.899,7.699C321.2,392.9,318.7,396.8,313.2,405.4
				c-1.3,2-2.699,4.3-4.399,6.899c-0.7,1-1.3,2.101-2,3.101c-8.2,12.8-16.601,25.899-42.7,31.3c-10.3,1.6-20.801,2.399-31.601,2.5
				c-58.1-1-76-30-78.8-54.5l-0.5-2.3C153,392.3,133,381.1,123.3,361c-3.699-7.7-7.1-12.9-9.399-17.8c-3.8-8.3-5.3-12.9-13.7-19.9
				c-18.4-15.2-35.6-28.899-48.8-55.1C37,239.7,25.8,189.8,41.4,142.8C57.5,94.5,61.3,85.3,98.7,49.7
				c36.9-26.9,82.5-42.8,131.7-42.8C295.1,6.9,353.4,34.3,394.2,77.9 M52.8,361.5c-9.5-12.4-17.699-25.8-24.5-40.1
				c7,8.8,16.4,16.5,34.801,27.3c25.1,14.8,53.199,15.899,58.699,16c3.9,7.2,9.2,13.3,14.301,18.2c-5.5,1.199-20.5,3.3-44.4-3
				C66.4,373.2,57.2,366.4,52.8,361.5 M71.7,72.9c-15.5,18.3-21.4,33.4-33.2,68.9c-16,47.9-4.5,98.8,10.2,127.8
				C62.3,296.5,80.3,310,98.6,325.9c7.399,6.5,7.6,8.6,12.1,17.1c-10.9-4-46.1-20.3-65-43.4c-22.3-27.3-37.3-68-36.5-99.1
				C15.4,151.1,38.1,106.7,71.7,72.9 M7.5,221.8c4.4,27.5,17.7,58,35.601,79.9c21.5,26.2,62.399,42.5,68.8,44.6
				c2.3,4.8,5.3,9,8.2,15.2c-7.9-0.3-32.9-2.2-55.4-15.5c-27.1-16-34.2-24.9-43.4-41.1C12.3,280.9,7.4,255,7.4,228
				C7.4,225.9,7.5,223.9,7.5,221.8 M61.3,372c6.301,3.5,15.601,7.3,29.601,11.1c13,3.5,23.5,4.5,31.3,4.5c9.4,0,14.9-1.5,16.7-2
				c6.399,5.601,10.1,8,12.1,9.2c0.601,4.8,1.7,9.8,3.4,14.7c-4.5,0.8-14.7,3.6-26.2,2.1c-15-1.899-26.6-7-40.2-13.5
				C78.4,390.1,69.5,381.4,61.3,372 M99,406.5c9.101,3.8,18.3,6.8,28.9,8.2c3.399,0.399,6.8,0.6,10.1,0.6c8.9,0,14.7-2.3,17.7-2.8
				c5.5,13.2,18.2,26.6,38.2,33.7C158.8,440.3,126.5,426.4,99,406.5 M309.301,417.6c2.7,1.101,9.399,3.5,17.6,3.5
				c0.9,0,1.8,0,2.8-0.1c4-0.3,8.3-0.7,12.601-1.6c-17.4,10-36.3,17.8-56.2,22.8C297.6,435.6,303.501,426.5,309.301,417.6
				 M355.7,410.9c-8.699,5.1-18.1,6.3-26.3,6.8c-8.3,0.5-15.3-1.7-18.399-2.9c0.199-0.3,0.399-0.6,0.6-0.899
				c1.7-2.601,3.2-4.9,4.4-6.9c1.6-2.4,2.8-4.4,4-6.2c0.5,0,1.3,0,2.199,0c7.2,0,25.301-0.399,37.7-3.899c2.5-0.7,4.9-1.4,7.2-2
				c5.6-1.601,10.4-2.9,14.2-4.2C373.4,398,364.801,404.8,355.7,410.9"/>
		</g>
		<g>
			<defs>
				<rect id="SVGID_11_" x="-191.3" y="-69.8" width="841.9" height="595.3"/>
			</defs>
			<clipPath id="SVGID_12_">
				<use xlink:href="#SVGID_11_"  overflow="visible"/>
			</clipPath>
			<path clip-path="url(#SVGID_12_)" fill="none" stroke="#000000" stroke-width="4" stroke-miterlimit="10" d="M391.1,386.1
				c42.4-42.3,65.8-98.399,65.8-158.1c0-59.9-23.5-116.2-66.3-158.6C347.801,27.1,291,3.8,230.5,3.8s-117.3,23.3-160,65.7
				C27.8,111.8,4.2,168.1,4.2,228c0,59.9,23.5,116.2,66.3,158.6c42.7,42.4,99.601,65.7,160,65.7c0.7,0,1.4,0,2.101,0c1,0,2,0,3,0
				l0,0c11.8,0,21.399-0.899,29.5-2.6c47.3-7.101,91-28.9,125.4-63.101C390.7,386.4,390.9,386.3,391.1,386.1
				C391.001,386.1,391.1,386.1,391.1,386.1L391.1,386.1z M333.6,385.6c1.3-0.399,2.9-0.8,4.7-1.199
				c13.399-3.4,38.5-9.7,62.399-28.101c9.601-7.399,18.5-14.899,24.801-20.8c-10.2,18-22.801,34.5-37.4,49
				c-3.1,2.2-11.4,4.5-21.6,7.3c-2.301,0.601-4.7,1.3-7.2,2c-12,3.4-29.9,3.8-36.9,3.8c2.101-2.899,4.101-5.3,7.101-8.3
				C330.801,387.8,332.2,386.6,333.6,385.6z M430.9,325.2c-2.8,4-15.899,16-32.2,28.5c-21.3,16.399-43.7,23-57.5,26.6
				c2.5-1.7,5.2-3.8,8.2-6.8c4.2-4.1,9.4-11.5,15.4-20.5c10.8-3.4,34.399-16.6,54.399-45.1c15.3-21.801,30.7-49.101,34.2-88.4
				c0.101,2.8,0.2,5.7,0.2,8.5C453.6,262.9,445.501,295.8,430.9,325.2z M432.2,190.8c-2.199-29.8-6.1-63-21.3-92.7
				c20.2,27.4,34.2,59.6,39.9,94.5c2.6,53.6-15.7,87.5-34.101,113.6c-17.399,24.7-37.3,37.6-48.8,42.399c1.9-3,3.9-6.1,6-9.3
				c8.5-13.2,18.2-28.1,27.7-40.5C412.2,285,436.4,247,432.2,190.8z M394.2,77.9c26.801,33.8,32,76,34.801,113.1
				c4.1,55.1-19.601,92.4-29.9,105.8c-9.6,12.5-19.3,27.5-27.9,40.7c-9.699,15-18.1,27.9-24,33.8c-3.8,3.8-7.1,6-10.3,8.101
				c-3.1,2.1-6.3,4.199-9.899,7.699C321.2,392.9,318.7,396.8,313.2,405.4c-1.3,2-2.699,4.3-4.399,6.899c-0.7,1-1.3,2.101-2,3.101
				c-8.2,12.8-16.601,25.899-42.7,31.3c-10.3,1.6-20.801,2.399-31.601,2.5c-58.1-1-76-30-78.8-54.5l-0.5-2.3
				C153,392.3,133,381.1,123.3,361c-3.699-7.7-7.1-12.9-9.399-17.8c-3.8-8.3-5.3-12.9-13.7-19.9c-18.4-15.2-35.6-28.899-48.8-55.1
				C37,239.7,25.8,189.8,41.4,142.8C57.5,94.5,61.3,85.3,98.7,49.7c36.9-26.9,82.5-42.8,131.7-42.8C295.1,6.9,353.4,34.3,394.2,77.9
				z M52.8,361.5c-9.5-12.4-17.699-25.8-24.5-40.1c7,8.8,16.4,16.5,34.801,27.3c25.1,14.8,53.199,15.899,58.699,16
				c3.9,7.2,9.2,13.3,14.301,18.2c-5.5,1.199-20.5,3.3-44.4-3C66.4,373.2,57.2,366.4,52.8,361.5z M71.7,72.9
				c-15.5,18.3-21.4,33.4-33.2,68.9c-16,47.9-4.5,98.8,10.2,127.8C62.3,296.5,80.3,310,98.6,325.9c7.399,6.5,7.6,8.6,12.1,17.1
				c-10.9-4-46.1-20.3-65-43.4c-22.3-27.3-37.3-68-36.5-99.1C15.4,151.1,38.1,106.7,71.7,72.9z M7.5,221.8
				c4.4,27.5,17.7,58,35.601,79.9c21.5,26.2,62.399,42.5,68.8,44.6c2.3,4.8,5.3,9,8.2,15.2c-7.9-0.3-32.9-2.2-55.4-15.5
				c-27.1-16-34.2-24.9-43.4-41.1C12.3,280.9,7.4,255,7.4,228C7.4,225.9,7.5,223.9,7.5,221.8z M61.3,372
				c6.301,3.5,15.601,7.3,29.601,11.1c13,3.5,23.5,4.5,31.3,4.5c9.4,0,14.9-1.5,16.7-2c6.399,5.601,10.1,8,12.1,9.2
				c0.601,4.8,1.7,9.8,3.4,14.7c-4.5,0.8-14.7,3.6-26.2,2.1c-15-1.899-26.6-7-40.2-13.5C78.4,390.1,69.5,381.4,61.3,372z M99,406.5
				c9.101,3.8,18.3,6.8,28.9,8.2c3.399,0.399,6.8,0.6,10.1,0.6c8.9,0,14.7-2.3,17.7-2.8c5.5,13.2,18.2,26.6,38.2,33.7
				C158.8,440.3,126.5,426.4,99,406.5z M309.301,417.6c2.7,1.101,9.399,3.5,17.6,3.5c0.9,0,1.8,0,2.8-0.1c4-0.3,8.3-0.7,12.601-1.6
				c-17.4,10-36.3,17.8-56.2,22.8C297.6,435.6,303.501,426.5,309.301,417.6z M355.7,410.9c-8.699,5.1-18.1,6.3-26.3,6.8
				c-8.3,0.5-15.3-1.7-18.399-2.9c0.199-0.3,0.399-0.6,0.6-0.899c1.7-2.601,3.2-4.9,4.4-6.9c1.6-2.4,2.8-4.4,4-6.2
				c0.5,0,1.3,0,2.199,0c7.2,0,25.301-0.399,37.7-3.899c2.5-0.7,4.9-1.4,7.2-2c5.6-1.601,10.4-2.9,14.2-4.2
				C373.4,398,364.801,404.8,355.7,410.9z"/>
		</g>
		<g>
			<defs>
				<rect id="SVGID_13_" x="-191.3" y="-69.8" width="841.9" height="595.3"/>
			</defs>
			<clipPath id="SVGID_14_">
				<use xlink:href="#SVGID_13_"  overflow="visible"/>
			</clipPath>
			<path clip-path="url(#SVGID_14_)" d="M221.1,271c0,2.4-2,4.4-4.4,4.4s-4.4-2-4.4-4.4s2-4.4,4.4-4.4
				C219.1,266.5,221.1,268.5,221.1,271"/>
		</g>
	</g>
</g>
</svg>
