<?xml version="1.0" encoding="utf-8"?>
<!-- Generator: Adobe Illustrator 14.0.0, SVG Export Plug-In . SVG Version: 6.00 Build 43363)  -->
<!DOCTYPE svg PUBLIC "-//W3C//DTD SVG 1.1//EN" "http://www.w3.org/Graphics/SVG/1.1/DTD/svg11.dtd">
<svg version="1.1" xmlns="http://www.w3.org/2000/svg" xmlns:xlink="http://www.w3.org/1999/xlink" x="0px" y="0px"
	 width="639.158px" height="84.042px" viewBox="0 0 639.158 84.042" enable-background="new 0 0 639.158 84.042"
	 xml:space="preserve">
<g id="Icon">
	<path fill="#64BC4F" stroke="#010101" d="M3.75,0c39.333,0,39.333,0,39.333,0L40.75,9.167h10.167l7.916,11.75L39,29.167L3.75,0z"/>
	<polygon fill="#EF3C24" stroke="#010101" points="0,15.917 0,84.042 36,84.042 39.75,62.292 34.125,44.292 	"/>
	<polygon fill="#4A57A6" stroke="#010101" points="69.875,43.917 48.25,43.917 52.375,59.542 48.25,84.042 91.015,84.042 
		91.015,48.917 79.52,56.571 	"/>
	<polygon fill="#F8ED34" stroke="#000000" points="91.015,41.664 91.015,0 61.057,0 72.377,20.832 85.928,12.195 88.912,25.586 
		76.035,30.283 81.786,39.272 81.786,39.272 88.993,36.68 	"/>
</g>
<g id="Text">
	
		<text transform="matrix(0.75 0 0 1 97.5 84.0405)" fill="#FFFFFF" stroke="#000000" stroke-width="3" font-family="'Impact'" font-size="104">TUNA KARATE CUP</text>
</g>
</svg>
