<?xml version="1.0" encoding="utf-8"?>
<!-- Generator: Adobe Illustrator 14.0.0, SVG Export Plug-In . SVG Version: 6.00 Build 43363)  -->
<!DOCTYPE svg PUBLIC "-//W3C//DTD SVG 1.1//EN" "http://www.w3.org/Graphics/SVG/1.1/DTD/svg11.dtd">
<svg version="1.1" xmlns="http://www.w3.org/2000/svg" xmlns:xlink="http://www.w3.org/1999/xlink" x="0px" y="0px" width="469px"
	 height="466px" viewBox="0 0 469 466" enable-background="new 0 0 469 466" xml:space="preserve">
<g id="Backgrund" display="none">
	<rect x="-82" y="-10" display="inline" stroke="#000000" width="670" height="512"/>
</g>
<g id="Layer_1" display="none">
	<g display="inline">
		<defs>
			<rect id="SVGID_1_" x="-187.4" y="-64.1" width="841.9" height="595.3"/>
		</defs>
		<clipPath id="SVGID_2_">
			<use xlink:href="#SVGID_1_"  overflow="visible"/>
		</clipPath>
		<path clip-path="url(#SVGID_2_)" fill="#FFFFFF" d="M461.3,233.6c0-59.9-23.5-116.2-66.3-158.6C352.2,32.7,295.4,9.4,235,9.4
			c-60.4,0-117.3,23.3-160,65.7C32.2,117.4,8.7,173.7,8.7,233.6c0,59.9,23.5,116.2,66.3,158.6c42.7,42.4,99.6,65.7,160,65.7
			c0.7,0,1.4,0,2.1,0c1,0,2,0,3,0h0c11.8,0,21.4-0.9,29.5-2.6c47.3-7.1,91-28.9,125.4-63.1c0.2-0.2,0.3-0.3,0.5-0.5c0,0,0,0,0,0l0,0
			C437.9,349.4,461.3,293.3,461.3,233.6 M257.1,13.7C342.6,24.1,409,96.5,409,184c0,30.7-8.3,60.9-24,87.2l-1.3,2.1l-0.1,0.1
			c-8,15.8-26,33-40.3,43c-3.7,2.6-7.3,4.3-11.2,6.2c-9.3,4.4-19.8,9.5-34.6,27c-4,4.8-7.8,6.8-11.5,6.1c-5-1-8.5-7-9.4-9.8
			c-0.5-1.6-1.2-4.6-2.1-8.4c-2.3-10.2-6.2-27.3-13.1-44.7c-10.3-26.2-21.8-38.9-35.1-38.9c-0.4,0-0.8,0-1.2,0
			c-12.8,0.7-18.1,4.8-23.4,12.1c-3.4,4.7-8.3,9.9-12.2,14.2c-1.9,2-3.5,3.8-4.7,5.2c-1.9,2.2-3,3.9-2.1,5.4c0.9,1.7,3.3,1.4,6.1,1
			c3.7-0.5,18.2,0,21.6,12.1c3.9,14.1-7.8,29.5-9.1,31.2c-2,1.5-4.5,3.2-7.3,5.1c-4,2.7-8.6,5.8-13.2,9.3
			c-6.3-6.7-18.1-19.1-32.6-26.1c-14.9-7.1-49.3-28.8-60.5-50l-1.4-2.4c-15.7-26.3-24-56.5-24-87.2c0-89.6,69.7-163.4,158.1-171
			c4.7-0.3,9.5-0.4,14.2-0.4C242.4,12.6,249.8,12.9,257.1,13.7"/>
		<path clip-path="url(#SVGID_2_)" fill="#EF423F" d="M333.4,119.5c0,53.8-43.6,97.4-97.4,97.4s-97.4-43.6-97.4-97.4
			c0-53.8,43.6-97.4,97.4-97.4S333.4,65.7,333.4,119.5"/>
		
			<circle clip-path="url(#SVGID_2_)" fill="none" stroke="#000000" stroke-width="4" stroke-miterlimit="10" cx="236" cy="119.5" r="97.4"/>
		<path clip-path="url(#SVGID_2_)" d="M397.8,83.5c26.8,33.8,32,76,34.8,113.1c4.1,55.1-19.6,92.4-29.9,105.8
			c-9.6,12.5-19.3,27.5-27.9,40.7c-9.7,15-18.1,27.9-24,33.8c-3.8,3.8-7.1,6-10.3,8.1c-3.1,2.1-6.3,4.2-9.9,7.7
			c-5.8,5.8-8.3,9.7-13.8,18.3c-1.3,2-2.7,4.3-4.4,6.9c-0.7,1-1.3,2.1-2,3.1c-8.2,12.8-16.6,25.9-42.7,31.3
			c-10.1,1.5-20.4,2.3-30.9,2.5c-28.5-0.4-49.5-7.4-62.5-21.1c-13.7-14.5-15.7-33.6-15-47c1-19.2,22.4-33.8,36.6-43.4
			c2.9-2,5.5-3.7,7.6-5.3l0.3-0.3c0.6-0.7,14.4-17.8,9.8-34.2c-3.7-13.1-18.5-15.4-25.1-14.4c-0.4,0.1-1.4,0.2-2.2,0.3
			c0.2-0.3,0.6-0.8,1.1-1.4c1.2-1.4,2.8-3.1,4.6-5.1c4-4.3,8.9-9.6,12.4-14.5c4.8-6.6,9.4-10.1,21-10.8
			c12.1-0.7,23.2,11.7,33.1,36.9c6.8,17.2,10.6,34.1,12.9,44.2c0.9,4.1,1.6,7,2.2,8.7c0.9,2.9,4.9,10.5,11.9,11.9
			c4.8,0.9,9.7-1.5,14.5-7.2c14.3-17,24.5-21.9,33.5-26.2c4-1.9,7.8-3.8,11.7-6.5c13.5-9.5,32.4-26.8,41.2-44.1l1.2-2
			c16-26.8,24.4-57.5,24.4-88.8c0-69.8-41.5-130.2-101.4-158.2C344.3,38.1,374,58.1,397.8,83.5 M235,12.6c4.8,0,9.5,0.2,14.2,0.5
			C338.5,19.9,409,94,409,184.2c0,30.7-8.3,60.9-24,87.2l-1.3,2.1l-0.1,0.1c-8,15.8-26,33-40.3,43c-3.7,2.6-7.3,4.3-11.2,6.2
			c-9.3,4.4-19.8,9.5-34.6,27c-4,4.8-7.8,6.8-11.5,6.1c-5-1-8.5-7-9.4-9.8c-0.5-1.6-1.2-4.6-2.1-8.4c-2.3-10.2-6.2-27.3-13.1-44.7
			c-10.3-26.2-21.8-38.9-35.1-38.9c-0.4,0-0.8,0-1.2,0c-12.8,0.7-18.1,4.8-23.4,12.1c-3.4,4.7-8.3,9.9-12.2,14.2
			c-1.9,2-3.5,3.8-4.7,5.2c-1.9,2.2-3,3.9-2.1,5.4c0.9,1.7,3.3,1.4,6.1,1c3.7-0.5,18.2,0,21.6,12.1c3.9,14.1-7.8,29.5-9.1,31.2
			c-2,1.5-4.5,3.2-7.3,5.1c-4,2.7-8.6,5.8-13.2,9.3c-6.3-6.8-18.1-19.1-32.6-26.1c-14.9-7.1-49.3-28.8-60.5-50l-1.4-2.4
			c-15.7-26.3-24-56.5-24-87.2C62.6,89.8,139.8,13,235,12.6 M394.2,75c-39.6-39.3-91.4-62.2-146.9-65.3c-3.8-0.2-7.7-0.4-11.6-0.4
			c-0.3,0-0.5,0-0.8,0c-0.3,0-0.5,0-0.8,0c-40.2,2.2-63.4,12.3-63.4,12.3C105.6,47.3,59.4,110.5,59.4,184.2c0,31.3,8.5,62,24.4,88.9
			l1.4,2.2c11.5,22,46.7,44.1,61.9,51.4c13.9,6.6,25.3,18.5,31.5,25.2c-11.2,9-21.6,20.5-22.3,34.5c-0.2,3.4-0.2,7.1,0.1,11l0.4,4
			c0.6,4.8,1.7,9.7,3.4,14.7l1.2,3c2.4,5.8,5.9,11.6,10.8,16.7c6.6,7,15.2,12.3,25.7,16c0,0,15.7,6.8,36.3,6.1c1,0,1.9,0,2.8,0
			c0.7,0,1.5,0,2.2,0h0c11.8,0,21.4-0.9,29.5-2.6c0,0,9.4-0.9,20.9-7.5c11.6-6.6,17.5-15.7,23.2-24.6c0,0,1.6-2.4,1.8-2.7
			c0.2-0.3,0.4-0.6,0.6-0.9c1.7-2.6,3.2-4.9,4.4-6.9c1.6-2.4,2.8-4.4,4-6.2l2.2-3.2c2.1-2.9,4.1-5.3,7.1-8.3
			c1.5-1.5,2.9-2.7,4.3-3.8c0,0,2.4-1.5,7.6-5.3c2.5-1.7,5.2-3.8,8.2-6.8c4.2-4.1,9.4-11.5,15.4-20.5c0,0,1-1.5,3-4.5
			c1.9-3,3.9-6.1,6-9.3c8.5-13.2,18.2-28.1,27.7-40.5c10.6-13.7,34.8-51.8,30.6-108c-2.2-29.8-6.1-63-21.3-92.7
			C402.6,80.3,394.2,75,394.2,75"/>
		<path clip-path="url(#SVGID_2_)" d="M394.9,391.7c42.4-42.3,65.8-98.4,65.8-158.1c0-59.9-23.5-116.2-66.3-158.6
			c-42.7-42.4-99.6-65.7-160-65.7s-117.3,23.3-160,65.7C31.6,117.5,8.1,173.8,8.1,233.7c0,59.9,23.5,116.2,66.3,158.6
			c42.7,42.4,99.6,65.7,160,65.7c0.7,0,1.4,0,2.1,0c1,0,2,0,3,0h0c11.8,0,21.4-0.9,29.5-2.6c47.3-7.1,91-28.9,125.4-63.1
			C394.6,392.1,394.7,391.9,394.9,391.7C394.9,391.8,394.9,391.8,394.9,391.7L394.9,391.7z M337.5,391.2c1.3-0.4,2.9-0.8,4.7-1.2
			c13.4-3.4,38.5-9.7,62.4-28.1c9.6-7.4,18.5-14.9,24.8-20.8c-10.2,18-22.8,34.5-37.4,49c-3.1,2.2-11.4,4.5-21.6,7.3
			c-2.3,0.6-4.7,1.3-7.2,2c-12,3.4-29.9,3.8-36.9,3.8c2.1-2.9,4.1-5.3,7.1-8.3C334.7,393.5,336.1,392.3,337.5,391.2 M434.8,330.8
			c-2.8,4-15.9,16-32.2,28.5c-21.3,16.4-43.7,23-57.5,26.6c2.5-1.7,5.2-3.8,8.2-6.8c4.2-4.1,9.4-11.5,15.4-20.5
			c10.8-3.4,34.4-16.6,54.4-45.1c15.3-21.8,30.7-49.1,34.2-88.4c0.1,2.8,0.2,5.7,0.2,8.5C457.5,268.5,449.3,301.5,434.8,330.8
			 M436,196.4c-2.2-29.8-6.1-63-21.3-92.7c20.2,27.4,34.2,59.6,39.9,94.5c2.6,53.6-15.7,87.5-34.1,113.6
			c-17.4,24.7-37.3,37.6-48.8,42.4c1.9-3,3.9-6.1,6-9.3c8.5-13.2,18.2-28.1,27.7-40.5C416,290.7,440.2,252.7,436,196.4 M398,83.6
			c26.8,33.8,32,76,34.8,113.1c4.1,55.1-19.6,92.4-29.9,105.8c-9.6,12.5-19.3,27.5-27.9,40.7c-9.7,15-18.1,27.9-24,33.8
			c-3.8,3.8-7.1,6-10.3,8.1c-3.1,2.1-6.3,4.2-9.9,7.7c-5.8,5.8-8.3,9.7-13.8,18.3c-1.3,2-2.7,4.3-4.4,6.9c-0.7,1-1.3,2.1-2,3.1
			c-8.2,12.8-16.6,25.9-42.7,31.3c-10.3,1.6-20.8,2.4-31.6,2.5c-58.1-1-76-30-78.8-54.5l-0.5-2.3c-0.2-0.1-20.2-11.3-29.9-31.4
			c-3.7-7.7-7.1-12.9-9.4-17.8c-3.8-8.3-5.3-12.9-13.7-19.9c-18.4-15.2-35.6-28.9-48.8-55.1c-14.4-28.5-25.6-78.4-10-125.4
			c16.1-48.3,19.9-57.5,57.3-93.1c36.9-26.9,82.5-42.8,131.7-42.8C299,12.6,357.3,40,398,83.6 M56.6,367.2
			c-9.5-12.4-17.7-25.8-24.5-40.1c7,8.8,16.4,16.5,34.8,27.3c25.1,14.8,53.2,15.9,58.7,16c3.9,7.2,9.2,13.3,14.3,18.2
			c-5.5,1.2-20.5,3.3-44.4-3C70.3,378.9,61.1,372,56.6,367.2 M75.6,78.6C60,96.9,54.1,112,42.3,147.4c-16,47.9-4.5,98.8,10.2,127.8
			c13.6,26.9,31.6,40.4,49.9,56.3c7.4,6.5,7.6,8.6,12.1,17.1c-10.9-4-46.1-20.3-65-43.4c-22.3-27.3-37.3-68-36.5-99.1
			C19.2,156.8,42,112.4,75.6,78.6 M11.4,227.4c4.4,27.5,17.7,58,35.6,79.9c21.5,26.2,62.4,42.5,68.8,44.6c2.3,4.8,5.3,9,8.2,15.2
			c-7.9-0.3-32.9-2.2-55.4-15.5c-27.1-16-34.2-24.9-43.4-41.1c-9-24-13.9-49.9-13.9-76.9C11.3,231.6,11.3,229.5,11.4,227.4
			 M65.2,377.6c6.3,3.5,15.6,7.3,29.6,11.1c13,3.5,23.5,4.5,31.3,4.5c9.4,0,14.9-1.5,16.7-2c6.4,5.6,10.1,8,12.1,9.2
			c0.6,4.8,1.7,9.8,3.4,14.7c-4.5,0.8-14.7,3.6-26.2,2.1c-15-1.9-26.6-7-40.2-13.5C82.3,395.7,73.3,387,65.2,377.6 M102.8,412.1
			c9.1,3.8,18.3,6.8,28.9,8.2c3.4,0.4,6.8,0.6,10.1,0.6c8.9,0,14.7-2.3,17.7-2.8c5.5,13.2,18.2,26.6,38.2,33.7
			C162.7,446,130.4,432.1,102.8,412.1 M313.1,423.2c2.7,1.1,9.4,3.5,17.6,3.5c0.9,0,1.8,0,2.8-0.1c4-0.3,8.3-0.7,12.6-1.6
			c-17.4,10-36.3,17.8-56.2,22.8C301.5,441.2,307.4,432.2,313.1,423.2 M359.6,416.6c-8.7,5.1-18.1,6.3-26.3,6.8
			c-8.3,0.5-15.3-1.7-18.4-2.9c0.2-0.3,0.4-0.6,0.6-0.9c1.7-2.6,3.2-4.9,4.4-6.9c1.6-2.4,2.8-4.4,4-6.2c0.5,0,1.3,0,2.2,0
			c7.2,0,25.3-0.4,37.7-3.9c2.5-0.7,4.9-1.4,7.2-2c5.6-1.6,10.4-2.9,14.2-4.2C377.2,403.7,368.6,410.5,359.6,416.6"/>
		<path clip-path="url(#SVGID_2_)" fill="none" stroke="#000000" stroke-width="4" stroke-miterlimit="10" d="M394.9,391.7
			c42.4-42.3,65.8-98.4,65.8-158.1c0-59.9-23.5-116.2-66.3-158.6c-42.7-42.4-99.6-65.7-160-65.7s-117.3,23.3-160,65.7
			C31.6,117.5,8.1,173.8,8.1,233.7c0,59.9,23.5,116.2,66.3,158.6c42.7,42.4,99.6,65.7,160,65.7c0.7,0,1.4,0,2.1,0c1,0,2,0,3,0h0
			c11.8,0,21.4-0.9,29.5-2.6c47.3-7.1,91-28.9,125.4-63.1C394.6,392.1,394.7,391.9,394.9,391.7C394.9,391.8,394.9,391.8,394.9,391.7
			L394.9,391.7z M337.5,391.2c1.3-0.4,2.9-0.8,4.7-1.2c13.4-3.4,38.5-9.7,62.4-28.1c9.6-7.4,18.5-14.9,24.8-20.8
			c-10.2,18-22.8,34.5-37.4,49c-3.1,2.2-11.4,4.5-21.6,7.3c-2.3,0.6-4.7,1.3-7.2,2c-12,3.4-29.9,3.8-36.9,3.8
			c2.1-2.9,4.1-5.3,7.1-8.3C334.7,393.5,336.1,392.3,337.5,391.2z M434.8,330.8c-2.8,4-15.9,16-32.2,28.5
			c-21.3,16.4-43.7,23-57.5,26.6c2.5-1.7,5.2-3.8,8.2-6.8c4.2-4.1,9.4-11.5,15.4-20.5c10.8-3.4,34.4-16.6,54.4-45.1
			c15.3-21.8,30.7-49.1,34.2-88.4c0.1,2.8,0.2,5.7,0.2,8.5C457.5,268.5,449.3,301.5,434.8,330.8z M436,196.4
			c-2.2-29.8-6.1-63-21.3-92.7c20.2,27.4,34.2,59.6,39.9,94.5c2.6,53.6-15.7,87.5-34.1,113.6c-17.4,24.7-37.3,37.6-48.8,42.4
			c1.9-3,3.9-6.1,6-9.3c8.5-13.2,18.2-28.1,27.7-40.5C416,290.7,440.2,252.7,436,196.4z M398,83.6c26.8,33.8,32,76,34.8,113.1
			c4.1,55.1-19.6,92.4-29.9,105.8c-9.6,12.5-19.3,27.5-27.9,40.7c-9.7,15-18.1,27.9-24,33.8c-3.8,3.8-7.1,6-10.3,8.1
			c-3.1,2.1-6.3,4.2-9.9,7.7c-5.8,5.8-8.3,9.7-13.8,18.3c-1.3,2-2.7,4.3-4.4,6.9c-0.7,1-1.3,2.1-2,3.1
			c-8.2,12.8-16.6,25.9-42.7,31.3c-10.3,1.6-20.8,2.4-31.6,2.5c-58.1-1-76-30-78.8-54.5l-0.5-2.3c-0.2-0.1-20.2-11.3-29.9-31.4
			c-3.7-7.7-7.1-12.9-9.4-17.8c-3.8-8.3-5.3-12.9-13.7-19.9c-18.4-15.2-35.6-28.9-48.8-55.1c-14.4-28.5-25.6-78.4-10-125.4
			c16.1-48.3,19.9-57.5,57.3-93.1c36.9-26.9,82.5-42.8,131.7-42.8C299,12.6,357.3,40,398,83.6z M56.6,367.2
			c-9.5-12.4-17.7-25.8-24.5-40.1c7,8.8,16.4,16.5,34.8,27.3c25.1,14.8,53.2,15.9,58.7,16c3.9,7.2,9.2,13.3,14.3,18.2
			c-5.5,1.2-20.5,3.3-44.4-3C70.3,378.9,61.1,372,56.6,367.2z M75.6,78.6C60,96.9,54.1,112,42.3,147.4c-16,47.9-4.5,98.8,10.2,127.8
			c13.6,26.9,31.6,40.4,49.9,56.3c7.4,6.5,7.6,8.6,12.1,17.1c-10.9-4-46.1-20.3-65-43.4c-22.3-27.3-37.3-68-36.5-99.1
			C19.2,156.8,42,112.4,75.6,78.6z M11.4,227.4c4.4,27.5,17.7,58,35.6,79.9c21.5,26.2,62.4,42.5,68.8,44.6c2.3,4.8,5.3,9,8.2,15.2
			c-7.9-0.3-32.9-2.2-55.4-15.5c-27.1-16-34.2-24.9-43.4-41.1c-9-24-13.9-49.9-13.9-76.9C11.3,231.6,11.3,229.5,11.4,227.4z
			 M65.2,377.6c6.3,3.5,15.6,7.3,29.6,11.1c13,3.5,23.5,4.5,31.3,4.5c9.4,0,14.9-1.5,16.7-2c6.4,5.6,10.1,8,12.1,9.2
			c0.6,4.8,1.7,9.8,3.4,14.7c-4.5,0.8-14.7,3.6-26.2,2.1c-15-1.9-26.6-7-40.2-13.5C82.3,395.7,73.3,387,65.2,377.6z M102.8,412.1
			c9.1,3.8,18.3,6.8,28.9,8.2c3.4,0.4,6.8,0.6,10.1,0.6c8.9,0,14.7-2.3,17.7-2.8c5.5,13.2,18.2,26.6,38.2,33.7
			C162.7,446,130.4,432.1,102.8,412.1z M313.1,423.2c2.7,1.1,9.4,3.5,17.6,3.5c0.9,0,1.8,0,2.8-0.1c4-0.3,8.3-0.7,12.6-1.6
			c-17.4,10-36.3,17.8-56.2,22.8C301.5,441.2,307.4,432.2,313.1,423.2z M359.6,416.6c-8.7,5.1-18.1,6.3-26.3,6.8
			c-8.3,0.5-15.3-1.7-18.4-2.9c0.2-0.3,0.4-0.6,0.6-0.9c1.7-2.6,3.2-4.9,4.4-6.9c1.6-2.4,2.8-4.4,4-6.2c0.5,0,1.3,0,2.2,0
			c7.2,0,25.3-0.4,37.7-3.9c2.5-0.7,4.9-1.4,7.2-2c5.6-1.6,10.4-2.9,14.2-4.2C377.2,403.7,368.6,410.5,359.6,416.6z"/>
		<path clip-path="url(#SVGID_2_)" d="M225,276.6c0,2.4-2,4.4-4.4,4.4c-2.4,0-4.4-2-4.4-4.4c0-2.4,2-4.4,4.4-4.4
			C223,272.2,225,274.2,225,276.6"/>
	</g>
</g>
</svg>
