<?xml version="1.0" encoding="utf-8"?>
<!-- Generator: Adobe Illustrator 14.0.0, SVG Export Plug-In . SVG Version: 6.00 Build 43363)  -->
<!DOCTYPE svg PUBLIC "-//W3C//DTD SVG 1.1//EN" "http://www.w3.org/Graphics/SVG/1.1/DTD/svg11.dtd">
<svg version="1.1" id="Vector" xmlns="http://www.w3.org/2000/svg" xmlns:xlink="http://www.w3.org/1999/xlink" x="0px" y="0px"
	 width="93.3px" height="86px" viewBox="0 0 93.3 86" enable-background="new 0 0 93.3 86" xml:space="preserve">
<path fill="#3DDD51" stroke="#000000" d="M4.8,1.2c39.3,0,39.3,0,39.3,0l-2.3,9.2H52l7.9,11.8l-19.8,8.3L4.8,1.2z"/>
<polygon fill="#FE3100" stroke="#000000" points="1.1,17.1 1.1,85.2 37.1,85.2 40.8,63.5 35.2,45.5 "/>
<polygon fill="#3733FC" stroke="#000000" points="70.9,45.1 49.3,45.1 53.4,60.7 49.3,85.2 92.1,85.2 92.1,50.1 80.6,57.8 "/>
<polygon fill="#FDF720" stroke="#000000" points="92.1,42.9 92.1,1.2 62.1,1.2 73.4,22 87,13.4 90,26.8 77.1,31.5 82.8,40.5 
	82.8,40.5 90,37.9 "/>
</svg>
