<?xml version="1.0" encoding="utf-8"?>
<!-- Generator: Adobe Illustrator 14.0.0, SVG Export Plug-In . SVG Version: 6.00 Build 43363)  -->
<!DOCTYPE svg PUBLIC "-//W3C//DTD SVG 1.1//EN" "http://www.w3.org/Graphics/SVG/1.1/DTD/svg11.dtd">
<svg version="1.1" xmlns="http://www.w3.org/2000/svg" xmlns:xlink="http://www.w3.org/1999/xlink" x="0px" y="0px" width="3964px"
	 height="604px" viewBox="0 0 3964 604" enable-background="new 0 0 3964 604" xml:space="preserve">
<g id="Layer_1">
	
		<g id="svg2" xmlns:svg="http://www.w3.org/2000/svg" xmlns:inkscape="http://www.inkscape.org/namespaces/inkscape" xmlns:sodipodi="http://sodipodi.sourceforge.net/DTD/sodipodi-0.dtd" sodipodi:docname="TKC-banner_Wado.eps">
		
			<sodipodi:namedview  id="namedview4" borderopacity="0.25" bordercolor="#000000" pagecolor="#ffffff" inkscape:deskcolor="#d1d1d1" inkscape:pageopacity="0.0" inkscape:showpageshadow="2" inkscape:pagecheckerboard="0">
			</sodipodi:namedview>
		<g id="g8" transform="matrix(1.3333333,0,0,-1.3333333,0,807.16)" inkscape:label="ink_ext_XXXXXX" inkscape:groupmode="layer">
			<g id="g10" transform="scale(0.1)">
				<path id="path12" fill="#5CC240" d="M438.599,5261.599c1528.001,0,1528.001,0,1528.001,0l-90.699-356.096h394.999l307.5-456.504
					l-770.5-320.501L438.599,5261.599"/>
				<path id="path14" fill="none" stroke="#100F0D" stroke-width="10" d="M438.599,5261.599c1528.001,0,1528.001,0,1528.001,0
					l-90.699-356.096h394.999l307.5-456.504l-770.5-320.501L438.599,5261.599z"/>
				<path id="path16" fill="#EE2E21" d="M292.899,4643.303V1996.799H1691.4l145.701,844.9l-218.5,699.302L292.899,4643.303"/>
				<path id="path18" fill="none" stroke="#100F0D" stroke-width="10" d="M292.899,4643.303V1996.799H1691.4l145.701,844.9
					l-218.5,699.302L292.899,4643.303z"/>
				<path id="path20" fill="#484EAA" d="M3007.401,3555.605h-840.103l160.203-607.002l-160.203-951.702h1661.298v1364.502
					l-446.499-297.4L3007.401,3555.605"/>
				<path id="path22" fill="none" stroke="#100F0D" stroke-width="10" d="M3007.401,3555.605h-840.103l160.203-607.002
					l-160.203-951.702h1661.298v1364.502l-446.499-297.4L3007.401,3555.605z"/>
				<path id="path24" fill="#F1EF1F" d="M3828.604,3643.1v1618.499H2664.8l439.801-809.297l526.396,335.5l115.906-520.203
					l-500.2-182.497l223.396-349.197l0,0l280.005,100.693L3828.604,3643.1"/>
				<path id="path26" fill="none" stroke="#000000" stroke-width="10" d="M3828.604,3643.1v1618.499H2664.8l439.801-809.297
					l526.396,335.5l115.906-520.203l-500.2-182.497l223.396-349.197l0,0l280.005,100.693L3828.604,3643.1z"/>
				<g id="g28" transform="scale(10)">
					<g id="text32" transform="matrix(0.75,0,0,-1,1066.82,133.553)">
						<path id="path122" fill="#F57A14" d="M-694.4-385.5v63.9h-49.3v255.5h-83.1v-255.5H-875.9v-63.9H-694.4z"/>
						<path id="path124" fill="#F57A14" d="M-486.7-385.5v213.4c0,24.2-0.8,41.2-2.4,51.1c-1.6,9.699-6.199,19.8-14,30.2
							c-7.8,10.3-18,18.1-30.8,23.5c-12.6,5.3-27.6,7.9-44.8,7.9c-19.1,0-35.9-3.2-50.5-9.5c-14.6-6.3-25.5-14.5-32.7-24.7
							c-7.2-10.1-11.5-20.8-12.8-32c-1.3-11.3-2-35-2-71V-385.6h83.1v239.5c0,13.9,0.7,22.9,2.2,26.8c1.601,3.8,4.7,5.7,9.3,5.7
							c5.301,0,8.601-2.1,10.101-6.3c1.6-4.3,2.399-14.5,2.399-30.401V-385.6h82.9V-385.5L-486.7-385.5z"/>
						<path id="path126" fill="#F57A14" d="M-269-385.5v319.4h-72.8L-385-211.3v145.2h-69.4v-319.4h69.4l46.6,143.8v-143.8H-269z"/>
						<path id="path128" fill="#F57A14" d="M-92.4-385.5l47.601,319.4h-85l-4.101-57.4h-29.8l-5,57.4h-86l42.2-319.4H-92.4z
							 M-136.4-180.101C-140.6-216.3-144.799-260.9-149-314c-8.4,61-13.7,105.699-15.8,133.899H-136.4z"/>
						<path id="path130" fill="#F57A14" d="M217.1-385.5l-47.5,144.2l52,175.2h-85.8L102.3-203v136.9h-83.1v-319.4h83.1v124.1
							l36.9-124.1H217.1z"/>
						<path id="path132" fill="#F57A14" d="M387.5-385.5l47.6,319.4h-85l-4.1-57.4h-29.8l-5,57.4h-86L267.4-385.5H387.5z
							 M343.5-180.101C339.3-216.3,335.1-260.9,330.9-314c-8.399,61-13.699,105.699-15.8,133.899H343.5z"/>
						<path id="path134" fill="#F57A14" d="M449.3-385.5h58.8c39.2,0,65.7,1.5,79.5,4.5c13.9,3,25.3,10.8,33.9,23.3
							c8.8,12.401,13.2,32.2,13.2,59.4c0,24.9-3.101,41.6-9.301,50.1c-6.199,8.5-18.3,13.7-36.5,15.4c16.4,4.1,27.5,9.5,33.101,16.4
							c5.6,6.9,9.1,13.2,10.5,18.9c1.399,5.7,2.2,21.4,2.2,47.1v84.3H557.6V-172.2c0-17.101-1.399-27.7-4.1-31.8
							c-2.601-4.1-9.7-6.1-21.101-6.1v144h-83.1V-385.5z M532.3-330.8v71c9.3,0,15.8-1.2,19.5-3.7c3.8-2.6,5.7-11,5.7-25.1v-17.6
							c0-10.1-1.8-16.8-5.5-19.9C548.5-329.3,541.9-330.8,532.3-330.8L532.3-330.8z"/>
						<path id="path136" fill="#F57A14" d="M810.3-385.5l47.5,319.4h-85l-4.1-57.4H738.9l-5,57.4h-86l42.2-319.4H810.3z
							 M766.3-180.101c-4.2-36.2-8.4-80.799-12.6-133.899C745.3-253,740-208.3,737.9-180.101H766.3z"/>
						<path id="path138" fill="#F57A14" d="M1017-385.5v63.9h-49.3v255.5H884.6v-255.5h-49.1v-63.9H1017z"/>
						<path id="path140" fill="#F57A14" d="M1036-385.5h138.5v63.9h-55.4v60.6h51.9v60.8h-51.9v70.2h61v63.899h-144L1036-385.5
							L1036-385.5z"/>
						<path id="path142" fill="#F57A14" d="M1447.6-246.2h-83.1v-55.6c0-16.2-0.9-26.2-2.8-30.2c-1.7-4.1-5.601-6.1-11.601-6.1
							c-6.8,0-11.2,2.4-13,7.3s-2.8,15.4-2.8,31.6v148.3c0,15.5,0.9,25.6,2.8,30.4c1.8,4.7,6,7.1,12.4,7.1c6.2,0,10.2-2.4,12-7.1
							c2-4.7,3-15.8,3-33.3V-193.8h83.1v12.401c0,33-2.399,56.399-7.1,70.2c-4.601,13.8-14.9,25.9-31,36.3
							c-15.9,10.4-35.601,15.601-59,15.601c-24.3,0-44.4-4.4-60.2-13.2s-26.2-21-31.4-36.5c-5.1-15.7-7.699-39.1-7.699-70.4v-93.3
							c0-23,0.8-40.2,2.399-51.7c1.601-11.6,6.2-22.7,14-33.3c7.9-10.7,18.7-19,32.5-25.099c13.9-6.2,29.9-9.3,47.9-9.3
							c24.5,0,44.6,4.7,60.6,14.2c15.9,9.5,26.4,21.3,31.4,35.5c5,14.1,7.5,36,7.5,65.9L1447.6-246.2L1447.6-246.2z"/>
						<path id="path144" fill="#F57A14" d="M1666.201-385.5v213.4c0,24.2-0.801,41.2-2.4,51.1c-1.6,9.699-6.2,19.8-14,30.2
							c-7.801,10.3-18,18.1-30.801,23.5c-12.6,5.3-27.6,7.9-44.799,7.9c-19.101,0-35.9-3.2-50.5-9.5
							c-14.601-6.3-25.5-14.5-32.701-24.7c-7.199-10.1-11.5-20.8-12.799-32c-1.301-11.3-2-35-2-71V-385.6h83.1v239.5
							c0,13.9,0.699,22.9,2.199,26.8c1.601,3.8,4.7,5.7,9.301,5.7c5.3,0,8.6-2.1,10.1-6.3c1.6-4.3,2.4-14.5,2.4-30.401V-385.6h82.9
							V-385.5z"/>
						<path id="path146" fill="#F57A14" d="M1698.3-385.5h83.6c22.601,0,40,1.8,52.101,5.3c12.2,3.601,21.399,8.7,27.399,15.401
							c6.2,6.699,10.301,14.9,12.4,24.5c2.2,9.5,3.4,24.2,3.4,44.2v27.8c0,20.4-2.101,35.2-6.301,44.6c-4.199,9.3-12,16.5-23.3,21.5
							c-11.2,5-25.8,7.5-44,7.5h-22.3v128.599h-83.1v-319.4H1698.3z M1781.4-330.8v81.3c2.4,0.1,4.4,0.2,6.101,0.2
							c7.6,0,12.899-1.8,15.8-5.5c3-3.8,4.5-11.6,4.5-23.5v-26.2c0-10.9-1.7-18-5.1-21.3C1799.3-329.2,1792.201-330.8,1781.4-330.8z
							"/>
					</g>
				</g>
				<path id="path34" fill="none" stroke="#231F20" stroke-width="30" d="M4098.802,5191.404v-638.101h369.5V1996.799h624.001
					v2556.504H5458.8v638.101H4098.802z M6392.198,5191.404V2836.901c0-161.499-6.094-262.5-18.201-302.9
					c-9.097-44.399-33.296-64.6-72.7-64.6c-33.296,0-57.495,20.2-66.599,56.499c-12.1,40.4-18.201,129.199-18.201,270.601v2394.903
					h-623.899V3301.301c0-363.501,5.999-597.7,15.103-710.801c9.097-113.101,42.4-218.101,96.899-318.999
					c54.602-105,136.296-185.801,245.398-250.4c108.999-60.601,233.203-92.901,378.604-92.901
					c127.2,0,239.297,28.301,336.196,80.801c93.904,52.5,169.6,129.199,227.205,234.302c60.601,105,93.896,201.899,105.996,302.9
					c12.1,96.899,18.201,266.602,18.201,508.901v2136.395h-624.001V5191.404z M8128.404,5191.404V3753.601l-348.303,1437.7H7259.1
					V1996.799h521.001V3450.7l324.097-1453.901h545.201v3194.502h-520.994V5191.404z M9074.1,5191.404l-315-3194.502h645.104
					l33.295,573.501H9661.7l33.296-573.501h639.104L9976.7,5191.404H9074.1z M9434.503,3135.7
					c15.198,282.7,54.499,731.001,118.096,1344.8c33.398-533.101,63.698-981.402,93.903-1344.8H9434.503z M11717.498,5191.404
					l-281.696-1239.903v1239.903h-623.899V1996.799h623.899V3365.9l254.502-1369.102h642.1L11941.7,3749.499l357.399,1441.802
					h-581.602V5191.404z M12671.199,5191.404l-315-3194.502h645.198l33.304,573.501h224.201l33.296-573.501h639.104l-357.4,3194.502
					H12671.199z M13031.697,3135.7c15.104,282.7,54.5,731.001,118.104,1344.8c33.296-533.101,63.596-981.402,93.896-1344.8
					H13031.697z M14037.299,1996.799h623.898v1441.802c84.902,0,136.406-20.2,157.603-60.601s30.198-149.399,30.198-319.102v-1062.1
					h578.605V2840.9c0,258.501-6.102,416.001-15.205,472.5c-12.1,56.499-36.299,121.201-78.699,189.8
					c-42.399,64.6-127.199,121.201-248.4,161.499c136.304,16.106,227.197,68.701,272.6,153.501
					c45.403,84.8,69.697,254.399,69.697,500.801c0,274.6-33.398,472.5-96.994,593.702
					c-66.606,125.2-151.406,201.899-254.399,234.294c-106.003,28.301-302.9,44.407-596.704,44.407h-442.199V1996.799
					L14037.299,1996.799z M14809.703,4597.703c27.195-32.3,39.295-96.899,39.295-197.901v-177.7
					c0-137.3-15.096-222.099-42.4-246.299c-27.202-28.301-75.695-40.4-145.4-40.4v710.801
					C14733.897,4645.999,14782.398,4630.002,14809.703,4597.703L14809.703,4597.703z M15841.803,5191.404l-315-3194.502H16172
					l33.304,573.501h224.194l33.303-573.501h639.098l-357.4,3194.502H15841.803z M16202.301,3135.7
					c15.103,282.7,54.5,731.001,118.096,1344.8c33.303-533.101,63.604-981.402,93.904-1344.8H16202.301z M16934.803,5191.404
					v-638.101h369.5V1996.799h623.994v2556.504h366.504v638.101H16934.803z M18437.695,1996.799H19519v638.101h-457.398v702.7
					h387.701v605.801h-387.701v609.903h414.998v638.101h-1038.904V1996.799z M21524.297,4100.9
					c0,298.901-18.191,516.9-57.598,658.301c-36.297,141.401-115.1,258.501-233.195,355.4
					c-121.201,92.9-272.6,141.401-454.299,141.401c-136.303,0-254.502-32.3-360.506-92.9c-103-60.601-184.695-145.4-242.299-250.4
					c-60.602-105-93.904-218.101-106.004-331.201c-12.1-117.1-18.193-290.801-18.193-516.9V3127.6
					c0-311.001,18.193-545.2,57.598-702.7c39.301-153.501,118.096-274.6,236.199-363.501
					c118.197-88.799,266.602-133.294,451.303-133.294c175.701,0,321.102,52.5,442.303,157.5
					c121.098,100.994,196.795,226.194,233.195,363.494c33.305,137.3,51.496,371.602,51.496,702.7v125.2h-623.992v-403.894
					c0-173.701-6.008-286.802-21.205-331.201c-15.096-48.398-45.402-72.7-90.9-72.7c-48.398,0-78.699,24.199-90.799,72.7
					c-15.197,44.399-21.203,145.4-21.203,302.9v1482.195c0,161.602,6.006,266.602,21.203,315c12.1,48.501,45.404,72.7,96.9,72.7
					c45.402,0,72.699-20.2,84.799-60.601c15.197-40.4,21.205-141.401,21.205-302.901v-553.293h623.992V4100.9z M22538.703,5191.404
					V2836.901c0-161.499-6.008-262.5-18.105-302.9c-9.098-44.399-33.297-64.6-72.701-64.6c-33.398,0-57.598,20.2-66.693,56.499
					c-12.102,40.4-18.105,129.199-18.105,270.601v2394.903h-623.996V3301.301c0-363.501,6.094-597.7,15.199-710.801
					c9-113.101,42.398-218.101,96.898-318.999c54.5-105,136.305-185.801,245.303-250.4c109-60.601,233.197-92.901,378.596-92.901
					c127.201,0,239.305,28.301,336.205,80.801c93.896,52.5,169.693,129.199,227.197,234.302c60.6,105,93.902,201.899,106.004,302.9
					c12.098,96.899,18.191,266.602,18.191,508.901v2136.395h-623.992V5191.404z M23405.305,1996.799h623.898V3285.1h166.596
					c136.305,0,245.398,24.199,330.197,76.699c84.801,48.501,142.406,121.201,172.604,214.102
					c33.398,92.9,48.502,242.3,48.502,444.302v278.701c0,197.901-9.098,347.3-24.199,440.201
					c-15.207,96.899-48.502,177.7-93.904,246.394c-45.498,64.6-115.1,117.1-205.994,153.501
					c-90.908,36.299-221.104,52.5-390.703,52.5h-626.996V1996.799z M24186.797,4597.703c27.203-32.3,39.303-105,39.303-214.102
					v-262.5c0-117.099-12.1-197.9-33.295-234.199c-21.205-36.401-60.602-56.499-118.104-56.499c-12.1,0-27.299,0-45.498,0v815.801
					C24111,4645.999,24162.496,4630.002,24186.797,4597.703z"/>
			</g>
		</g>
		<g>
			<g id="XMLID_1_">
				<g>
					<path fill="#FFFFFF" d="M3638.7,30c151.5,0,274.3,122.8,274.3,274.3s-122.8,274.3-274.3,274.3s-274.3-122.8-274.3-274.3
						S3487.2,30,3638.7,30z"/>
				</g>
				<g>
					<path fill="none" stroke="#000000" stroke-miterlimit="10" d="M3913,304.3c0,151.5-122.8,274.3-274.3,274.3
						s-274.3-122.8-274.3-274.3S3487.2,30,3638.7,30S3913,152.8,3913,304.3z"/>
				</g>
			</g>
			<polygon points="3416.8,175.4 3432.5,151.1 3443.7,158.3 3437.4,168 3448,174.9 3453.9,165.8 3464.5,172.7 3458.7,181.8 
				3470.9,189.7 3477.8,179 3489,186.3 3472.7,211.5 			"/>
			<path d="M3487.7,121.1l-11.5,11.2l-3.4-3.5c-1.6-1.6-2.8-2.5-3.5-2.7s-1.399,0.101-2.1,0.8c-0.7,0.7-1,1.601-0.8,2.601
				c0.199,1,0.899,2.1,2.1,3.3c1.6,1.6,2.9,2.6,4.2,3c1.2,0.4,3.3,0.2,6.3-0.5c8.7-2.1,14.8-2.8,18.3-2.1
				c3.5,0.699,7.5,3.399,12.101,8c3.3,3.399,5.399,6.3,6.1,8.699c0.801,2.4,0.601,5.2-0.6,8.5c-1.2,3.301-3.301,6.4-6.301,9.4
				c-3.3,3.2-6.8,5.4-10.3,6.4c-3.6,1-6.7,0.899-9.3-0.301c-2.6-1.199-5.7-3.6-9.2-7.199l-3.1-3.101l11.5-11.2l5.7,5.801
				c1.699,1.8,3,2.8,3.899,3c0.8,0.199,1.601-0.101,2.5-0.9c0.8-0.8,1.101-1.7,0.899-2.8c-0.199-1-1-2.2-2.199-3.5
				c-2.7-2.8-4.9-4.3-6.5-4.4c-1.601-0.1-5,0.4-10,1.3c-5.101,1-8.601,1.5-10.5,1.5c-1.9,0.101-4-0.399-6.2-1.399
				s-4.601-2.7-7.101-5.3c-3.6-3.601-5.699-6.801-6.399-9.4s-0.5-5.4,0.601-8.4c1.1-3,3.199-5.899,6.1-8.8c3.2-3.1,6.5-5.3,9.7-6.5
				c3.3-1.2,6.1-1.3,8.3-0.5c2.3,0.9,5.3,3.2,9,7L3487.7,121.1z"/>
			<polygon points="3526.2,71.9 3533.2,102.7 3561.4,128.4 3546.099,137.7 3525.3,116.8 3540.099,141.3 3525.2,150.2 3490.9,93.2 
				3505.7,84.2 3519,106.4 3512.3,80.3 			"/>
			
				<rect x="3531.465" y="84.159" transform="matrix(0.3333 0.9428 -0.9428 0.3333 2464.0771 -3299.0408)" width="66.598" height="17.3"/>
			<polygon points="3600.2,49.7 3609.2,102.2 3619.5,100.4 3621.8,113.6 3594.3,118.2 3583.099,52.6 			"/>
			<path d="M3667.2,68l-16.101-0.7l0.2-4.9c0.101-2.3,0-3.8-0.399-4.399c-0.4-0.601-1.101-1-2-1c-1,0-1.801,0.3-2.4,1.2
				c-0.6,0.8-0.9,2.1-1,3.8c-0.1,2.2,0.1,3.899,0.7,5.1c0.5,1.101,2.1,2.601,4.7,4.3c7.5,4.9,12.199,8.9,14.1,11.9s2.7,7.8,2.4,14.3
				c-0.2,4.7-0.9,8.2-2.101,10.4s-3.399,4-6.7,5.399c-3.199,1.4-7,2-11.199,1.801c-4.601-0.2-8.5-1.2-11.7-3.101
				c-3.2-1.899-5.2-4.2-6.101-7c-0.899-2.8-1.199-6.6-1-11.6l0.2-4.4l16.101,0.7l-0.301,8.1c-0.1,2.5,0.101,4.101,0.5,4.801
				c0.4,0.699,1.2,1.1,2.4,1.199c1.1,0,2-0.399,2.6-1.199c0.601-0.9,0.9-2.2,1-4c0.2-3.9-0.3-6.5-1.3-7.801
				c-1-1.3-3.7-3.399-7.8-6.399c-4.2-3-6.9-5.2-8.301-6.601c-1.3-1.3-2.399-3.199-3.199-5.5c-0.801-2.3-1.2-5.199-1-8.8
				c0.199-5.1,1-8.8,2.399-11.1c1.4-2.3,3.601-4.101,6.5-5.3c3-1.2,6.5-1.7,10.601-1.5c4.5,0.199,8.3,1.1,11.399,2.699
				c3.101,1.601,5.101,3.5,6.101,5.801c0.899,2.3,1.3,6,1.1,11.3L3667.2,68z"/>
			<polygon points="3722.599,60.2 3719.099,73.1 3709.2,70.5 3695.5,121.9 3678.8,117.5 3692.5,66 3682.599,63.4 3686,50.5 			"/>
			<path d="M3774.7,85.2L3754,124.6c-2.3,4.5-4.1,7.5-5.4,9.2c-1.199,1.7-3.1,3.1-5.5,4.2c-2.399,1.2-5.1,1.6-7.899,1.399
				c-2.899-0.3-5.899-1.199-9.101-2.899c-3.5-1.8-6.3-4.101-8.399-6.601s-3.3-5.199-3.7-7.699c-0.399-2.601-0.1-5,0.7-7.2
				s3-6.601,6.5-13.3l18.3-34.9l15.301,8.1l-23.2,44.2c-1.4,2.601-2.101,4.3-2.2,5.2s0.3,1.5,1.1,2c1,0.5,1.801,0.4,2.5-0.2
				c0.7-0.6,1.801-2.399,3.4-5.399l22.8-43.4L3774.7,85.2z"/>
			<polygon points="3823.3,124.9 3778.8,174.5 3767.5,164.3 3781,135.8 3760.8,158.3 3750,148.6 3794.5,99.1 3805.3,108.7 
				3792.5,137.5 3812.5,115.2 			"/>
			<path d="M3857,169.5l-49.7,45.399L3797.4,200.2l9.399-7.5l-3.5-5.101l-10.5,5.8l-10-14.899l60.2-29.9L3857,169.5z M3816.3,185.8
				c5.8-4.9,13-10.9,21.7-17.8c-11.6,5.7-19.9,9.899-25.1,12.899L3816.3,185.8z"/>
			<polygon points="3471.4,404.3 3439.9,407.9 3411.3,433.199 3403.8,417 3426.7,398.5 3400.8,410.6 3393.5,394.8 3454,366.699 
				3461.3,382.5 3437.8,393.4 3464.599,389.5 			"/>
			<path d="M3493.4,432.3l-46.101,49.2l-11-13.9l8.8-8.2l-3.899-4.899l-10,6.6l-11.101-14.1l57.801-34.5L3493.4,432.3z
				 M3454.099,451.699c5.4-5.399,12.101-11.899,20.301-19.5c-11.101,6.601-19.101,11.5-24,14.801L3454.099,451.699z"/>
			<path d="M3503.099,443.1l9.7,7.6c6.4,5.101,10.601,8.7,12.5,11c1.9,2.301,2.8,5,2.601,8.2c-0.2,3.2-2,7-5.5,11.5
				c-3.2,4.101-5.9,6.4-8,7c-2.101,0.601-4.801-0.1-8-2.2c2.199,2.801,3.3,5.101,3.3,7c0,1.9-0.2,3.301-0.7,4.5
				c-0.5,1.101-2.399,3.801-5.8,8l-10.899,13.801l-12.7-10l13.7-17.4c2.199-2.8,3.399-4.7,3.399-5.7c0.101-1-0.8-2.3-2.7-3.7
				l-18.6,23.7l-13.601-10.7L3503.099,443.1z M3509.7,462.8l-9.2,11.7c1.5,1.199,2.8,1.8,3.7,1.899c0.899,0.101,2.3-1.1,4.1-3.399
				l2.3-2.9c1.301-1.7,1.9-3,1.7-4S3511.3,464,3509.7,462.8"/>
			<path d="M3568,483.699l-18.8,64.801l-16.101-7.4l4.101-11.3l-5.601-2.601l-5.899,10.5l-16.3-7.5l35.8-57L3568,483.699z
				 M3541.8,518.9c2.4-7.2,5.4-16.1,9.3-26.6c-6.899,10.899-11.8,18.899-14.699,24.1L3541.8,518.9z"/>
			<polygon points="3615,495.8 3612.2,508.8 3602.2,506.699 3590.9,558.9 3574,555.199 3585.2,503 3575.2,500.9 3578,487.8 			"/>
			<polygon points="3625.8,496.4 3654.7,495.9 3655,509.199 3643.4,509.4 3643.599,522.1 3654.4,521.9 3654.599,534.6 3643.8,534.8 
				3644,549.4 3656.8,549.199 3657,562.6 3626.9,563.1 			"/>
			<polygon points="3704.8,485.5 3702.2,517.1 3721.4,550.1 3704,554.3 3690.4,528.199 3697.2,556 3680.3,560.1 3664.599,495.199 
				3681.4,491.1 3687.599,516.3 3689,489.3 			"/>
			<polygon points="3727.2,474.199 3750.8,522 3760.3,517.4 3766.2,529.3 3741.2,541.699 3711.599,481.9 			"/>
			<path d="M3771,443.9l27.2,35.3c3.1,4,5.1,6.9,6.1,8.7s1.5,4.101,1.5,6.8c0,2.7-0.7,5.3-2.1,7.8c-1.4,2.5-3.601,4.801-6.4,7
				c-3.2,2.4-6.3,4.101-9.6,4.9c-3.2,0.8-6.101,0.9-8.601,0.1c-2.5-0.8-4.6-2-6.199-3.699c-1.7-1.7-4.801-5.5-9.4-11.5l-24.1-31.301
				l13.699-10.6l30.601,39.6c1.8,2.301,3,3.7,3.8,4.101c0.8,0.399,1.5,0.399,2.3-0.2c0.9-0.7,1.2-1.5,0.9-2.4
				c-0.3-0.899-1.5-2.699-3.5-5.3l-30-38.899L3771,443.9z"/>
			<path d="M3776.8,438.199l10.7-13.6c3.4-4.3,6.3-7.3,8.7-9c2.399-1.7,5.2-2.4,8.3-2.1c3.1,0.3,6.9,2.199,11.4,5.699
				c3.1,2.4,4.8,4.601,5.3,6.5c0.399,1.9-0.101,4.5-1.7,7.9c3.2-2.6,6.1-3.8,8.6-3.6c2.5,0.199,5.5,1.6,8.9,4.3l4.9,3.8
				c3.5,2.8,5.8,5.3,6.899,7.399c1.101,2.2,1.2,4.4,0.399,6.601c-0.8,2.3-3.3,6.1-7.699,11.6l-12.5,15.7L3776.8,438.199z
				 M3796.5,431.699l11.6,9.2c0.4-0.6,0.801-1.1,1-1.399c1.101-1.301,1.4-2.4,1-3.301c-0.399-0.899-2.1-2.6-5.199-5
				c-1.601-1.3-2.9-2.1-3.801-2.3c-0.899-0.2-1.6-0.2-2.199,0.2S3797.599,430.3,3796.5,431.699 M3816.3,447.4L3830.9,459
				c1.5-2,2.1-3.4,2-4.4c-0.101-1-1.2-2.3-3.301-3.9l-4.899-3.899c-2.2-1.8-3.8-2.601-4.601-2.5
				C3819.2,444.3,3818,445.4,3816.3,447.4"/>
			<path d="M3805,401.3l7.2-15.7c2.3-5,4.399-8.601,6.3-10.8c1.9-2.2,4.5-3.601,7.5-4c3.1-0.5,7.2,0.5,12.5,2.899
				c3.5,1.601,5.8,3.3,6.7,5.101c0.899,1.8,1,4.399,0.2,8.1c2.5-3.3,5-5.1,7.5-5.5c2.5-0.399,5.699,0.3,9.699,2.101l5.601,2.6
				c4.1,1.9,6.899,3.7,8.5,5.6c1.5,1.801,2.2,4,2,6.301c-0.2,2.399-1.8,6.699-4.7,13.1l-8.4,18.3L3805,401.3z M3822.599,390.3
				l13.5,6.2c0.301-0.7,0.5-1.2,0.7-1.601c0.7-1.6,0.8-2.7,0.2-3.5s-2.7-2-6.2-3.6c-1.899-0.9-3.3-1.3-4.2-1.3
				c-0.899,0-1.6,0.199-2.1,0.699C3823.9,387.699,3823.3,388.699,3822.599,390.3 M3845.5,400.8l17,7.8c0.9-2.3,1.2-3.8,0.9-4.7
				c-0.301-0.9-1.7-1.9-4.2-3l-5.7-2.6c-2.6-1.2-4.3-1.601-5.1-1.301C3847.599,397.199,3846.599,398.5,3845.5,400.8"/>
			<path fill="#FFFFFF" d="M3816.599,304.3c0,98.3-79.699,177.899-177.899,177.899S3460.801,402.5,3460.801,304.3
				c0-98.3,79.699-177.9,177.899-177.9S3816.599,206,3816.599,304.3"/>
			<path fill="none" stroke="#000000" stroke-width="2.126" stroke-miterlimit="10" d="M3816.599,304.3
				c0,98.3-79.699,177.899-177.899,177.899S3460.801,402.5,3460.801,304.3c0-98.3,79.699-177.9,177.899-177.9
				S3816.599,206,3816.599,304.3z"/>
			<path fill="none" stroke="#000000" stroke-miterlimit="10" d="M3598.5,131c0,0-114.4,41.6-96.1,158.899
				c5.199,33.101,16,50.9,35.199,65.4c19.301,14.5,42.101,26.6,58.101,42.399"/>
			<path fill="none" stroke="#000000" stroke-width="1.417" stroke-miterlimit="10" d="M3463.2,274.2
				c-3.4,32.399,8.399,57.6,11.2,63.199c5.3,10.7,14,21.5,22.3,30.2c12.3,12.8,31.399,20.6,47.899,27.1"/>
			<path fill="none" stroke="#000000" stroke-width="1.417" stroke-miterlimit="10" d="M3472.5,367.699c3.5,6.5,8.9,11.7,14.5,16.4
				c17.6,14.8,41.2,24.1,64.2,25.4"/>
			<path fill="none" stroke="#000000" stroke-width="1.417" stroke-miterlimit="10" d="M3486.5,396.6c10.6,16.1,21.6,19.4,26.6,21.8
				c14.301,6.9,36.9,11.2,52.7,10.3"/>
			<path fill="none" stroke="#000000" stroke-width="2.126" stroke-miterlimit="10" d="M3515.2,432.3c7.1,6.2,14.899,11.7,23.6,15
				c8,3.1,16.8,3.399,25.4,3.2c4.7-0.2,9.3-0.601,13-1.4"/>
			<path fill="none" stroke="#000000" stroke-miterlimit="10" d="M3574.099,437.9c-0.699-7.8,0.4-14.6,3.601-22
				c2.2-5.1,6.101-9.399,10.399-12.899c7-5.601,15.4-8.4,21-15.5c5-6.4,10.301-13.801,10.9-21.9c0.3-3.7,0-16.3-13.8-17.2
				c-3.9-0.3-11.7,2.9-8.3-2.1c7.8-11.8,19.1-23.7,27.199-25.2c6.2-1.101,12.601-0.3,17.4,3.899c4.699,4.101,8.399,9.2,11.5,14.601
				c6.5,11.5,10,24.1,12.3,37.1c1,5.4,1.8,10.8,3.5,16c0.601,1.9,1.5,3.8,3,5.101c2.8,2.5,6.8,1.399,9.5-0.601
				c1.2-0.899,23.101-18.2,29.101-22.2c5.6-3.699,11.3-7.399,16.8-11.199c3.8-2.601,7.6-5.301,11.3-8.101
				c19.3-14.5,30.1-32.3,35.2-65.399c18.3-117.3-96.101-158.9-96.101-158.9"/>
			<path fill="none" stroke="#000000" stroke-width="2.126" stroke-miterlimit="10" d="M3750.3,166.1c0,0,52.101,39.3,45.5,126.5
				c-0.8,10.3-2.1,20.3-4.899,30.3c-1.301,4.601-9.301,27.7-35.2,55.9c-7.3,7.899-14.3,24.8-21.7,32.6c-9,9.5-19.699,17-26.8,28.3
				c-2.3,3.7-4.2,7.601-6.7,11.101c-2.699,4-6.1,7.6-9.5,11.1c-6.8,7-14.199,14.101-23.6,16.7c-5,1.3-26.301,3.6-32.101,3.2
				c-40.899-3-58.5-23.601-60.8-41.3c-0.1-0.9-0.2-1.801-0.3-2.601c0,0-17.4-18.899-21.5-26.1c-4.101-7.2-6.5-15.2-10.7-22.3
				c-4.5-7.5-11-13.5-17.1-19.7c-10-10.2-19.301-21.2-27.7-32.8c-4.601-6.301-8.8-13.2-11.101-20.601
				c-2.399-7.8-3.8-15.8-4.399-23.899c-6.601-87.2,45.5-126.5,45.5-126.5"/>
			<path fill="none" stroke="#000000" stroke-width="1.417" stroke-miterlimit="10" d="M3814.099,274.4
				c3.4,32.4-8.399,57.601-11.199,63.2c-5.301,10.7-14.101,21.5-22.301,30.2c-8.5,8.8-20.199,15.2-32.1,20.5"/>
			<path fill="none" stroke="#000000" stroke-width="1.417" stroke-miterlimit="10" d="M3804.8,367.9c-3.5,6.5-8.899,11.7-14.5,16.4
				c-15,12.6-34.3,21.2-53.8,24.3"/>
			<path fill="none" stroke="#000000" stroke-width="1.417" stroke-miterlimit="10" d="M3790.8,396.8
				c-10.6,16.1-21.6,19.399-26.6,21.8c-13.101,6.3-33,10.399-48.5,10.399"/>
			<path fill="none" stroke="#000000" stroke-width="2.126" stroke-miterlimit="10" d="M3762.2,432.5
				c-7.101,6.199-14.9,11.699-23.601,15c-8,3.1-16.8,3.399-25.399,3.199c-4.7-0.199-8.8-0.399-12.601-1.3"/>
			<path fill="#D7242A" d="M3715.9,214c0,42.6-34.5,77.1-77.101,77.1s-77.101-34.5-77.101-77.1c0-42.601,34.5-77.101,77.101-77.101
				S3715.9,171.4,3715.9,214"/>
			<circle fill="none" stroke="#000000" stroke-miterlimit="10" cx="3638.8" cy="214" r="77.1"/>
			<path fill="#D7242A" d="M3420.8,308.5c0,5.6-4.6,10.199-10.2,10.199c-5.6,0-10.199-4.6-10.199-10.199
				c0-5.601,4.6-10.2,10.199-10.2C3416.2,298.3,3420.8,302.9,3420.8,308.5"/>
			<circle fill="none" stroke="#000000" stroke-miterlimit="10" cx="3410.7" cy="308.5" r="10.2"/>
			<path fill="#D7242A" d="M3871.3,308.5c0,5.6-4.6,10.199-10.2,10.199c-5.6,0-10.199-4.6-10.199-10.199
				c0-5.601,4.6-10.2,10.199-10.2C3866.7,298.3,3871.3,302.9,3871.3,308.5"/>
			<circle fill="none" stroke="#000000" stroke-miterlimit="10" cx="3861.099" cy="308.5" r="10.2"/>
			<path d="M3629.9,337.699c0,1.601-1.301,2.9-2.9,2.9s-2.9-1.3-2.9-2.9c0-1.6,1.301-2.899,2.9-2.899S3629.9,336.1,3629.9,337.699"
				/>
		</g>
	</g>
</g>
<g id="Layer_2_1_" display="none">
	<g id="Layer_2" display="inline">
		<text transform="matrix(0.9474 0.32 -0.32 0.9474 1471.4841 284.6497)" fill="#FFFFFF" font-family="'Impact'" font-size="288">Testsite</text>
		
			<text transform="matrix(0.9474 0.32 -0.32 0.9474 1471.4841 284.6497)" fill="none" stroke="#000000" stroke-width="4" font-family="'Impact'" font-size="288">Testsite</text>
	</g>
</g>
</svg>
