<?xml version="1.0" encoding="utf-8"?>
<!-- Generator: Adobe Illustrator 14.0.0, SVG Export Plug-In . SVG Version: 6.00 Build 43363)  -->
<!DOCTYPE svg PUBLIC "-//W3C//DTD SVG 1.1//EN" "http://www.w3.org/Graphics/SVG/1.1/DTD/svg11.dtd">
<svg version="1.1" xmlns="http://www.w3.org/2000/svg" xmlns:xlink="http://www.w3.org/1999/xlink" x="0px" y="0px" width="647px"
	 height="90px" viewBox="0 0 647 90" enable-background="new 0 0 647 90" xml:space="preserve">
<g id="Icon">
	<path fill="#64BC4F" stroke="#010101" d="M5.75,3.223c39.333,0,39.333,0,39.333,0L42.75,12.39h10.167l7.916,11.75L41,32.39
		L5.75,3.223z"/>
	<polygon fill="#EF3C24" stroke="#010101" points="2,19.14 2,87.265 38,87.265 41.75,65.515 36.125,47.515 	"/>
	<polygon fill="#4A57A6" stroke="#010101" points="71.875,47.14 50.25,47.14 54.375,62.765 50.25,87.265 93.015,87.265 
		93.015,52.14 81.52,59.794 	"/>
	<polygon fill="#F8ED34" stroke="#000000" points="93.015,44.887 93.015,3.223 63.057,3.223 74.377,24.055 87.928,15.418 
		90.912,28.809 78.035,33.506 83.786,42.495 83.786,42.495 90.993,39.903 	"/>
</g>
<g id="Text">
	
		<text transform="matrix(0.75 0 0 1 98 87)" fill="#FFFFFF" stroke="#000000" stroke-width="2" font-family="'Impact'" font-size="105">TUNA KARATE CUP</text>
</g>
</svg>
