<?xml version="1.0" encoding="utf-8"?>
<!-- Generator: Adobe Illustrator 14.0.0, SVG Export Plug-In . SVG Version: 6.00 Build 43363)  -->
<!DOCTYPE svg PUBLIC "-//W3C//DTD SVG 1.1//EN" "http://www.w3.org/Graphics/SVG/1.1/DTD/svg11.dtd">
<svg version="1.1" xmlns="http://www.w3.org/2000/svg" xmlns:xlink="http://www.w3.org/1999/xlink" x="0px" y="0px" width="460.4px"
	 height="456px" viewBox="0 0 460.4 456" enable-background="new 0 0 460.4 456" xml:space="preserve">
<g id="Backgrund" display="none">
	<rect x="-85.8" y="-15.7" display="inline" stroke="#000000" width="670" height="512"/>
</g>
<g id="Layer_1">
	<g>
		<defs>
			<rect id="SVGID_1_" x="-191.3" y="-69.8" width="841.9" height="595.3"/>
		</defs>
		<clipPath id="SVGID_2_">
			<use xlink:href="#SVGID_1_"  overflow="visible"/>
		</clipPath>
		<path clip-path="url(#SVGID_2_)" fill="#FFFFFF" d="M457.4,228c0-59.9-23.5-116.2-66.3-158.6C348.4,27,291.6,3.7,231.1,3.7
			c-60.4,0-117.3,23.3-160,65.7C28.4,111.8,4.8,168.1,4.8,228c0,59.9,23.5,116.2,66.3,158.6c42.7,42.4,99.6,65.7,160,65.7
			c0.7,0,1.4,0,2.1,0c1,0,2,0,3,0h0c11.8,0,21.4-0.9,29.5-2.6c47.3-7.1,91-28.9,125.4-63.1c0.2-0.2,0.3-0.3,0.5-0.5c0,0,0,0,0,0l0,0
			C434.1,343.7,457.4,287.7,457.4,228 M253.3,8c85.5,10.4,151.9,82.8,151.9,170.3c0,30.7-8.3,60.9-24,87.2l-1.3,2.1l-0.1,0.1
			c-8,15.8-26,33-40.3,43c-3.7,2.6-7.3,4.3-11.2,6.2c-9.3,4.4-19.8,9.5-34.6,27c-4,4.8-7.8,6.8-11.5,6.1c-5-1-8.5-7-9.4-9.8
			c-0.5-1.6-1.2-4.6-2.1-8.4c-2.3-10.2-6.2-27.3-13.1-44.7c-10.3-26.2-21.8-38.9-35.1-38.9c-0.4,0-0.8,0-1.2,0
			c-12.8,0.7-18.1,4.8-23.4,12.1c-3.4,4.7-8.3,9.9-12.2,14.2c-1.9,2-3.5,3.8-4.7,5.2c-1.9,2.2-3,3.9-2.1,5.4c0.9,1.7,3.3,1.4,6.1,1
			c3.7-0.5,18.2,0,21.6,12.1c3.9,14.1-7.8,29.5-9.1,31.2c-2,1.5-4.5,3.2-7.3,5.1c-4,2.7-8.6,5.8-13.2,9.3
			c-6.3-6.7-18.1-19.1-32.6-26.1c-14.9-7.1-49.3-28.8-60.5-50l-1.4-2.4c-15.7-26.3-24-56.5-24-87.2c0-89.6,69.7-163.4,158.1-171
			c4.7-0.3,9.5-0.4,14.2-0.4C238.6,6.9,246,7.3,253.3,8"/>
		<path clip-path="url(#SVGID_2_)" fill="#EF423F" d="M329.5,113.8c0,53.8-43.6,97.4-97.4,97.4s-97.4-43.6-97.4-97.4
			c0-53.8,43.6-97.4,97.4-97.4S329.5,60,329.5,113.8"/>
		
			<circle clip-path="url(#SVGID_2_)" fill="none" stroke="#000000" stroke-width="4" stroke-miterlimit="10" cx="232.1" cy="113.8" r="97.4"/>
		<path clip-path="url(#SVGID_2_)" d="M394,77.9c26.8,33.8,32,76,34.8,113.1c4.1,55.1-19.6,92.4-29.9,105.8
			c-9.6,12.5-19.3,27.5-27.9,40.7c-9.7,15-18.1,27.9-24,33.8c-3.8,3.8-7.1,6-10.3,8.1c-3.1,2.1-6.3,4.2-9.9,7.7
			c-5.8,5.8-8.3,9.7-13.8,18.3c-1.3,2-2.7,4.3-4.4,6.9c-0.7,1-1.3,2.1-2,3.1c-8.2,12.8-16.6,25.9-42.7,31.3
			c-10.1,1.5-20.4,2.3-30.9,2.5c-28.5-0.4-49.5-7.4-62.5-21.1c-13.7-14.5-15.7-33.6-15-47c1-19.2,22.4-33.8,36.6-43.4
			c2.9-2,5.5-3.7,7.6-5.3l0.3-0.3c0.6-0.7,14.4-17.8,9.8-34.2c-3.7-13.1-18.5-15.4-25.1-14.4c-0.4,0.1-1.4,0.2-2.2,0.3
			c0.2-0.3,0.6-0.8,1.1-1.4c1.2-1.4,2.8-3.1,4.6-5.1c4-4.3,8.9-9.6,12.4-14.5c4.8-6.6,9.4-10.1,21-10.8
			c12.1-0.7,23.2,11.7,33.1,36.9c6.8,17.2,10.6,34.1,12.9,44.2c0.9,4.1,1.6,7,2.2,8.7c0.9,2.9,4.9,10.5,11.9,11.9
			c4.8,0.9,9.7-1.5,14.5-7.2c14.3-17,24.5-21.9,33.5-26.2c4-1.9,7.8-3.8,11.7-6.5c13.5-9.5,32.4-26.8,41.2-44.1l1.2-2
			c16-26.8,24.4-57.5,24.4-88.8c0-69.8-41.5-130.2-101.4-158.2C340.4,32.5,370.2,52.4,394,77.9 M231.1,6.9c4.8,0,9.5,0.2,14.2,0.5
			c89.3,6.8,159.8,81,159.8,171.1c0,30.7-8.3,60.9-24,87.2l-1.3,2.1l-0.1,0.1c-8,15.8-26,33-40.3,43c-3.7,2.6-7.3,4.3-11.2,6.2
			c-9.3,4.4-19.8,9.5-34.6,27c-4,4.8-7.8,6.8-11.5,6.1c-5-1-8.5-7-9.4-9.8c-0.5-1.6-1.2-4.6-2.1-8.4c-2.3-10.2-6.2-27.3-13.1-44.7
			c-10.3-26.2-21.8-38.9-35.1-38.9c-0.4,0-0.8,0-1.2,0c-12.8,0.7-18.1,4.8-23.4,12.1c-3.4,4.7-8.3,9.9-12.2,14.2
			c-1.9,2-3.5,3.8-4.7,5.2c-1.9,2.2-3,3.9-2.1,5.4c0.9,1.7,3.3,1.4,6.1,1c3.7-0.5,18.2,0,21.6,12.1c3.9,14.1-7.8,29.5-9.1,31.2
			c-2,1.5-4.5,3.2-7.3,5.1c-4,2.7-8.6,5.8-13.2,9.3c-6.3-6.8-18.1-19.1-32.6-26.1c-14.9-7.1-49.3-28.8-60.5-50l-1.4-2.4
			c-15.7-26.3-24-56.5-24-87.2C58.7,84.2,136,7.3,231.1,6.9 M390.4,69.4C350.7,30.1,299,7.2,243.5,4.1c-3.8-0.2-7.7-0.4-11.6-0.4
			c-0.3,0-0.5,0-0.8,0c-0.3,0-0.5,0-0.8,0C190.2,5.9,167,16,167,16C101.7,41.7,55.5,104.9,55.5,178.5c0,31.3,8.5,62,24.4,88.9
			l1.4,2.2c11.5,22,46.7,44.1,61.9,51.4c13.9,6.6,25.3,18.5,31.5,25.2c-11.2,9-21.6,20.5-22.3,34.5c-0.2,3.4-0.2,7.1,0.1,11l0.4,4
			c0.6,4.8,1.7,9.7,3.4,14.7l1.2,3c2.4,5.8,5.9,11.6,10.8,16.7c6.6,7,15.2,12.3,25.7,16c0,0,15.7,6.8,36.3,6.1c1,0,1.9,0,2.8,0
			c0.7,0,1.5,0,2.2,0h0c11.8,0,21.4-0.9,29.5-2.6c0,0,9.4-0.9,20.9-7.5c11.6-6.6,17.5-15.7,23.2-24.6c0,0,1.6-2.4,1.8-2.7
			c0.2-0.3,0.4-0.6,0.6-0.9c1.7-2.6,3.2-4.9,4.4-6.9c1.6-2.4,2.8-4.4,4-6.2l2.2-3.2c2.1-2.9,4.1-5.3,7.1-8.3
			c1.5-1.5,2.9-2.7,4.3-3.8c0,0,2.4-1.5,7.6-5.3c2.5-1.7,5.2-3.8,8.2-6.8c4.2-4.1,9.4-11.5,15.4-20.5c0,0,1-1.5,3-4.5
			c1.9-3,3.9-6.1,6-9.3c8.5-13.2,18.2-28.1,27.7-40.5C412,285,436.2,247,432,190.7c-2.2-29.8-6.1-63-21.3-92.7
			C398.8,74.6,390.4,69.4,390.4,69.4"/>
		<path clip-path="url(#SVGID_2_)" d="M391.1,386.1c42.4-42.3,65.8-98.4,65.8-158.1c0-59.9-23.5-116.2-66.3-158.6
			C347.8,27.1,291,3.8,230.5,3.8s-117.3,23.3-160,65.7C27.8,111.8,4.2,168.1,4.2,228c0,59.9,23.5,116.2,66.3,158.6
			c42.7,42.4,99.6,65.7,160,65.7c0.7,0,1.4,0,2.1,0c1,0,2,0,3,0h0c11.8,0,21.4-0.9,29.5-2.6c47.3-7.1,91-28.9,125.4-63.1
			C390.7,386.4,390.9,386.3,391.1,386.1C391,386.1,391.1,386.1,391.1,386.1L391.1,386.1z M333.6,385.6c1.3-0.4,2.9-0.8,4.7-1.2
			c13.4-3.4,38.5-9.7,62.4-28.1c9.6-7.4,18.5-14.9,24.8-20.8c-10.2,18-22.8,34.5-37.4,49c-3.1,2.2-11.4,4.5-21.6,7.3
			c-2.3,0.6-4.7,1.3-7.2,2c-12,3.4-29.9,3.8-36.9,3.8c2.1-2.9,4.1-5.3,7.1-8.3C330.8,387.8,332.2,386.6,333.6,385.6 M430.9,325.2
			c-2.8,4-15.9,16-32.2,28.5c-21.3,16.4-43.7,23-57.5,26.6c2.5-1.7,5.2-3.8,8.2-6.8c4.2-4.1,9.4-11.5,15.4-20.5
			c10.8-3.4,34.4-16.6,54.4-45.1c15.3-21.8,30.7-49.1,34.2-88.4c0.1,2.8,0.2,5.7,0.2,8.5C453.6,262.9,445.5,295.8,430.9,325.2
			 M432.2,190.8c-2.2-29.8-6.1-63-21.3-92.7c20.2,27.4,34.2,59.6,39.9,94.5c2.6,53.6-15.7,87.5-34.1,113.6
			c-17.4,24.7-37.3,37.6-48.8,42.4c1.9-3,3.9-6.1,6-9.3c8.5-13.2,18.2-28.1,27.7-40.5C412.2,285,436.4,247,432.2,190.8 M394.2,77.9
			c26.8,33.8,32,76,34.8,113.1c4.1,55.1-19.6,92.4-29.9,105.8c-9.6,12.5-19.3,27.5-27.9,40.7c-9.7,15-18.1,27.9-24,33.8
			c-3.8,3.8-7.1,6-10.3,8.1c-3.1,2.1-6.3,4.2-9.9,7.7c-5.8,5.8-8.3,9.7-13.8,18.3c-1.3,2-2.7,4.3-4.4,6.9c-0.7,1-1.3,2.1-2,3.1
			c-8.2,12.8-16.6,25.9-42.7,31.3c-10.3,1.6-20.8,2.4-31.6,2.5c-58.1-1-76-30-78.8-54.5l-0.5-2.3c-0.2-0.1-20.2-11.3-29.9-31.4
			c-3.7-7.7-7.1-12.9-9.4-17.8c-3.8-8.3-5.3-12.9-13.7-19.9c-18.4-15.2-35.6-28.9-48.8-55.1c-14.4-28.5-25.6-78.4-10-125.4
			c16.1-48.3,19.9-57.5,57.3-93.1c36.9-26.9,82.5-42.8,131.7-42.8C295.1,6.9,353.4,34.3,394.2,77.9 M52.8,361.5
			c-9.5-12.4-17.7-25.8-24.5-40.1c7,8.8,16.4,16.5,34.8,27.3c25.1,14.8,53.2,15.9,58.7,16c3.9,7.2,9.2,13.3,14.3,18.2
			c-5.5,1.2-20.5,3.3-44.4-3C66.4,373.2,57.2,366.4,52.8,361.5 M71.7,72.9c-15.5,18.3-21.4,33.4-33.2,68.9
			c-16,47.9-4.5,98.8,10.2,127.8c13.6,26.9,31.6,40.4,49.9,56.3c7.4,6.5,7.6,8.6,12.1,17.1c-10.9-4-46.1-20.3-65-43.4
			c-22.3-27.3-37.3-68-36.5-99.1C15.4,151.1,38.1,106.7,71.7,72.9 M7.5,221.8c4.4,27.5,17.7,58,35.6,79.9
			c21.5,26.2,62.4,42.5,68.8,44.6c2.3,4.8,5.3,9,8.2,15.2c-7.9-0.3-32.9-2.2-55.4-15.5c-27.1-16-34.2-24.9-43.4-41.1
			c-9-24-13.9-49.9-13.9-76.9C7.4,225.9,7.5,223.9,7.5,221.8 M61.3,372c6.3,3.5,15.6,7.3,29.6,11.1c13,3.5,23.5,4.5,31.3,4.5
			c9.4,0,14.9-1.5,16.7-2c6.4,5.6,10.1,8,12.1,9.2c0.6,4.8,1.7,9.8,3.4,14.7c-4.5,0.8-14.7,3.6-26.2,2.1c-15-1.9-26.6-7-40.2-13.5
			C78.4,390.1,69.5,381.4,61.3,372 M99,406.5c9.1,3.8,18.3,6.8,28.9,8.2c3.4,0.4,6.8,0.6,10.1,0.6c8.9,0,14.7-2.3,17.7-2.8
			c5.5,13.2,18.2,26.6,38.2,33.7C158.8,440.3,126.5,426.4,99,406.5 M309.3,417.6c2.7,1.1,9.4,3.5,17.6,3.5c0.9,0,1.8,0,2.8-0.1
			c4-0.3,8.3-0.7,12.6-1.6c-17.4,10-36.3,17.8-56.2,22.8C297.6,435.6,303.5,426.5,309.3,417.6 M355.7,410.9
			c-8.7,5.1-18.1,6.3-26.3,6.8c-8.3,0.5-15.3-1.7-18.4-2.9c0.2-0.3,0.4-0.6,0.6-0.9c1.7-2.6,3.2-4.9,4.4-6.9c1.6-2.4,2.8-4.4,4-6.2
			c0.5,0,1.3,0,2.2,0c7.2,0,25.3-0.4,37.7-3.9c2.5-0.7,4.9-1.4,7.2-2c5.6-1.6,10.4-2.9,14.2-4.2C373.4,398,364.8,404.8,355.7,410.9"
			/>
		<path clip-path="url(#SVGID_2_)" fill="none" stroke="#000000" stroke-width="4" stroke-miterlimit="10" d="M391.1,386.1
			c42.4-42.3,65.8-98.4,65.8-158.1c0-59.9-23.5-116.2-66.3-158.6C347.8,27.1,291,3.8,230.5,3.8s-117.3,23.3-160,65.7
			C27.8,111.8,4.2,168.1,4.2,228c0,59.9,23.5,116.2,66.3,158.6c42.7,42.4,99.6,65.7,160,65.7c0.7,0,1.4,0,2.1,0c1,0,2,0,3,0h0
			c11.8,0,21.4-0.9,29.5-2.6c47.3-7.1,91-28.9,125.4-63.1C390.7,386.4,390.9,386.3,391.1,386.1C391,386.1,391.1,386.1,391.1,386.1
			L391.1,386.1z M333.6,385.6c1.3-0.4,2.9-0.8,4.7-1.2c13.4-3.4,38.5-9.7,62.4-28.1c9.6-7.4,18.5-14.9,24.8-20.8
			c-10.2,18-22.8,34.5-37.4,49c-3.1,2.2-11.4,4.5-21.6,7.3c-2.3,0.6-4.7,1.3-7.2,2c-12,3.4-29.9,3.8-36.9,3.8
			c2.1-2.9,4.1-5.3,7.1-8.3C330.8,387.8,332.2,386.6,333.6,385.6z M430.9,325.2c-2.8,4-15.9,16-32.2,28.5
			c-21.3,16.4-43.7,23-57.5,26.6c2.5-1.7,5.2-3.8,8.2-6.8c4.2-4.1,9.4-11.5,15.4-20.5c10.8-3.4,34.4-16.6,54.4-45.1
			c15.3-21.8,30.7-49.1,34.2-88.4c0.1,2.8,0.2,5.7,0.2,8.5C453.6,262.9,445.5,295.8,430.9,325.2z M432.2,190.8
			c-2.2-29.8-6.1-63-21.3-92.7c20.2,27.4,34.2,59.6,39.9,94.5c2.6,53.6-15.7,87.5-34.1,113.6c-17.4,24.7-37.3,37.6-48.8,42.4
			c1.9-3,3.9-6.1,6-9.3c8.5-13.2,18.2-28.1,27.7-40.5C412.2,285,436.4,247,432.2,190.8z M394.2,77.9c26.8,33.8,32,76,34.8,113.1
			c4.1,55.1-19.6,92.4-29.9,105.8c-9.6,12.5-19.3,27.5-27.9,40.7c-9.7,15-18.1,27.9-24,33.8c-3.8,3.8-7.1,6-10.3,8.1
			c-3.1,2.1-6.3,4.2-9.9,7.7c-5.8,5.8-8.3,9.7-13.8,18.3c-1.3,2-2.7,4.3-4.4,6.9c-0.7,1-1.3,2.1-2,3.1
			c-8.2,12.8-16.6,25.9-42.7,31.3c-10.3,1.6-20.8,2.4-31.6,2.5c-58.1-1-76-30-78.8-54.5l-0.5-2.3c-0.2-0.1-20.2-11.3-29.9-31.4
			c-3.7-7.7-7.1-12.9-9.4-17.8c-3.8-8.3-5.3-12.9-13.7-19.9c-18.4-15.2-35.6-28.9-48.8-55.1c-14.4-28.5-25.6-78.4-10-125.4
			c16.1-48.3,19.9-57.5,57.3-93.1c36.9-26.9,82.5-42.8,131.7-42.8C295.1,6.9,353.4,34.3,394.2,77.9z M52.8,361.5
			c-9.5-12.4-17.7-25.8-24.5-40.1c7,8.8,16.4,16.5,34.8,27.3c25.1,14.8,53.2,15.9,58.7,16c3.9,7.2,9.2,13.3,14.3,18.2
			c-5.5,1.2-20.5,3.3-44.4-3C66.4,373.2,57.2,366.4,52.8,361.5z M71.7,72.9c-15.5,18.3-21.4,33.4-33.2,68.9
			c-16,47.9-4.5,98.8,10.2,127.8c13.6,26.9,31.6,40.4,49.9,56.3c7.4,6.5,7.6,8.6,12.1,17.1c-10.9-4-46.1-20.3-65-43.4
			c-22.3-27.3-37.3-68-36.5-99.1C15.4,151.1,38.1,106.7,71.7,72.9z M7.5,221.8c4.4,27.5,17.7,58,35.6,79.9
			c21.5,26.2,62.4,42.5,68.8,44.6c2.3,4.8,5.3,9,8.2,15.2c-7.9-0.3-32.9-2.2-55.4-15.5c-27.1-16-34.2-24.9-43.4-41.1
			c-9-24-13.9-49.9-13.9-76.9C7.4,225.9,7.5,223.9,7.5,221.8z M61.3,372c6.3,3.5,15.6,7.3,29.6,11.1c13,3.5,23.5,4.5,31.3,4.5
			c9.4,0,14.9-1.5,16.7-2c6.4,5.6,10.1,8,12.1,9.2c0.6,4.8,1.7,9.8,3.4,14.7c-4.5,0.8-14.7,3.6-26.2,2.1c-15-1.9-26.6-7-40.2-13.5
			C78.4,390.1,69.5,381.4,61.3,372z M99,406.5c9.1,3.8,18.3,6.8,28.9,8.2c3.4,0.4,6.8,0.6,10.1,0.6c8.9,0,14.7-2.3,17.7-2.8
			c5.5,13.2,18.2,26.6,38.2,33.7C158.8,440.3,126.5,426.4,99,406.5z M309.3,417.6c2.7,1.1,9.4,3.5,17.6,3.5c0.9,0,1.8,0,2.8-0.1
			c4-0.3,8.3-0.7,12.6-1.6c-17.4,10-36.3,17.8-56.2,22.8C297.6,435.6,303.5,426.5,309.3,417.6z M355.7,410.9
			c-8.7,5.1-18.1,6.3-26.3,6.8c-8.3,0.5-15.3-1.7-18.4-2.9c0.2-0.3,0.4-0.6,0.6-0.9c1.7-2.6,3.2-4.9,4.4-6.9c1.6-2.4,2.8-4.4,4-6.2
			c0.5,0,1.3,0,2.2,0c7.2,0,25.3-0.4,37.7-3.9c2.5-0.7,4.9-1.4,7.2-2c5.6-1.6,10.4-2.9,14.2-4.2C373.4,398,364.8,404.8,355.7,410.9z
			"/>
		<path clip-path="url(#SVGID_2_)" d="M221.1,271c0,2.4-2,4.4-4.4,4.4c-2.4,0-4.4-2-4.4-4.4c0-2.4,2-4.4,4.4-4.4
			C219.1,266.5,221.1,268.5,221.1,271"/>
	</g>
</g>
</svg>
